<svg width="1440" height="616" viewBox="0 0 1440 616" fill="none" xmlns="http://www.w3.org/2000/svg">
<mask id="mask0" style="mask-type:alpha" maskUnits="userSpaceOnUse" x="0" y="0" width="1440" height="616">
<rect width="1440" height="616" fill="#C4C4C4"/>
</mask>
<g mask="url(#mask0)">
<path opacity="0.7" d="M162.517 17.4731C162.517 17.4731 -68.34 191.457 30.9866 244.861C130.313 298.265 290.013 307.646 225.597 206.748C161.181 105.85 124.928 112.915 192.044 87.2603C259.159 61.6057 387.99 58.6731 335.653 222.199C283.316 385.726 60.5057 315.786 102.12 402.204C143.735 488.622 245.723 736.191 496.71 437.741C747.697 139.292 895.521 -57.041 1078.19 95.2434C1260.87 247.528 1563.91 540.797 1248.65 577.831C933.383 614.864 674.067 674.77 769.5 436.969C864.934 199.167 1289.54 75.3495 1440 136" stroke="#E7E7E7" stroke-width="3"/>
<path fill-rule="evenodd" clip-rule="evenodd" d="M1660.21 285.643C1624.92 337.026 1565.47 370.764 1498.08 370.764C1389.8 370.764 1302.02 283.656 1302.02 176.202C1302.02 68.7482 1389.8 -18.3595 1498.08 -18.3595C1565.47 -18.3595 1624.92 15.3782 1660.21 66.7613H1717C1676.64 -12.5854 1593.76 -67 1498.08 -67C1362.73 -67 1253 41.8853 1253 176.202C1253 310.519 1362.73 419.405 1498.08 419.405C1593.76 419.405 1676.64 364.991 1717 285.643H1660.21Z" fill="#EB2227"/>
<ellipse cx="641.5" cy="416.427" rx="92.5" ry="91.325" fill="white"/>
<ellipse cx="628" cy="604.04" rx="9" ry="8.93399" fill="#EB2227"/>
<ellipse cx="1249" cy="170.246" rx="4" ry="3.97066" fill="#7F7F7F"/>
<ellipse cx="357" cy="460.104" rx="4" ry="3.97067" fill="#7F7F7F"/>
<ellipse cx="220" cy="111.679" rx="9" ry="8.93396" fill="#EB2227"/>
<ellipse cx="410" cy="495.84" rx="20" ry="19.8532" fill="#D8D8D8"/>
<ellipse cx="934" cy="515.693" rx="6" ry="5.95596" fill="#EB2227"/>
<ellipse cx="789" cy="68.9948" rx="6" ry="5.95598" fill="#7F7F7F"/>
<ellipse cx="1053" cy="97.782" rx="19" ry="18.8606" fill="#333333"/>
<ellipse cx="1062" cy="505.766" rx="10" ry="9.92664" fill="#BFBFBF"/>
<ellipse cx="398" cy="106.716" rx="32" ry="31.7652" fill="#EB2227"/>
<ellipse cx="628" cy="604.04" rx="9" ry="8.93399" fill="#EB2227"/>
</g>
</svg>
