<svg width="25" height="18" viewBox="0 0 25 18" fill="none" xmlns="http://www.w3.org/2000/svg">
<path d="M18.9202 9.36432C19.5714 9.37848 20.2262 9.33557 20.8748 9.38661C21.5316 9.50914 21.6899 10.5034 21.1064 10.8291C20.7082 11.0436 20.2353 10.909 19.8036 10.9468H18.9202V9.36432ZM21.2513 7.57314C21.3959 8.08378 20.9037 8.54226 20.4119 8.47194H18.9202C18.9307 7.99039 18.8998 7.46772 18.9354 7.01152C19.5329 7.02835 20.136 6.9772 20.7301 7.03827C20.9854 7.10241 21.199 7.31226 21.2513 7.57314ZM24.8412 0.000554353C24.8689 0.975741 24.8452 2.00247 24.8531 2.99744C24.8513 7.04262 24.857 11.0877 24.85 15.1331C24.8238 16.6491 23.4802 17.9664 21.9747 17.9967C20.4677 18.0028 18.9605 17.9976 17.4533 17.9993V11.8838C19.0954 11.8754 20.7384 11.9011 22.3799 11.871C23.1414 11.8232 23.9755 11.3208 24.011 10.4828C24.1006 9.64115 23.3071 9.05902 22.5538 8.96708C22.2642 8.95956 22.2727 8.88266 22.5538 8.84912C23.2723 8.69382 23.8365 7.95016 23.6251 7.20538C23.445 6.42204 22.5792 6.11886 21.859 6.12037C20.3907 6.11039 18.922 6.11897 17.4536 6.11608C17.4631 4.97439 17.4338 3.83148 17.4694 2.69063C17.5857 1.20197 18.9631 -0.0256908 20.4474 0.000944191C21.9122 0.000721304 23.3767 0.000721457 24.8412 0.000665735V0.000554353Z" fill="url(#paint0_linear)"/>
<path d="M0.860347 2.84476C0.897848 1.33113 2.24715 0.0246236 3.75075 0.00250204C5.25217 -0.00212287 6.75382 0.00183363 8.25524 0.000496302C8.25112 5.06477 8.26338 10.1296 8.24906 15.1936C8.19122 16.6888 6.85662 17.9704 5.36941 17.9969C3.86514 18.0024 2.36071 17.9977 0.856391 17.9992V11.6776C2.31758 12.0228 3.84988 12.1697 5.34055 11.9407C6.23159 11.7974 7.2065 11.3598 7.50818 10.4353C7.73018 9.6446 7.60519 8.8124 7.63823 8.00081V6.11602H5.05848C5.04689 7.36257 5.08222 8.6113 5.03982 9.85634C4.97027 10.6216 4.2124 11.1079 3.49064 11.0819C2.59552 11.0914 0.821731 10.4332 0.821731 10.4332C0.817273 8.09765 0.847698 5.17276 0.860347 2.84498V2.84476Z" fill="url(#paint1_linear)"/>
<path d="M9.218 6.87635C9.08221 6.90516 9.1907 6.4138 9.15599 6.22742C9.16524 5.0489 9.13665 3.8691 9.17176 2.69142C9.28777 1.19646 10.6757 -0.034265 12.1661 0.00072826H16.5552C16.5511 5.065 16.5633 10.1298 16.549 15.1938C16.4911 16.6891 15.1564 17.9706 13.6691 17.9971C12.1648 18.0028 10.6604 17.998 9.15593 17.9995V11.0733C10.1834 11.9163 11.5798 12.0475 12.8598 12.0498C13.8248 12.0495 14.7842 11.9007 15.7213 11.6781V10.4092C14.6652 10.9356 13.4237 11.2699 12.253 10.9675C11.4364 10.7642 10.8436 9.97498 10.8568 9.13219C10.7622 8.25574 11.2759 7.33043 12.1372 7.06987C13.2065 6.7351 14.372 6.99114 15.3744 7.42638C15.5891 7.53883 15.8071 7.6783 15.7213 7.31934V6.32197C14.0448 5.92312 12.2607 5.77635 10.5765 6.21025C10.089 6.34777 9.61402 6.55634 9.218 6.87646V6.87635Z" fill="url(#paint2_linear)"/>
<defs>
<linearGradient id="paint0_linear" x1="17.4027" y1="8.6151" x2="24.8065" y2="8.6151" gradientUnits="userSpaceOnUse">
<stop stop-color="#58B03A"/>
<stop offset="1" stop-color="#55B330"/>
</linearGradient>
<linearGradient id="paint1_linear" x1="0.69897" y1="9.1722" x2="8.13393" y2="9.1722" gradientUnits="userSpaceOnUse">
<stop stop-color="#0F6EB6"/>
<stop offset="1" stop-color="#006DBA"/>
</linearGradient>
<linearGradient id="paint2_linear" x1="9.14508" y1="8.78963" x2="16.5538" y2="8.78963" gradientUnits="userSpaceOnUse">
<stop stop-color="#DE0D3D"/>
<stop offset="1" stop-color="#E30138"/>
</linearGradient>
</defs>
</svg>
