<svg width="31" height="18" viewBox="0 0 31 18" fill="none" xmlns="http://www.w3.org/2000/svg">
<path fill-rule="evenodd" clip-rule="evenodd" d="M15.0168 15.8498C13.4263 17.1906 11.363 18 9.10839 18C4.07796 18 0 13.9706 0 9C0 4.02944 4.07796 0 9.10839 0C11.363 0 13.4263 0.809428 15.0168 2.15024C16.6074 0.809428 18.6707 0 20.9253 0C25.9557 0 30.0337 4.02944 30.0337 9C30.0337 13.9706 25.9557 18 20.9253 18C18.6707 18 16.6074 17.1906 15.0168 15.8498Z" fill="#ED0006"/>
<path fill-rule="evenodd" clip-rule="evenodd" d="M15.0166 15.8504C16.9753 14.1996 18.2173 11.7431 18.2173 9C18.2173 6.25688 16.9753 3.80039 15.0166 2.14962C16.6071 0.80918 18.6701 0 20.9243 0C25.9547 0 30.0327 4.02944 30.0327 9C30.0327 13.9706 25.9547 18 20.9243 18C18.6701 18 16.6071 17.1908 15.0166 15.8504Z" fill="#F9A000"/>
<path fill-rule="evenodd" clip-rule="evenodd" d="M15.0163 15.8497C16.9746 14.199 18.2163 11.7428 18.2163 8.99997C18.2163 6.25719 16.9746 3.80097 15.0163 2.15021C13.0581 3.80097 11.8164 6.25719 11.8164 8.99997C11.8164 11.7428 13.0581 14.199 15.0163 15.8497Z" fill="#FF5E00"/>
</svg>
