<svg width="55" height="18" viewBox="0 0 55 18" fill="none" xmlns="http://www.w3.org/2000/svg">
<path fill-rule="evenodd" clip-rule="evenodd" d="M13.7309 17.8598H8.98932L5.43369 3.89592C5.26492 3.25358 4.90659 2.68572 4.37948 2.41807C3.06404 1.74548 1.61451 1.2102 0.0332031 0.94023V0.40262H7.67156C8.72577 0.40262 9.51642 1.2102 9.64819 2.14811L11.4931 12.2207L16.2323 0.40262H20.8422L13.7309 17.8598ZM23.4781 17.8598H19L22.6874 0.40262H27.1655L23.4781 17.8598ZM32.9582 5.23879C33.09 4.29855 33.8806 3.76094 34.803 3.76094C36.2526 3.62596 37.8316 3.89593 39.1493 4.56619L39.94 0.807578C38.6222 0.269968 37.1727 0 35.8572 0C31.511 0 28.3483 2.41808 28.3483 5.77407C28.3483 8.32713 30.5885 9.66767 32.1698 10.4752C33.8806 11.2805 34.5395 11.8181 34.4077 12.6234C34.4077 13.8312 33.09 14.3688 31.7745 14.3688C30.1932 14.3688 28.6119 13.9662 27.1647 13.2936L26.374 17.0546C27.9553 17.7248 29.6661 17.9948 31.2474 17.9948C36.1208 18.1275 39.1493 15.7117 39.1493 12.0857C39.1493 7.51955 32.9582 7.25191 32.9582 5.23879ZM54.8209 17.8598L51.2653 0.40262H47.4461C46.6554 0.40262 45.8648 0.94023 45.6012 1.74548L39.0171 17.8598H43.6269L44.547 15.3091H50.2111L50.7382 17.8598H54.8209ZM48.1068 5.10381L49.4223 11.6831H45.7349L48.1068 5.10381Z" fill="#172B85"/>
</svg>
