<svg width="26" height="22" viewBox="0 0 26 22" fill="none" xmlns="http://www.w3.org/2000/svg">
<g filter="url(#filter0_d)">
<g clip-path="url(#clip0)">
<mask id="mask0" mask-type="alpha" maskUnits="userSpaceOnUse" x="3" y="1" width="20" height="16">
<rect x="3" y="1.5" width="20" height="15" fill="white"/>
</mask>
<g mask="url(#mask0)">
<path fill-rule="evenodd" clip-rule="evenodd" d="M3 1.5H23V16.5H3V1.5Z" fill="#E31D1C"/>
<path fill-rule="evenodd" clip-rule="evenodd" d="M3 2.75V4H23V2.75H3ZM3 5.25V6.5H23V5.25H3ZM3 9V7.75H23V9H3ZM3 10.25V11.5H23V10.25H3ZM3 14V12.75H23V14H3ZM3 16.5V15.25H23V16.5H3Z" fill="#F7FCFF"/>
<rect x="3" y="1.5" width="11.25" height="8.75" fill="#2E42A5"/>
<path fill-rule="evenodd" clip-rule="evenodd" d="M4.3 4.21718L4.9624 3.75577L5.47623 4.12569H5.1853L5.77364 4.64606L5.57492 5.37569H5.26369L4.96148 4.70557L4.70375 5.37569H3.9353L4.52364 5.89606L4.3 6.71719L4.9624 6.25577L5.47623 6.62569H5.1853L5.77364 7.14606L5.57492 7.87569H5.26369L4.96148 7.20557L4.70375 7.87569H3.9353L4.52364 8.39606L4.3 9.21719L4.9624 8.75577L5.60332 9.21719L5.40406 8.39606L5.91877 7.87569H5.68136L6.2124 7.50577L6.72623 7.87569H6.4353L7.02364 8.39606L6.8 9.21719L7.4624 8.75577L8.10332 9.21719L7.90406 8.39606L8.41877 7.87569H8.18136L8.7124 7.50577L9.22623 7.87569H8.9353L9.52364 8.39606L9.3 9.21719L9.9624 8.75577L10.6033 9.21719L10.4041 8.39606L10.9188 7.87569H10.6814L11.2124 7.50577L11.7262 7.87569H11.4353L12.0236 8.39606L11.8 9.21719L12.4624 8.75577L13.1033 9.21719L12.9041 8.39606L13.4188 7.87569H12.7637L12.4615 7.20557L12.2037 7.87569H11.8311L11.6541 7.14606L12.1688 6.62569H11.9314L12.4624 6.25577L13.1033 6.71719L12.9041 5.89606L13.4188 5.37569H12.7637L12.4615 4.70557L12.2037 5.37569H11.8311L11.6541 4.64606L12.1688 4.12569H11.9314L12.4624 3.75577L13.1033 4.21718L12.9041 3.39606L13.4188 2.87569H12.7637L12.4615 2.20557L12.2037 2.87569H11.4353L12.0236 3.39606L11.8249 4.12569H11.5137L11.2115 3.45557L10.9537 4.12569H10.5811L10.4041 3.39606L10.9188 2.87569H10.2637L9.96148 2.20557L9.70375 2.87569H8.9353L9.52364 3.39606L9.32492 4.12569H9.01369L8.71148 3.45557L8.45375 4.12569H8.08112L7.90406 3.39606L8.41877 2.87569H7.76369L7.46148 2.20557L7.20375 2.87569H6.4353L7.02364 3.39606L6.82492 4.12569H6.51369L6.21148 3.45557L5.95375 4.12569H5.58112L5.40406 3.39606L5.91877 2.87569H5.26369L4.96148 2.20557L4.70375 2.87569H3.9353L4.52364 3.39606L4.3 4.21718ZM11.8249 6.62569L12.0236 5.89606L11.4353 5.37569H11.7262L11.2124 5.00577L10.6814 5.37569H10.9188L10.4041 5.89606L10.5811 6.62569H10.9537L11.2115 5.95557L11.5137 6.62569H11.8249ZM10.4762 6.62569L9.9624 6.25577L9.43136 6.62569H9.66877L9.15406 7.14606L9.33112 7.87569H9.70375L9.96148 7.20557L10.2637 7.87569H10.5749L10.7736 7.14606L10.1853 6.62569H10.4762ZM8.27364 7.14606L8.07492 7.87569H7.76369L7.46148 7.20557L7.20375 7.87569H6.83112L6.65406 7.14606L7.16877 6.62569H6.93136L7.4624 6.25577L7.97623 6.62569H7.6853L8.27364 7.14606ZM8.45375 6.62569H8.08112L7.90406 5.89606L8.41877 5.37569H8.18136L8.7124 5.00577L9.22623 5.37569H8.9353L9.52364 5.89606L9.32492 6.62569H9.01369L8.71148 5.95557L8.45375 6.62569ZM6.82492 6.62569L7.02364 5.89606L6.4353 5.37569H6.72623L6.2124 5.00577L5.68136 5.37569H5.91877L5.40406 5.89606L5.58112 6.62569H5.95375L6.21148 5.95557L6.51369 6.62569H6.82492ZM10.7736 4.64606L10.5749 5.37569H10.2637L9.96148 4.70557L9.70375 5.37569H9.33112L9.15406 4.64606L9.66877 4.12569H9.43136L9.9624 3.75577L10.4762 4.12569H10.1853L10.7736 4.64606ZM7.97623 4.12569L7.4624 3.75577L6.93136 4.12569H7.16877L6.65406 4.64606L6.83112 5.37569H7.20375L7.46148 4.70557L7.76369 5.37569H8.07492L8.27364 4.64606L7.6853 4.12569H7.97623Z" fill="#F7FCFF"/>
</g>
<rect x="3" y="1.5" width="20" height="15" fill="url(#paint0_linear)" style="mix-blend-mode:overlay"/>
</g>
<path d="M4.5 2.5H21.5V0.5H4.5V2.5ZM22 3V15H24V3H22ZM21.5 15.5H4.5V17.5H21.5V15.5ZM4 15V3H2V15H4ZM4.5 15.5C4.22386 15.5 4 15.2761 4 15H2C2 16.3807 3.11929 17.5 4.5 17.5V15.5ZM22 15C22 15.2761 21.7761 15.5 21.5 15.5V17.5C22.8807 17.5 24 16.3807 24 15H22ZM21.5 2.5C21.7761 2.5 22 2.72386 22 3H24C24 1.61929 22.8807 0.5 21.5 0.5V2.5ZM4.5 0.5C3.11929 0.5 2 1.61929 2 3H4C4 2.72386 4.22386 2.5 4.5 2.5V0.5Z" fill="black" fill-opacity="0.1" style="mix-blend-mode:multiply"/>
</g>
<defs>
<filter id="filter0_d" x="0" y="0.5" width="26" height="21" filterUnits="userSpaceOnUse" color-interpolation-filters="sRGB">
<feFlood flood-opacity="0" result="BackgroundImageFix"/>
<feColorMatrix in="SourceAlpha" type="matrix" values="0 0 0 0 0 0 0 0 0 0 0 0 0 0 0 0 0 0 127 0"/>
<feOffset dy="2"/>
<feGaussianBlur stdDeviation="1.5"/>
<feColorMatrix type="matrix" values="0 0 0 0 0 0 0 0 0 0 0 0 0 0 0 0 0 0 0.1 0"/>
<feBlend mode="normal" in2="BackgroundImageFix" result="effect1_dropShadow"/>
<feBlend mode="normal" in="SourceGraphic" in2="effect1_dropShadow" result="shape"/>
</filter>
<linearGradient id="paint0_linear" x1="13" y1="1.5" x2="13" y2="16.5" gradientUnits="userSpaceOnUse">
<stop stop-color="white" stop-opacity="0.7"/>
<stop offset="1" stop-opacity="0.3"/>
</linearGradient>
<clipPath id="clip0">
<path d="M3 3C3 2.17157 3.67157 1.5 4.5 1.5H21.5C22.3284 1.5 23 2.17157 23 3V15C23 15.8284 22.3284 16.5 21.5 16.5H4.5C3.67157 16.5 3 15.8284 3 15V3Z" fill="white"/>
</clipPath>
</defs>
</svg>
