<svg width="18" height="19" viewBox="0 0 18 19" fill="none" xmlns="http://www.w3.org/2000/svg">
<path d="M12.5 11.55H11.71L11.43 11.28C12.41 10.14 13 8.66005 13 7.05005C13 3.46005 10.09 0.550049 6.5 0.550049C2.91 0.550049 0 3.46005 0 7.05005C0 10.64 2.91 13.55 6.5 13.55C8.11 13.55 9.59 12.96 10.73 11.98L11 12.26V13.05L16 18.04L17.49 16.55L12.5 11.55ZM6.5 11.55C4.01 11.55 2 9.54005 2 7.05005C2 4.56005 4.01 2.55005 6.5 2.55005C8.99 2.55005 11 4.56005 11 7.05005C11 9.54005 8.99 11.55 6.5 11.55Z" fill="#BFBFBF"/>
</svg>
