<svg width="180" height="40" viewBox="0 0 180 40" fill="none" xmlns="http://www.w3.org/2000/svg">
<path d="M20.9995 11H12V29H20.9995C23.3865 29 25.6757 28.0518 27.3635 26.364C29.0513 24.6761 29.9995 22.387 29.9995 20C29.9995 17.613 29.0513 15.3239 27.3635 13.636C25.6757 11.9482 23.3865 11 20.9995 11ZM24.6377 23.6396C24.1661 24.1254 23.5999 24.5094 22.9742 24.7679C22.3485 25.0265 21.6765 25.1543 20.9995 25.1432H15.8549V14.8577H20.9976C22.015 14.8581 23.0095 15.16 23.8554 15.7253C24.7013 16.2907 25.3606 17.0941 25.75 18.0341C26.1393 18.9741 26.2413 20.0084 26.043 21.0063C25.8447 22.0042 25.355 22.9209 24.6358 23.6406L24.6377 23.6396Z" fill="#EB2227"/>
<path fill-rule="evenodd" clip-rule="evenodd" d="M33.2306 29C30.3507 33.2255 25.4993 36 20 36C11.1634 36 4 28.8366 4 20C4 11.1634 11.1634 4 20 4C25.4993 4 30.3507 6.77446 33.2306 11H37.8654C34.5718 4.47484 27.8085 0 20 0C8.9543 0 0 8.9543 0 20C0 31.0457 8.9543 40 20 40C27.8085 40 34.5718 35.5252 37.8654 29H33.2306Z" fill="#EB2227"/>
<path d="M36.641 16.1929C37.033 15.6469 37.558 15.2339 38.216 14.9539C38.888 14.6739 39.658 14.5339 40.526 14.5339V17.5579C40.162 17.5299 39.917 17.5159 39.791 17.5159C38.853 17.5159 38.118 17.7819 37.586 18.3139C37.054 18.8319 36.788 19.6159 36.788 20.6659V25.9999H33.512V14.7019H36.641V16.1929ZM42.4739 14.7019H45.7499V25.9999H42.4739V14.7019ZM44.1119 13.1269C43.5099 13.1269 43.0199 12.9519 42.6419 12.6019C42.2639 12.2519 42.0749 11.8179 42.0749 11.2999C42.0749 10.7819 42.2639 10.3479 42.6419 9.9979C43.0199 9.6479 43.5099 9.4729 44.1119 9.4729C44.7139 9.4729 45.2039 9.6409 45.5819 9.9769C45.9599 10.3129 46.1489 10.7329 46.1489 11.2369C46.1489 11.7829 45.9599 12.2379 45.5819 12.6019C45.2039 12.9519 44.7139 13.1269 44.1119 13.1269ZM60.0043 14.7019L55.2373 25.9999H51.8563L47.1103 14.7019H50.4913L53.6203 22.3879L56.8543 14.7019H60.0043ZM72.1005 20.3929C72.1005 20.4349 72.0795 20.7289 72.0375 21.2749H63.4905C63.6445 21.9749 64.0085 22.5279 64.5825 22.9339C65.1565 23.3399 65.8705 23.5429 66.7245 23.5429C67.3125 23.5429 67.8305 23.4589 68.2785 23.2909C68.7405 23.1089 69.1675 22.8289 69.5595 22.4509L71.3025 24.3409C70.2385 25.5589 68.6845 26.1679 66.6405 26.1679C65.3665 26.1679 64.2395 25.9229 63.2595 25.4329C62.2795 24.9289 61.5235 24.2359 60.9915 23.3539C60.4595 22.4719 60.1935 21.4709 60.1935 20.3509C60.1935 19.2449 60.4525 18.2509 60.9705 17.3689C61.5025 16.4729 62.2235 15.7799 63.1335 15.2899C64.0575 14.7859 65.0865 14.5339 66.2205 14.5339C67.3265 14.5339 68.3275 14.7719 69.2235 15.2479C70.1195 15.7239 70.8195 16.4099 71.3235 17.3059C71.8415 18.1879 72.1005 19.2169 72.1005 20.3929ZM66.2415 17.0119C65.4995 17.0119 64.8765 17.2219 64.3725 17.6419C63.8685 18.0619 63.5605 18.6359 63.4485 19.3639H69.0135C68.9015 18.6499 68.5935 18.0829 68.0895 17.6629C67.5855 17.2289 66.9695 17.0119 66.2415 17.0119ZM88.7505 14.5339C90.1645 14.5339 91.2845 14.9539 92.1105 15.7939C92.9505 16.6199 93.3705 17.8659 93.3705 19.5319V25.9999H90.0945V20.0359C90.0945 19.1399 89.9055 18.4749 89.5275 18.0409C89.1635 17.5929 88.6385 17.3689 87.9525 17.3689C87.1825 17.3689 86.5735 17.6209 86.1255 18.1249C85.6775 18.6149 85.4535 19.3499 85.4535 20.3299V25.9999H82.1775V20.0359C82.1775 18.2579 81.4635 17.3689 80.0355 17.3689C79.2795 17.3689 78.6775 17.6209 78.2295 18.1249C77.7815 18.6149 77.5575 19.3499 77.5575 20.3299V25.9999H74.2815V14.7019H77.4105V16.0039C77.8305 15.5279 78.3415 15.1639 78.9435 14.9119C79.5595 14.6599 80.2315 14.5339 80.9595 14.5339C81.7575 14.5339 82.4785 14.6949 83.1225 15.0169C83.7665 15.3249 84.2845 15.7799 84.6765 16.3819C85.1385 15.7939 85.7195 15.3389 86.4195 15.0169C87.1335 14.6949 87.9105 14.5339 88.7505 14.5339ZM100.864 14.5339C102.614 14.5339 103.958 14.9539 104.896 15.7939C105.834 16.6199 106.303 17.8729 106.303 19.5529V25.9999H103.237V24.5929C102.621 25.6429 101.473 26.1679 99.7929 26.1679C98.9249 26.1679 98.1689 26.0209 97.5249 25.7269C96.8949 25.4329 96.4119 25.0269 96.0759 24.5089C95.7399 23.9909 95.5719 23.4029 95.5719 22.7449C95.5719 21.6949 95.9639 20.8689 96.7479 20.2669C97.5459 19.6649 98.7709 19.3639 100.423 19.3639H103.027C103.027 18.6499 102.81 18.1039 102.376 17.7259C101.942 17.3339 101.291 17.1379 100.423 17.1379C99.8209 17.1379 99.2259 17.2359 98.6379 17.4319C98.0639 17.6139 97.5739 17.8659 97.1679 18.1879L95.9919 15.8989C96.6079 15.4649 97.3429 15.1289 98.1969 14.8909C99.0649 14.6529 99.9539 14.5339 100.864 14.5339ZM100.612 23.9629C101.172 23.9629 101.669 23.8369 102.103 23.5849C102.537 23.3189 102.845 22.9339 103.027 22.4299V21.2749H100.78C99.4359 21.2749 98.7639 21.7159 98.7639 22.5979C98.7639 23.0179 98.9249 23.3539 99.2469 23.6059C99.5829 23.8439 100.038 23.9629 100.612 23.9629ZM116.555 25.4539C116.233 25.6919 115.834 25.8739 115.358 25.9999C114.896 26.1119 114.406 26.1679 113.888 26.1679C112.544 26.1679 111.501 25.8249 110.759 25.1389C110.031 24.4529 109.667 23.4449 109.667 22.1149V17.4739H107.924V14.9539H109.667V12.2029H112.943V14.9539H115.757V17.4739H112.943V22.0729C112.943 22.5489 113.062 22.9199 113.3 23.1859C113.552 23.4379 113.902 23.5639 114.35 23.5639C114.868 23.5639 115.309 23.4239 115.673 23.1439L116.555 25.4539ZM129.112 20.3929C129.112 20.4349 129.091 20.7289 129.049 21.2749H120.502C120.656 21.9749 121.02 22.5279 121.594 22.9339C122.168 23.3399 122.882 23.5429 123.736 23.5429C124.324 23.5429 124.842 23.4589 125.29 23.2909C125.752 23.1089 126.179 22.8289 126.571 22.4509L128.314 24.3409C127.25 25.5589 125.696 26.1679 123.652 26.1679C122.378 26.1679 121.251 25.9229 120.271 25.4329C119.291 24.9289 118.535 24.2359 118.003 23.3539C117.471 22.4719 117.205 21.4709 117.205 20.3509C117.205 19.2449 117.464 18.2509 117.982 17.3689C118.514 16.4729 119.235 15.7799 120.145 15.2899C121.069 14.7859 122.098 14.5339 123.232 14.5339C124.338 14.5339 125.339 14.7719 126.235 15.2479C127.131 15.7239 127.831 16.4099 128.335 17.3059C128.853 18.1879 129.112 19.2169 129.112 20.3929ZM123.253 17.0119C122.511 17.0119 121.888 17.2219 121.384 17.6419C120.88 18.0619 120.572 18.6359 120.46 19.3639H126.025C125.913 18.6499 125.605 18.0829 125.101 17.6629C124.597 17.2289 123.981 17.0119 123.253 17.0119Z" fill="#333333"/>
<path d="M136.985 26.2519C135.823 26.2519 134.696 26.0979 133.604 25.7899C132.526 25.4679 131.658 25.0549 131 24.5509L132.155 21.9889C132.785 22.4509 133.534 22.8219 134.402 23.1019C135.27 23.3819 136.138 23.5219 137.006 23.5219C137.972 23.5219 138.686 23.3819 139.148 23.1019C139.61 22.8079 139.841 22.4229 139.841 21.9469C139.841 21.5969 139.701 21.3099 139.421 21.0859C139.155 20.8479 138.805 20.6589 138.371 20.5189C137.951 20.3789 137.377 20.2249 136.649 20.0569C135.529 19.7909 134.612 19.5249 133.898 19.2589C133.184 18.9929 132.568 18.5659 132.05 17.9779C131.546 17.3899 131.294 16.6059 131.294 15.6259C131.294 14.7719 131.525 14.0019 131.987 13.3159C132.449 12.6159 133.142 12.0629 134.066 11.6569C135.004 11.2509 136.145 11.0479 137.489 11.0479C138.427 11.0479 139.344 11.1599 140.24 11.3839C141.136 11.6079 141.92 11.9299 142.592 12.3499L141.542 14.9329C140.184 14.1629 138.826 13.7779 137.468 13.7779C136.516 13.7779 135.809 13.9319 135.347 14.2399C134.899 14.5479 134.675 14.9539 134.675 15.4579C134.675 15.9619 134.934 16.3399 135.452 16.5919C135.984 16.8299 136.789 17.0679 137.867 17.3059C138.987 17.5719 139.904 17.8379 140.618 18.1039C141.332 18.3699 141.941 18.7899 142.445 19.3639C142.963 19.9379 143.222 20.7149 143.222 21.6949C143.222 22.5349 142.984 23.3049 142.508 24.0049C142.046 24.6909 141.346 25.2369 140.408 25.6429C139.47 26.0489 138.329 26.2519 136.985 26.2519Z" fill="#EB2227"/>
<path d="M156.698 14.7019V25.9999H153.59V24.6559C153.156 25.1459 152.638 25.5239 152.036 25.7899C151.434 26.0419 150.783 26.1679 150.083 26.1679C148.599 26.1679 147.423 25.7409 146.555 24.8869C145.687 24.0329 145.253 22.7659 145.253 21.0859V14.7019H148.529V20.6029C148.529 22.4229 149.292 23.3329 150.818 23.3329C151.602 23.3329 152.232 23.0809 152.708 22.5769C153.184 22.0589 153.422 21.2959 153.422 20.2879V14.7019H156.698Z" fill="#EB2227"/>
<path d="M162.862 16.1929C163.254 15.6469 163.779 15.2339 164.437 14.9539C165.109 14.6739 165.879 14.5339 166.747 14.5339V17.5579C166.383 17.5299 166.138 17.5159 166.012 17.5159C165.074 17.5159 164.339 17.7819 163.807 18.3139C163.275 18.8319 163.009 19.6159 163.009 20.6659V25.9999H159.733V14.7019H162.862V16.1929Z" fill="#EB2227"/>
<path d="M179.659 20.3929C179.659 20.4349 179.638 20.7289 179.596 21.2749H171.049C171.203 21.9749 171.567 22.5279 172.141 22.9339C172.715 23.3399 173.429 23.5429 174.283 23.5429C174.871 23.5429 175.389 23.4589 175.837 23.2909C176.299 23.1089 176.726 22.8289 177.118 22.4509L178.861 24.3409C177.797 25.5589 176.243 26.1679 174.199 26.1679C172.925 26.1679 171.798 25.9229 170.818 25.4329C169.838 24.9289 169.082 24.2359 168.55 23.3539C168.018 22.4719 167.752 21.4709 167.752 20.3509C167.752 19.2449 168.011 18.2509 168.529 17.3689C169.061 16.4729 169.782 15.7799 170.692 15.2899C171.616 14.7859 172.645 14.5339 173.779 14.5339C174.885 14.5339 175.886 14.7719 176.782 15.2479C177.678 15.7239 178.378 16.4099 178.882 17.3059C179.4 18.1879 179.659 19.2169 179.659 20.3929ZM173.8 17.0119C173.058 17.0119 172.435 17.2219 171.931 17.6419C171.427 18.0619 171.119 18.6359 171.007 19.3639H176.572C176.46 18.6499 176.152 18.0829 175.648 17.6629C175.144 17.2289 174.528 17.0119 173.8 17.0119Z" fill="#EB2227"/>
<path d="M103.478 40C102.819 40 102.225 39.8597 101.697 39.5791C101.169 39.2924 100.752 38.8989 100.448 38.3987C100.149 37.8985 100 37.3403 100 36.7242C100 36.1081 100.149 35.5499 100.448 35.0497C100.752 34.5495 101.169 34.159 101.697 33.8784C102.225 33.5917 102.819 33.4484 103.478 33.4484C104.13 33.4484 104.721 33.5917 105.249 33.8784C105.777 34.159 106.191 34.5495 106.489 35.0497C106.787 35.5438 106.937 36.102 106.937 36.7242C106.937 37.3464 106.787 37.9076 106.489 38.4078C106.191 38.902 105.777 39.2924 105.249 39.5791C104.721 39.8597 104.13 40 103.478 40ZM103.478 39.1856C103.956 39.1856 104.385 39.0789 104.764 38.8654C105.15 38.6519 105.451 38.359 105.669 37.9869C105.892 37.6087 106.004 37.1878 106.004 36.7242C106.004 36.2606 105.892 35.8427 105.669 35.4706C105.451 35.0924 105.15 34.7965 104.764 34.583C104.385 34.3695 103.956 34.2627 103.478 34.2627C102.999 34.2627 102.564 34.3695 102.172 34.583C101.787 34.7965 101.482 35.0924 101.259 35.4706C101.041 35.8427 100.932 36.2606 100.932 36.7242C100.932 37.1878 101.041 37.6087 101.259 37.9869C101.482 38.359 101.787 38.6519 102.172 38.8654C102.564 39.0789 102.999 39.1856 103.478 39.1856Z" fill="#333333"/>
<path d="M110.87 35.0314C111.497 35.0314 111.995 35.2113 112.361 35.5712C112.734 35.9251 112.921 36.4466 112.921 37.1359V39.9268H112.026V37.2366C112.026 36.7669 111.911 36.4131 111.681 36.1752C111.451 35.9373 111.121 35.8183 110.692 35.8183C110.208 35.8183 109.825 35.9586 109.546 36.2392C109.266 36.5137 109.126 36.9102 109.126 37.4288V39.9268H108.231V35.0771H109.089V35.8092C109.269 35.559 109.511 35.3669 109.816 35.2327C110.127 35.0985 110.478 35.0314 110.87 35.0314Z" fill="#333333"/>
<path d="M114.577 33.1373H115.472V39.9268H114.577V33.1373Z" fill="#333333"/>
<path d="M117.181 35.0771H118.076V39.9268H117.181V35.0771ZM117.629 34.1438C117.455 34.1438 117.309 34.0889 117.19 33.9791C117.079 33.8693 117.023 33.7351 117.023 33.5765C117.023 33.4179 117.079 33.2837 117.19 33.1739C117.309 33.058 117.455 33 117.629 33C117.803 33 117.946 33.0549 118.058 33.1647C118.176 33.2684 118.235 33.3996 118.235 33.5582C118.235 33.7229 118.176 33.8632 118.058 33.9791C117.946 34.0889 117.803 34.1438 117.629 34.1438Z" fill="#333333"/>
<path d="M122.424 35.0314C123.051 35.0314 123.549 35.2113 123.915 35.5712C124.288 35.9251 124.475 36.4466 124.475 37.1359V39.9268H123.58V37.2366C123.58 36.7669 123.465 36.4131 123.235 36.1752C123.005 35.9373 122.675 35.8183 122.246 35.8183C121.762 35.8183 121.379 35.9586 121.1 36.2392C120.82 36.5137 120.68 36.9102 120.68 37.4288V39.9268H119.785V35.0771H120.643V35.8092C120.823 35.559 121.066 35.3669 121.37 35.2327C121.681 35.0985 122.032 35.0314 122.424 35.0314Z" fill="#333333"/>
<path d="M130.624 37.5294C130.624 37.5965 130.618 37.685 130.606 37.7948H126.597C126.653 38.2218 126.842 38.5664 127.165 38.8288C127.495 39.085 127.902 39.2131 128.387 39.2131C128.977 39.2131 129.453 39.0179 129.813 38.6275L130.307 39.1948C130.084 39.451 129.804 39.6462 129.468 39.7804C129.139 39.9146 128.769 39.9817 128.359 39.9817C127.837 39.9817 127.374 39.878 126.97 39.6706C126.566 39.4571 126.252 39.1612 126.028 38.783C125.81 38.4048 125.702 37.9778 125.702 37.502C125.702 37.0322 125.807 36.6083 126.019 36.2301C126.236 35.8519 126.531 35.559 126.904 35.3516C127.284 35.1381 127.709 35.0314 128.182 35.0314C128.654 35.0314 129.074 35.1381 129.44 35.3516C129.813 35.559 130.102 35.8519 130.307 36.2301C130.519 36.6083 130.624 37.0414 130.624 37.5294ZM128.182 35.7725C127.753 35.7725 127.392 35.9007 127.1 36.1569C126.814 36.4131 126.646 36.7486 126.597 37.1634H129.767C129.717 36.7547 129.546 36.4222 129.254 36.166C128.968 35.9037 128.611 35.7725 128.182 35.7725Z" fill="#333333"/>
<path d="M134.502 33.5216H135.434V39.9268H134.502V33.5216Z" fill="#333333"/>
<path d="M139.896 35.0314C140.524 35.0314 141.021 35.2113 141.388 35.5712C141.761 35.9251 141.947 36.4466 141.947 37.1359V39.9268H141.052V37.2366C141.052 36.7669 140.937 36.4131 140.707 36.1752C140.477 35.9373 140.148 35.8183 139.719 35.8183C139.234 35.8183 138.852 35.9586 138.572 36.2392C138.292 36.5137 138.152 36.9102 138.152 37.4288V39.9268H137.257V35.0771H138.115V35.8092C138.295 35.559 138.538 35.3669 138.842 35.2327C139.153 35.0985 139.504 35.0314 139.896 35.0314Z" fill="#333333"/>
<path d="M145.021 39.9817C144.617 39.9817 144.228 39.9298 143.855 39.8261C143.482 39.7163 143.19 39.5791 142.979 39.4144L143.352 38.719C143.569 38.8715 143.833 38.9935 144.144 39.085C144.455 39.1765 144.769 39.2222 145.086 39.2222C145.869 39.2222 146.261 39.0026 146.261 38.5634C146.261 38.417 146.208 38.3011 146.102 38.2157C145.996 38.1303 145.863 38.0693 145.701 38.0327C145.546 37.99 145.322 37.9442 145.03 37.8954C144.632 37.8344 144.306 37.7643 144.051 37.685C143.802 37.6057 143.588 37.4715 143.408 37.2824C143.227 37.0932 143.137 36.8279 143.137 36.4863C143.137 36.0471 143.324 35.6963 143.697 35.434C144.07 35.1656 144.57 35.0314 145.198 35.0314C145.527 35.0314 145.857 35.071 146.186 35.1503C146.515 35.2296 146.786 35.3364 146.997 35.4706L146.615 36.166C146.211 35.9098 145.735 35.7817 145.188 35.7817C144.809 35.7817 144.52 35.8427 144.321 35.9647C144.122 36.0867 144.023 36.2484 144.023 36.4497C144.023 36.6083 144.079 36.7333 144.191 36.8248C144.303 36.9163 144.439 36.9834 144.601 37.0261C144.769 37.0688 145.002 37.1176 145.3 37.1725C145.698 37.2397 146.018 37.3129 146.261 37.3922C146.509 37.4654 146.721 37.5935 146.895 37.7765C147.069 37.9595 147.156 38.2157 147.156 38.5451C147.156 38.9843 146.963 39.3351 146.578 39.5974C146.198 39.8536 145.679 39.9817 145.021 39.9817Z" fill="#333333"/>
<path d="M152.88 35.0771V39.9268H152.032V39.1948C151.851 39.4449 151.612 39.6401 151.314 39.7804C151.021 39.9146 150.701 39.9817 150.353 39.9817C149.694 39.9817 149.175 39.8048 148.796 39.451C148.417 39.0911 148.228 38.5634 148.228 37.868V35.0771H149.123V37.7673C149.123 38.237 149.238 38.5939 149.468 38.8379C149.698 39.0758 150.027 39.1948 150.456 39.1948C150.928 39.1948 151.301 39.0545 151.575 38.7739C151.848 38.4932 151.985 38.0967 151.985 37.5843V35.0771H152.88Z" fill="#333333"/>
<path d="M155.442 35.8915C155.597 35.6109 155.827 35.3974 156.132 35.251C156.436 35.1046 156.806 35.0314 157.241 35.0314V35.8824C157.191 35.8763 157.123 35.8732 157.036 35.8732C156.551 35.8732 156.169 36.0166 155.889 36.3033C155.616 36.5839 155.479 36.9865 155.479 37.5111V39.9268H154.584V35.0771H155.442V35.8915Z" fill="#333333"/>
<path d="M160.134 35.0314C160.818 35.0314 161.34 35.1961 161.701 35.5255C162.068 35.8549 162.251 36.346 162.251 36.9987V39.9268H161.402V39.2863C161.253 39.512 161.039 39.6858 160.759 39.8078C160.486 39.9237 160.159 39.9817 159.78 39.9817C159.227 39.9817 158.783 39.8505 158.447 39.5882C158.118 39.3259 157.953 38.9813 157.953 38.5542C157.953 38.1272 158.111 37.7856 158.428 37.5294C158.745 37.2671 159.249 37.1359 159.939 37.1359H161.356V36.9621C161.356 36.5839 161.244 36.2941 161.02 36.0928C160.796 35.8915 160.467 35.7908 160.032 35.7908C159.74 35.7908 159.454 35.8397 159.174 35.9373C158.894 36.0288 158.658 36.1538 158.466 36.3124L158.093 35.6536C158.347 35.4523 158.652 35.2998 159.006 35.1961C159.361 35.0863 159.737 35.0314 160.134 35.0314ZM159.929 39.3046C160.271 39.3046 160.566 39.2314 160.815 39.085C161.064 38.9325 161.244 38.719 161.356 38.4444V37.7673H159.976C159.218 37.7673 158.839 38.0174 158.839 38.5176C158.839 38.7617 158.935 38.9538 159.128 39.0941C159.32 39.2344 159.587 39.3046 159.929 39.3046Z" fill="#333333"/>
<path d="M166.546 35.0314C167.174 35.0314 167.671 35.2113 168.037 35.5712C168.41 35.9251 168.597 36.4466 168.597 37.1359V39.9268H167.702V37.2366C167.702 36.7669 167.587 36.4131 167.357 36.1752C167.127 35.9373 166.797 35.8183 166.369 35.8183C165.884 35.8183 165.502 35.9586 165.222 36.2392C164.942 36.5137 164.802 36.9102 164.802 37.4288V39.9268H163.907V35.0771H164.765V35.8092C164.945 35.559 165.188 35.3669 165.492 35.2327C165.803 35.0985 166.154 35.0314 166.546 35.0314Z" fill="#333333"/>
<path d="M172.434 39.9817C171.931 39.9817 171.48 39.8749 171.082 39.6614C170.691 39.4479 170.383 39.1551 170.159 38.783C169.936 38.4048 169.824 37.9778 169.824 37.502C169.824 37.0261 169.936 36.6022 170.159 36.2301C170.383 35.8519 170.691 35.559 171.082 35.3516C171.48 35.1381 171.931 35.0314 172.434 35.0314C172.882 35.0314 173.28 35.1198 173.628 35.2967C173.982 35.4736 174.255 35.7298 174.448 36.0654L173.768 36.4954C173.612 36.2636 173.419 36.0898 173.19 35.9739C172.96 35.858 172.705 35.8 172.425 35.8C172.102 35.8 171.81 35.8702 171.549 36.0105C171.294 36.1508 171.092 36.3521 170.943 36.6144C170.8 36.8706 170.728 37.1664 170.728 37.502C170.728 37.8436 170.8 38.1455 170.943 38.4078C171.092 38.6641 171.294 38.8623 171.549 39.0026C171.81 39.1429 172.102 39.2131 172.425 39.2131C172.705 39.2131 172.96 39.1551 173.19 39.0392C173.419 38.9233 173.612 38.7495 173.768 38.5176L174.448 38.9386C174.255 39.2741 173.982 39.5333 173.628 39.7163C173.28 39.8932 172.882 39.9817 172.434 39.9817Z" fill="#333333"/>
<path d="M180 37.5294C180 37.5965 179.994 37.685 179.981 37.7948H175.972C176.028 38.2218 176.218 38.5664 176.541 38.8288C176.87 39.085 177.278 39.2131 177.762 39.2131C178.353 39.2131 178.828 39.0179 179.189 38.6275L179.683 39.1948C179.459 39.451 179.18 39.6462 178.844 39.7804C178.514 39.9146 178.145 39.9817 177.734 39.9817C177.212 39.9817 176.749 39.878 176.345 39.6706C175.941 39.4571 175.627 39.1612 175.404 38.783C175.186 38.4048 175.077 37.9778 175.077 37.502C175.077 37.0322 175.183 36.6083 175.394 36.2301C175.612 35.8519 175.907 35.559 176.28 35.3516C176.659 35.1381 177.085 35.0314 177.557 35.0314C178.03 35.0314 178.449 35.1381 178.816 35.3516C179.189 35.559 179.478 35.8519 179.683 36.2301C179.894 36.6083 180 37.0414 180 37.5294ZM177.557 35.7725C177.128 35.7725 176.768 35.9007 176.476 36.1569C176.19 36.4131 176.022 36.7486 175.972 37.1634H179.142C179.093 36.7547 178.922 36.4222 178.629 36.166C178.344 35.9037 177.986 35.7725 177.557 35.7725Z" fill="#333333"/>
</svg>
