<svg width="121" height="120" viewBox="0 0 121 120" fill="none" xmlns="http://www.w3.org/2000/svg">
<path d="M27.3799 18.5466C21.3632 40.8033 5.69989 52.97 2.79989 63.6966C-0.100113 74.4233 -0.0234483 98.6133 49.3166 111.953C98.6566 125.293 114.09 96.95 117.277 85.15C132.213 29.91 38.0366 -20.8734 27.3799 18.5466Z" fill="#E6E6E6"/>
<path d="M102.414 40.8334C99.6569 40.8334 97.4136 38.59 97.4136 35.8334C97.4136 33.0767 99.6569 30.8334 102.414 30.8334C105.17 30.8334 107.414 33.0767 107.414 35.8334C107.414 38.59 105.17 40.8334 102.414 40.8334ZM102.414 34.1667C101.494 34.1667 100.747 34.9167 100.747 35.8334C100.747 36.75 101.494 37.5 102.414 37.5C103.334 37.5 104.08 36.75 104.08 35.8334C104.08 34.9167 103.334 34.1667 102.414 34.1667Z" fill="#BFBFBF"/>
<path d="M10.1531 17.8802C9.50225 17.2293 9.50225 16.174 10.1531 15.5231C10.804 14.8723 11.8593 14.8723 12.5101 15.5231L14.8672 17.8802C15.518 18.531 15.518 19.5863 14.8672 20.2372C14.2163 20.8881 13.161 20.8881 12.5101 20.2372L10.1531 17.8802Z" fill="#BFBFBF"/>
<path d="M9.56377 33.7918C8.91289 33.1409 8.91289 32.0856 9.56377 31.4348L11.9208 29.0777C12.5717 28.4269 13.6269 28.4269 14.2778 29.0777C14.9287 29.7286 14.9287 30.7839 14.2778 31.4348L11.9208 33.7918C11.2699 34.4427 10.2146 34.4427 9.56377 33.7918Z" fill="#BFBFBF"/>
<path d="M23.115 20.2383C22.4642 19.5875 22.4642 18.5322 23.115 17.8813L25.4721 15.5243C26.1229 14.8734 27.1782 14.8734 27.8291 15.5243C28.48 16.1752 28.48 17.2304 27.8291 17.8813L25.4721 20.2383C24.8212 20.8892 23.7659 20.8892 23.115 20.2383Z" fill="#BFBFBF"/>
<path d="M69.5 50.8334V87.5H75.3333H88.6667H94.5C96.34 87.5 97.8333 86.0067 97.8333 84.1667V50.8334H69.5Z" fill="#F2F2F2"/>
<path d="M56.1668 32.5H20.3335V87.5H59.5002V35.8333C59.5002 33.9933 58.0068 32.5 56.1668 32.5Z" fill="#F2F2F2"/>
<path d="M81.9998 94.1667C85.2215 94.1667 87.8332 91.555 87.8332 88.3333C87.8332 85.1117 85.2215 82.5 81.9998 82.5C78.7782 82.5 76.1665 85.1117 76.1665 88.3333C76.1665 91.555 78.7782 94.1667 81.9998 94.1667Z" fill="#F2F2F2"/>
<path d="M48.6668 94.1667C51.8885 94.1667 54.5002 91.555 54.5002 88.3333C54.5002 85.1117 51.8885 82.5 48.6668 82.5C45.4452 82.5 42.8335 85.1117 42.8335 88.3333C42.8335 91.555 45.4452 94.1667 48.6668 94.1667Z" fill="#F2F2F2"/>
<path d="M28.6668 94.1667C31.8885 94.1667 34.5002 91.555 34.5002 88.3333C34.5002 85.1117 31.8885 82.5 28.6668 82.5C25.4452 82.5 22.8335 85.1117 22.8335 88.3333C22.8335 91.555 25.4452 94.1667 28.6668 94.1667Z" fill="#F2F2F2"/>
<path d="M81.1665 60.8333H97.8332V72.4999H81.1665V60.8333Z" fill="#F2F2F2"/>
<path d="M72.8333 32.5H69.5V50.8333H91.1667C91.1667 40.7067 82.96 32.5 72.8333 32.5Z" fill="#F2F2F2"/>
<path d="M69.5 50.8334V87.5H75.3333H77V50.8334H69.5Z" fill="#D9D9D9"/>
<path d="M20.3335 32.5H27.8335V87.5H20.3335V32.5Z" fill="#D9D9D9"/>
<path d="M83.6665 88.3333C83.6665 86.5467 84.4865 84.97 85.7498 83.9C84.7332 83.04 83.4365 82.5 81.9998 82.5C78.7765 82.5 76.1665 85.1133 76.1665 88.3333C76.1665 91.5533 78.7765 94.1667 81.9998 94.1667C83.4365 94.1667 84.7332 93.6267 85.7498 92.7667C84.4865 91.6967 83.6665 90.12 83.6665 88.3333Z" fill="#D9D9D9"/>
<path d="M50.3335 88.3333C50.3335 86.5467 51.1535 84.97 52.4168 83.9C51.4002 83.04 50.1035 82.5 48.6668 82.5C45.4468 82.5 42.8335 85.1133 42.8335 88.3333C42.8335 91.5533 45.4468 94.1667 48.6668 94.1667C50.1035 94.1667 51.4002 93.6267 52.4168 92.7667C51.1535 91.6967 50.3335 90.12 50.3335 88.3333Z" fill="#D9D9D9"/>
<path d="M30.3335 88.3333C30.3335 86.5467 31.1535 84.97 32.4168 83.9C31.4002 83.04 30.1035 82.5 28.6668 82.5C25.4468 82.5 22.8335 85.1133 22.8335 88.3333C22.8335 91.5533 25.4468 94.1667 28.6668 94.1667C30.1035 94.1667 31.4002 93.6267 32.4168 92.7667C31.1535 91.6967 30.3335 90.12 30.3335 88.3333Z" fill="#D9D9D9"/>
<path d="M81.1665 60.8333H88.6665V72.4999H81.1665V60.8333Z" fill="#D9D9D9"/>
<path d="M72.8333 32.5H69.5V50.8333H77V32.9933C75.66 32.6833 74.27 32.5 72.8333 32.5Z" fill="#D9D9D9"/>
<path d="M43.667 45C43.667 43.6193 44.7863 42.5 46.167 42.5C47.5477 42.5 48.667 43.6193 48.667 45V68.3333C48.667 69.7141 47.5477 70.8333 46.167 70.8333C44.7863 70.8333 43.667 69.7141 43.667 68.3333V45Z" fill="#404040"/>
<path d="M27.0005 45C27.0005 43.6193 28.1198 42.5 29.5005 42.5C30.8812 42.5 32.0005 43.6193 32.0005 45V68.3333C32.0005 69.7141 30.8812 70.8333 29.5005 70.8333C28.1198 70.8333 27.0005 69.7141 27.0005 68.3333V45Z" fill="#404040"/>
<path d="M82.0003 96.6667C77.407 96.6667 73.667 92.93 73.667 88.3333C73.667 83.7367 77.407 80 82.0003 80C86.5937 80 90.3337 83.7367 90.3337 88.3333C90.3337 92.93 86.5937 96.6667 82.0003 96.6667ZM82.0003 85C80.1637 85 78.667 86.4933 78.667 88.3333C78.667 90.1733 80.1637 91.6667 82.0003 91.6667C83.837 91.6667 85.3337 90.1733 85.3337 88.3333C85.3337 86.4933 83.837 85 82.0003 85Z" fill="#404040"/>
<path d="M48.6668 96.6667C44.0735 96.6667 40.3335 92.93 40.3335 88.3333C40.3335 83.7367 44.0735 80 48.6668 80C53.2602 80 57.0002 83.7367 57.0002 88.3333C57.0002 92.93 53.2602 96.6667 48.6668 96.6667ZM48.6668 85C46.8302 85 45.3335 86.4933 45.3335 88.3333C45.3335 90.1733 46.8302 91.6667 48.6668 91.6667C50.5035 91.6667 52.0002 90.1733 52.0002 88.3333C52.0002 86.4933 50.5035 85 48.6668 85Z" fill="#404040"/>
<path d="M28.6668 96.6667C24.0735 96.6667 20.3335 92.93 20.3335 88.3333C20.3335 83.7367 24.0735 80 28.6668 80C33.2602 80 37.0002 83.7367 37.0002 88.3333C37.0002 92.93 33.2602 96.6667 28.6668 96.6667ZM28.6668 85C26.8302 85 25.3335 86.4933 25.3335 88.3333C25.3335 90.1733 26.8302 91.6667 28.6668 91.6667C30.5035 91.6667 32.0002 90.1733 32.0002 88.3333C32.0002 86.4933 30.5035 85 28.6668 85Z" fill="#404040"/>
<path d="M97.8337 74.9999H81.167C79.787 74.9999 78.667 73.8799 78.667 72.4999V60.8333C78.667 59.4533 79.787 58.3333 81.167 58.3333H97.8337V63.3333H83.667V69.9999H97.8337V74.9999Z" fill="#404040"/>
<path d="M35.3335 85H42.0002V90H35.3335V85Z" fill="#404040"/>
<path d="M59.5002 90H52.8335V85H57.0002V35.8333C57.0002 35.3733 56.6268 35 56.1668 35H22.8335C21.4528 35 20.3335 33.8807 20.3335 32.5C20.3335 31.1193 21.4528 30 22.8335 30H56.1668C59.3835 30 62.0002 32.6167 62.0002 35.8333V87.5C62.0002 88.88 60.8802 90 59.5002 90Z" fill="#404040"/>
<path d="M94.5 90.0001H88.6667V85.0001H94.5C94.96 85.0001 95.3333 84.6267 95.3333 84.1667V53.3334H72V85.0001H75.3333V90.0001H69.5C68.12 90.0001 67 88.8801 67 87.5001V50.8334C67 49.4534 68.12 48.3334 69.5 48.3334H97.8333C99.2133 48.3334 100.333 49.4534 100.333 50.8334V84.1667C100.333 87.3834 97.7167 90.0001 94.5 90.0001Z" fill="#404040"/>
<path d="M93.6667 50.8333H88.6667C88.6667 42.1033 81.5633 35 72.8333 35H72V50.8333H67V32.5C67 31.12 68.12 30 69.5 30H72.8333C84.32 30 93.6667 39.3467 93.6667 50.8333Z" fill="#404040"/>
<path d="M58.667 85H68.667V90H58.667V85Z" fill="#404040"/>
</svg>
