<svg width="120" height="120" viewBox="0 0 120 120" fill="none" xmlns="http://www.w3.org/2000/svg">
<path d="M13.8901 92.0766C13.8901 69.02 1.94678 53.1866 1.94678 42.0766C1.94678 30.9666 8.33344 7.6333 59.4434 7.6333C110.553 7.6333 118.053 39.0233 118.053 51.2433C118.057 108.467 13.8901 132.91 13.8901 92.0766Z" fill="#E6E6E6"/>
<path d="M49.1667 50.8333C56.9907 50.8333 63.3333 44.4907 63.3333 36.6667C63.3333 28.8426 56.9907 22.5 49.1667 22.5C41.3426 22.5 35 28.8426 35 36.6667C35 44.4907 41.3426 50.8333 49.1667 50.8333Z" fill="#E6E6E6"/>
<path d="M13 45C17.9706 45 22 40.9706 22 36C22 31.0294 17.9706 27 13 27C8.02944 27 4 31.0294 4 36C4 40.9706 8.02944 45 13 45Z" stroke="#404040" stroke-width="5"/>
<path d="M85 45C89.9706 45 94 40.9706 94 36C94 31.0294 89.9706 27 85 27C80.0294 27 76 31.0294 76 36C76 40.9706 80.0294 45 85 45Z" stroke="#404040" stroke-width="5"/>
<path d="M42.5 36.6667C42.5 30.15 46.9267 24.7167 52.9167 23.0667C51.7133 22.7367 50.4733 22.5 49.1667 22.5C41.3433 22.5 35 28.8433 35 36.6667C35 44.49 41.3433 50.8333 49.1667 50.8333C50.4733 50.8333 51.7133 50.6 52.9167 50.2667C46.9267 48.6167 42.5 43.1833 42.5 36.6667Z" fill="#D9D9D9"/>
<path d="M51.667 57.49H56.667V60.8233H51.667V57.49Z" fill="#404040"/>
<path d="M61.6665 60.8232H66.6665V63.3232H61.6665V60.8232Z" fill="#404040"/>
<path d="M84.1667 64.1567V84.1567C84.1667 91.5233 78.2 97.49 70.8333 97.49H52.3667C44.5 97.49 32.5333 93.3567 32.5 75.8233C32.5 69.89 37.2 64.99 43.1333 64.99H44.1667V37.49C44.1667 34.7233 46.4 32.49 49.1667 32.49C51.9333 32.49 54.1667 34.7233 54.1667 37.49V57.49C54.1667 54.7233 56.4 52.49 59.1667 52.49C61.9333 52.49 64.1667 54.7233 64.1667 57.49V60.8233C64.1667 58.0567 66.4 55.8233 69.1667 55.8233C71.9333 55.8233 74.1667 58.0567 74.1667 60.8233V64.1567C74.1667 61.39 76.4 59.1567 79.1667 59.1567C81.9333 59.1567 84.1667 61.39 84.1667 64.1567Z" fill="#F2F2F2"/>
<path d="M71.6666 57.49V60.8233C71.6666 59.56 72.1466 58.4233 72.9166 57.5433C72.5333 57.1033 72.0733 56.7367 71.5566 56.4567C71.6266 56.7867 71.6666 57.1333 71.6666 57.49Z" fill="#D9D9D9"/>
<path d="M81.6666 60.8234V64.1567C81.6666 62.8934 82.1466 61.7567 82.9166 60.8767C82.5333 60.4367 82.0733 60.07 81.5566 59.79C81.6266 60.12 81.6666 60.4667 81.6666 60.8234Z" fill="#D9D9D9"/>
<path d="M40 75.8233C40 69.89 44.7 64.99 50.6333 64.99H51.6667V37.49C51.6667 36.2267 52.1467 35.09 52.9167 34.21C52 33.1633 50.67 32.49 49.1667 32.49C46.4 32.49 44.1667 34.7233 44.1667 37.49V64.99H43.1333C37.2 64.99 32.5 69.89 32.5 75.8233C32.5333 93.3567 44.5 97.49 52.3667 97.49H59.8667C52 97.49 40.0333 93.3567 40 75.8233Z" fill="#D9D9D9"/>
<path d="M61.667 57.4899C61.667 56.2266 62.147 55.0899 62.917 54.2099C62.5603 53.7999 62.1403 53.4566 61.667 53.1799V57.4899Z" fill="#D9D9D9"/>
<path d="M26 64C23.2433 64 21 61.7567 21 59C21 56.2433 23.2433 54 26 54C28.7567 54 31 56.2433 31 59C31 61.7567 28.7567 64 26 64ZM26 57.3333C25.0833 57.3333 24.3333 58.0833 24.3333 59C24.3333 59.9167 25.0833 60.6667 26 60.6667C26.9167 60.6667 27.6667 59.9167 27.6667 59C27.6667 58.0833 26.9167 57.3333 26 57.3333Z" fill="#BFBFBF"/>
<path d="M83.7342 6.4871C83.0833 5.83623 83.0833 4.78096 83.7342 4.13008L86.0912 1.77306C86.7421 1.12219 87.7973 1.12219 88.4482 1.77306C89.0991 2.42393 89.0991 3.47921 88.4482 4.13008L86.0912 6.48711C85.4403 7.13798 84.385 7.13798 83.7342 6.4871Z" fill="#BFBFBF"/>
<path d="M70.1785 20.0325C69.5276 19.3816 69.5276 18.3264 70.1785 17.6755L72.5355 15.3185C73.1864 14.6676 74.2417 14.6676 74.8926 15.3185C75.5434 15.9693 75.5434 17.0246 74.8926 17.6755L72.5355 20.0325C71.8847 20.6834 70.8294 20.6834 70.1785 20.0325Z" fill="#BFBFBF"/>
<path d="M70.1814 3.53545C69.5306 2.88457 69.5306 1.8293 70.1814 1.17842C70.8323 0.527548 71.8876 0.527548 72.5385 1.17842L74.8955 3.53545C75.5464 4.18632 75.5464 5.2416 74.8955 5.89247C74.2446 6.54334 73.1893 6.54334 72.5385 5.89247L70.1814 3.53545Z" fill="#BFBFBF"/>
<path d="M83.7303 17.0899C83.0794 16.439 83.0794 15.3837 83.7303 14.7329C84.3811 14.082 85.4364 14.082 86.0873 14.7329L88.4443 17.0899C89.0952 17.7408 89.0952 18.796 88.4443 19.4469C87.7934 20.0978 86.7382 20.0978 86.0873 19.4469L83.7303 17.0899Z" fill="#BFBFBF"/>
<path d="M46.6665 74.1667H41.6665V37.5C41.6665 33.3667 45.0332 30 49.1665 30C53.2998 30 56.6665 33.3667 56.6665 37.5V70.8333H51.6665V37.5C51.6665 36.1233 50.5432 35 49.1665 35C47.7898 35 46.6665 36.1233 46.6665 37.5V74.1667Z" fill="#404040"/>
<path d="M66.667 70.8333H61.667V57.5C61.667 56.1233 60.5437 55 59.167 55C57.7903 55 56.667 56.1233 56.667 57.5V60.8333H51.667V57.5C51.667 53.3667 55.0337 50 59.167 50C63.3003 50 66.667 53.3667 66.667 57.5V70.8333Z" fill="#404040"/>
<path d="M76.6665 70.8334H71.6665V60.8334C71.6665 59.4567 70.5432 58.3334 69.1665 58.3334C67.7898 58.3334 66.6665 59.4567 66.6665 60.8334V63.3334H61.6665V60.8334C61.6665 56.7 65.0332 53.3334 69.1665 53.3334C73.2998 53.3334 76.6665 56.7 76.6665 60.8334V70.8334Z" fill="#404040"/>
<path d="M70.8335 100H52.3768C41.5901 100 30.0468 93.65 30.0035 75.82C29.9935 72.2333 31.3735 68.8666 33.8901 66.3433C36.3635 63.8633 39.6501 62.5 43.1401 62.5H44.1668V67.5H43.1401C40.9868 67.5 38.9568 68.3433 37.4301 69.8733C35.8568 71.4533 34.9968 73.5566 35.0001 75.8066C35.0435 93.6166 48.3068 95 52.3735 95H70.8301C76.8035 95 81.6635 90.14 81.6635 84.1666V64.1666C81.6635 62.79 80.5401 61.6666 79.1635 61.6666C77.7868 61.6666 76.6668 62.79 76.6668 64.1666V66.6666H71.6668V64.1666C71.6668 60.0333 75.0335 56.6666 79.1668 56.6666C83.3001 56.6666 86.6668 60.0333 86.6668 64.1666V84.1666C86.6668 92.8966 79.5635 100 70.8335 100Z" fill="#404040"/>
<path d="M63.5466 44.9238C62.8469 46.1122 61.2549 46.2622 60.1876 45.389C59.1195 44.5152 58.9934 42.949 59.6152 41.7171C60.4177 40.127 60.8333 38.3629 60.8333 36.5133C60.8333 30.0799 55.6 24.8466 49.1667 24.8466C42.7333 24.8466 37.5 30.0799 37.5 36.5133C37.5 38.363 37.9172 40.1272 38.7198 41.7174C39.3414 42.9491 39.2146 44.5146 38.1467 45.3882C37.0788 46.2619 35.486 46.1118 34.7862 44.9228C33.3009 42.3995 32.5 39.4881 32.5 36.5099C32.5 27.3199 39.9767 19.8433 49.1667 19.8433C58.3567 19.8433 65.8333 27.3199 65.8333 36.5099C65.8333 39.4885 65.0322 42.4003 63.5466 44.9238Z" fill="#404040"/>
</svg>
