<svg width="1440" height="633" viewBox="0 0 1440 633" fill="none" xmlns="http://www.w3.org/2000/svg">
<mask id="mask0" style="mask-type:alpha" maskUnits="userSpaceOnUse" x="0" y="0" width="1440" height="633">
<rect width="1440" height="633" fill="#C4C4C4"/>
</mask>
<g mask="url(#mask0)">
<g opacity="0.2">
<mask id="mask1" style="mask-type:alpha" maskUnits="userSpaceOnUse" x="-1" y="-79" width="1442" height="634">
<path d="M0.868408 -74.4313C-3.10351 148.647 280.058 599.44 0 549.111M372 -77.2891C413.183 -36.7562 421.03 8.19535 359.201 40.2853C154.542 146.504 252.976 531.017 393.193 531.017C533.409 531.017 470.38 356.11 432.139 317.871C393.899 279.632 380.445 125.969 563.859 164.207C747.273 202.446 380.445 509.773 653.796 531.017C927.147 552.261 572.357 83.481 913.692 87.7298C1255.03 91.9785 939.894 364.607 1208.29 467.286C1679.87 653.409 1205.84 85.1657 1440 -17.169" stroke="#E8E8E8" stroke-width="3"/>
</mask>
<g mask="url(#mask1)">
<rect width="1440" height="585" fill="#C4C4C4"/>
</g>
</g>
<path fill-rule="evenodd" clip-rule="evenodd" d="M1375.21 -24.75C1339.92 27.0124 1280.47 61 1213.08 61C1104.8 61 1017.02 -26.7516 1017.02 -135C1017.02 -243.248 1104.8 -331 1213.08 -331C1280.47 -331 1339.92 -297.013 1375.21 -245.25H1432C1391.64 -325.183 1308.76 -380 1213.08 -380C1077.73 -380 968 -270.31 968 -135C968 0.309814 1077.73 110 1213.08 110C1308.76 110 1391.64 55.1837 1432 -24.75H1375.21Z" fill="#EB2227"/>
<circle cx="1307.19" cy="158.156" r="4.45022" fill="#7F7F7F"/>
<circle cx="314.792" cy="483.022" r="4.45022" fill="#7F7F7F"/>
<circle cx="162.372" cy="92.5152" r="10.013" fill="#EB2227"/>
<circle cx="795.416" cy="44.6753" r="6.67532" fill="#7F7F7F"/>
<circle cx="1089.13" cy="76.9393" r="21.1385" fill="#333333"/>
<circle cx="1099.14" cy="534.199" r="11.1255" fill="#BFBFBF"/>
<circle r="8" transform="matrix(-1 0 0 1 584 421)" fill="#333333"/>
</g>
</svg>
