<svg width="1440" height="578" viewBox="0 0 1440 578" fill="none" xmlns="http://www.w3.org/2000/svg">
<mask id="mask0" style="mask-type:alpha" maskUnits="userSpaceOnUse" x="0" y="0" width="1440" height="578">
<rect width="1440" height="578" fill="#C4C4C4"/>
</mask>
<g mask="url(#mask0)">
<path d="M1476 178.662C1404.17 164.995 1274.7 158.262 1331.5 240.662C1402.5 343.662 1242.5 703.162 1102.5 517.662C962.499 332.162 1235 314.162 1214.5 256.662C1194 199.162 1164 159.662 1061 192.162C957.999 224.662 1084 526.662 872.999 423.662C661.999 320.662 760.999 173.662 405.499 313.662C49.9993 453.662 90.9993 144.162 285.999 139.662C480.999 135.162 334.499 -32.3381 198.999 29.6619C63.4994 91.6619 -195.001 330.162 95.9994 472.162" stroke="#E7E7E7" stroke-width="3"/>
<circle cx="1178" cy="281.911" r="5" fill="#EB2227"/>
<circle cx="1149" cy="349.911" r="5" fill="#7F7F7F"/>
<circle cx="1235" cy="422.911" r="5" fill="#7F7F7F"/>
<circle cx="344" cy="141.911" r="5" fill="#7F7F7F"/>
<ellipse cx="434.5" cy="218.911" rx="5.5" ry="5" fill="#7F7F7F"/>
<circle cx="499.5" cy="516.411" r="11.5" fill="#EB2227"/>
<path fill-rule="evenodd" clip-rule="evenodd" d="M1200.58 -85.8947C1163.76 -59.275 1139.59 -14.4322 1139.59 36.3993C1139.59 118.078 1202.01 184.292 1279 184.292C1356 184.292 1418.41 118.078 1418.41 36.3993C1418.41 -14.4322 1394.24 -59.275 1357.42 -85.8947L1357.42 -128.735C1414.28 -98.2917 1453.27 -35.7767 1453.27 36.3993C1453.27 138.498 1375.24 221.265 1279 221.265C1182.76 221.265 1104.74 138.498 1104.74 36.3993C1104.74 -35.7767 1143.73 -98.2917 1200.58 -128.735L1200.58 -85.8947Z" fill="#EB2227"/>
<ellipse cx="266.433" cy="435.68" rx="4.45021" ry="4.18068" fill="#7F7F7F"/>
<ellipse cx="114.013" cy="68.8255" rx="10.013" ry="9.40652" fill="#EB2227"/>
<ellipse cx="747.056" cy="23.8831" rx="6.67532" ry="6.27102" fill="#7F7F7F"/>
<ellipse cx="1040.77" cy="54.1929" rx="21.1385" ry="19.8582" fill="#333333"/>
<ellipse cx="1050.78" cy="483.758" rx="11.1255" ry="10.4517" fill="#BFBFBF"/>
</g>
</svg>
