<?xml version="1.0" encoding="utf-8"?>
<!-- Generator: Adobe Illustrator 25.2.1, SVG Export Plug-In . SVG Version: 6.00 Build 0)  -->
<svg version="1.1" id="Layer_1" xmlns="http://www.w3.org/2000/svg" xmlns:xlink="http://www.w3.org/1999/xlink" x="0px" y="0px"
	 viewBox="0 0 946 132" style="enable-background:new 0 0 946 132;" xml:space="preserve">
<style type="text/css">
	.st0{fill:#FFFFFF;}
</style>
<g>
	<path class="st0" d="M0,0.3h30.2v129.6H0V0.3z"/>
	<path class="st0" d="M120.1,28.8c12.4,0,22.4,3.7,30,11.1c7.7,7.4,11.6,18.4,11.6,32.9v57h-29.1V77.3c0-7.9-1.7-13.8-5.2-17.6
		c-3.5-3.9-8.5-5.9-15.1-5.9c-7.3,0-13.2,2.3-17.5,6.8c-4.3,4.4-6.5,11.1-6.5,20v49.2H59.1V30.3h27.8V42c3.9-4.2,8.6-7.4,14.4-9.6
		C106.9,30,113.2,28.8,120.1,28.8z"/>
	<path class="st0" d="M221.7,131.4c-8.3,0-16.5-1-24.4-3c-8-2.1-14.3-4.7-19-7.8l9.7-20.7c4.5,2.8,9.9,5.2,16.2,7
		c6.3,1.7,12.6,2.6,18.6,2.6c12.3,0,18.5-3,18.5-9.1c0-2.8-1.7-4.9-5-6.1s-8.5-2.3-15.5-3.1c-8.2-1.2-15-2.7-20.3-4.3
		s-10-4.4-14-8.5c-3.9-4.1-5.8-9.9-5.8-17.4c0-6.3,1.8-11.8,5.4-16.7c3.7-4.9,9.1-8.8,16-11.5c7.1-2.7,15.4-4.1,25-4.1
		c7.1,0,14.1,0.8,21.1,2.4c7.1,1.5,12.9,3.6,17.5,6.3L256,58.1c-8.8-4.9-18.5-7.4-28.9-7.4c-6.2,0-10.9,0.9-14,2.6
		c-3.1,1.7-4.7,3.9-4.7,6.7c0,3.1,1.7,5.2,5,6.5c3.4,1.2,8.7,2.4,16,3.5c8.2,1.4,14.9,2.8,20.1,4.4c5.2,1.5,9.8,4.3,13.6,8.3
		s5.8,9.7,5.8,17c0,6.2-1.9,11.7-5.6,16.5s-9.2,8.6-16.4,11.3C240,130.1,231.5,131.4,221.7,131.4z"/>
	<path class="st0" d="M388,30.3v99.6h-27.6V118c-3.9,4.3-8.4,7.6-13.8,10c-5.3,2.2-11.1,3.3-17.3,3.3c-13.2,0-23.6-3.8-31.3-11.3
		c-7.7-7.5-11.6-18.7-11.6-33.5V30.3h29.1v52c0,16,6.8,24.1,20.3,24.1c7,0,12.5-2.2,16.8-6.7c4.2-4.6,6.3-11.3,6.3-20.2V30.3H388z"
		/>
	<path class="st0" d="M442.7,43.5c3.5-4.8,8.1-8.5,14-10.9c6-2.5,12.8-3.7,20.5-3.7v26.7c-3.2-0.2-5.4-0.4-6.5-0.4
		c-8.3,0-14.8,2.3-19.6,7c-4.7,4.6-7.1,11.5-7.1,20.7v47h-29.1V30.3h27.8L442.7,43.5L442.7,43.5z"/>
	<path class="st0" d="M534.4,28.8c15.5,0,27.5,3.7,35.8,11.1c8.3,7.3,12.5,18.3,12.5,33.1v56.8h-27.2v-12.4
		c-5.5,9.3-15.7,13.9-30.6,13.9c-7.7,0-14.4-1.3-20.1-3.9c-5.6-2.6-9.9-6.2-12.9-10.7c-3-4.6-4.5-9.7-4.5-15.5
		c0-9.3,3.5-16.5,10.4-21.8c7.1-5.3,18-8,32.6-8h23.1c0-6.3-1.9-11.1-5.8-14.4c-3.9-3.5-9.6-5.2-17.3-5.2c-5.3,0-10.6,0.9-15.8,2.6
		c-5.1,1.6-9.4,3.8-13,6.7l-10.4-20.2c5.5-3.8,12-6.8,19.6-8.9C518.4,29.9,526.3,28.8,534.4,28.8z M532.1,111.9
		c5,0,9.4-1.1,13.2-3.3c3.9-2.3,6.6-5.7,8.2-10.2V88.2h-19.9c-11.9,0-17.9,3.9-17.9,11.7c0,3.7,1.4,6.7,4.3,8.9
		C523,110.9,527.1,111.9,532.1,111.9z"/>
	<path class="st0" d="M669.9,28.8c12.4,0,22.4,3.7,30,11.1c7.7,7.4,11.6,18.4,11.6,32.9v57h-29.1V77.3c0-7.9-1.7-13.8-5.2-17.6
		c-3.5-3.9-8.5-5.9-15.1-5.9c-7.3,0-13.2,2.3-17.5,6.8c-4.3,4.4-6.5,11.1-6.5,20v49.2H609V30.3h27.8V42c3.9-4.2,8.6-7.4,14.4-9.6
		C656.8,30,663.1,28.8,669.9,28.8z"/>
	<path class="st0" d="M787.4,131.4c-10.7,0-20.3-2.2-28.9-6.5c-8.5-4.4-15.1-10.5-19.9-18.3c-4.7-7.8-7.1-16.6-7.1-26.5
		s2.4-18.7,7.1-26.5c4.8-7.8,11.5-13.8,19.9-18.1c8.6-4.4,18.2-6.7,28.9-6.7c10.6,0,19.8,2.2,27.6,6.7c8,4.3,13.7,10.5,17.3,18.7
		l-22.6,12c-5.2-9.1-12.7-13.7-22.6-13.7c-7.6,0-13.9,2.5-18.8,7.4c-5,4.9-7.5,11.7-7.5,20.2s2.5,15.2,7.5,20.2
		c5,4.9,11.2,7.4,18.8,7.4c9.9,0,17.5-4.6,22.6-13.7l22.6,12.2c-3.6,7.9-9.4,14.1-17.3,18.5C807.1,129.1,798,131.4,787.4,131.4z"/>
	<path class="st0" d="M946,80.5c0,0.4-0.2,3-0.6,7.8h-75.9c1.4,6.2,4.6,11,9.7,14.6c5.1,3.6,11.4,5.4,19,5.4c5.2,0,9.8-0.7,13.8-2.2
		c4.1-1.6,7.9-4.1,11.4-7.4l15.5,16.7c-9.4,10.7-23.2,16.1-41.4,16.1c-11.3,0-21.3-2.2-30-6.5c-8.7-4.4-15.4-10.5-20.1-18.3
		c-4.7-7.8-7.1-16.6-7.1-26.5c0-9.7,2.3-18.5,6.9-26.3c4.7-7.9,11.1-14,19.2-18.3c8.2-4.4,17.3-6.7,27.4-6.7
		c9.8,0,18.7,2.1,26.7,6.3s14.2,10.2,18.6,18.1C943.7,61,946,70.1,946,80.5z M894,50.7c-6.6,0-12.1,1.9-16.6,5.6
		c-4.5,3.7-7.2,8.8-8.2,15.2h49.4c-1-6.3-3.7-11.3-8.2-15C905.9,52.6,900.5,50.7,894,50.7z"/>
</g>
</svg>
