<?xml version="1.0" encoding="utf-8"?>
<!-- Generator: Adobe Illustrator 25.2.1, SVG Export Plug-In . SVG Version: 6.00 Build 0)  -->
<svg version="1.1" id="Layer_1" xmlns="http://www.w3.org/2000/svg" xmlns:xlink="http://www.w3.org/1999/xlink" x="0px" y="0px"
	 viewBox="0 0 18 18" style="enable-background:new 0 0 18 18;" xml:space="preserve">
<linearGradient id="SVGID_1_" gradientUnits="userSpaceOnUse" x1="9" y1="0.623" x2="9" y2="18" gradientTransform="matrix(1 0 0 -1 0 18)">
	<stop  offset="0" style="stop-color:#0062E0"/>
	<stop  offset="1" style="stop-color:#19AFFF"/>
</linearGradient>
<path style="fill:url(#SVGID_1_);" d="M7.5,17.9C3.25,17.15,0,13.45,0,9c0-4.95,4.05-9,9-9s9,4.05,9,9c0,4.45-3.25,8.15-7.5,8.9
	L10,17.5H8L7.5,17.9z"/>
<path style="fill:#FFFFFF;" d="M12.5,11.5L12.9,9h-2.4V7.25c0-0.7,0.25-1.25,1.35-1.25H13V3.7c-0.65-0.1-1.35-0.2-2-0.2
	C8.95,3.5,7.5,4.75,7.5,7v2H5.25v2.5H7.5v6.35C8,17.95,8.5,18,9,18s1-0.05,1.5-0.15V11.5H12.5z"/>
</svg>
