<svg id="Layer_1" data-name="Layer 1" xmlns="http://www.w3.org/2000/svg" viewBox="0 0 618 147.1"><defs><linearGradient id="linear-gradient" x1="145.67" y1="-125.81" x2="138.37" y2="-127.75" gradientTransform="matrix(1 0 0 -1 0 -51.2)" gradientUnits="userSpaceOnUse"><stop offset="0" stop-color="#00a0ff"/><stop offset=".01" stop-color="#00a1ff"/><stop offset=".26" stop-color="#00beff"/><stop offset=".51" stop-color="#00d2ff"/><stop offset=".76" stop-color="#00dfff"/><stop offset="1" stop-color="#00e3ff"/></linearGradient><linearGradient id="linear-gradient-2" x1="149.34" y1="-127.11" x2="140.44" y2="-127.11" gradientTransform="matrix(1 0 0 -1 0 -51.2)" gradientUnits="userSpaceOnUse"><stop offset="0" stop-color="#ffe000"/><stop offset=".41" stop-color="#ffbd00"/><stop offset=".78" stop-color="orange"/><stop offset="1" stop-color="#ff9c00"/></linearGradient><linearGradient id="linear-gradient-3" x1="145.37" y1="-127.57" x2="139.47" y2="-137.45" gradientTransform="matrix(1 0 0 -1 0 -51.2)" gradientUnits="userSpaceOnUse"><stop offset="0" stop-color="#ff3a44"/><stop offset="1" stop-color="#c31162"/></linearGradient><linearGradient id="linear-gradient-4" x1="140.83" y1="-119.05" x2="143.46" y2="-123.46" gradientTransform="matrix(1 0 0 -1 0 -51.2)" gradientUnits="userSpaceOnUse"><stop offset="0" stop-color="#32a071"/><stop offset=".07" stop-color="#2da771"/><stop offset=".48" stop-color="#15cf74"/><stop offset=".8" stop-color="#06e775"/><stop offset="1" stop-color="#00f076"/></linearGradient><style>.cls-1{fill:#bfbfbf}.cls-2{fill:#eb2227}.cls-3{fill:#fff}.cls-10,.cls-5{fill:#a3a3a3}.cls-5{fill-rule:evenodd}.cls-7{fill:#ffdad1}.cls-8{fill:#20aeae}</style></defs><path class="cls-1" d="M17 23.68v8.09a1.5 1.5 0 003 0v-18.7c7.65-.31 11.68-4.29 11.68-11.57A1.5 1.5 0 0030.17 0C23.33 0 17 1.4 17 11.59v.64C13.61 8.42 7.76 8 1.5 8A1.5 1.5 0 000 9.46c0 6.28 3 13.73 17 14.22zM28.6 3c-.47 4.58-3.17 6.8-8.55 7 .43-5.34 3.3-6.76 8.55-7zM17 20.68C8.25 20.35 3.69 17.17 3.07 11c9.05.14 13.4 1.85 13.93 9.68z"/><path class="cls-1" d="M64.06 49.29a23.88 23.88 0 00-1.59-7.92.14.14 0 000-.06c-2.2-6-11.27-25.38-36.53-25.38a1.5 1.5 0 000 3 38.75 38.75 0 0110.44 1.35c-.16.32-.34.65-.52 1-2 3.72-4.7 8.72-2.3 14.72 2.52 6.29 14 6.75 23.23 7.11l3.17.14a20.22 20.22 0 011.1 6c0 3.62-.4 5-2.87 5.31a7.86 7.86 0 00-15.69.09H24.22a7.87 7.87 0 00-15.7-.14 5 5 0 01-2.22-1.17C4.84 52 4.06 49.66 4.06 46.63A54.17 54.17 0 017.69 28a1.5 1.5 0 00-2.82-1 57.17 57.17 0 00-3.81 19.63c0 4.9 1.74 7.55 3.2 8.91a7.92 7.92 0 004.66 2.12 7.86 7.86 0 0014.88 0h19.11a7.86 7.86 0 0014.89 0c5.75-.44 6.26-4.36 6.26-8.37zm-7.16-9.13c-7.47-.3-18.76-.75-20.56-5.23-1.88-4.71.35-8.89 2.14-12.24.28-.52.54-1 .77-1.48 11.57 4.33 17.2 13.77 19.53 19zM16.37 60a4.87 4.87 0 114.87-4.87A4.88 4.88 0 0116.37 60zm34 0a4.87 4.87 0 114.87-4.87A4.88 4.88 0 0150.35 60zM538.63 26.93l-14.58-11.29a15.52 15.52 0 00-9.49-3.25h-44.93a27.18 27.18 0 00-7.2 1 1.5 1.5 0 00-1.3.39 27.48 27.48 0 00-6.08 2.82l-8.39 5.24-15.84 1.8a6.5 6.5 0 00-5.77 6.46v12.34a9.51 9.51 0 009.5 9.5h2.73a12.27 12.27 0 0011.27 7.45 12.12 12.12 0 004.23-.77 13.06 13.06 0 004.4.77 12.72 12.72 0 0011.7-7.45h67.76a12.26 12.26 0 0011.27 7.45 12.12 12.12 0 004.23-.77 13 13 0 004.39.77 12.72 12.72 0 0011.72-7.47 6.51 6.51 0 006-6.48v-7.18c.03-10.26-18.06-10.83-35.62-11.33zM522.21 18l11.5 8.91h-25.52V15.39h6.37a12.55 12.55 0 017.65 2.61zm-39.79 8.91V15.39h22.77v11.53zm-3-11.53v11.54h-19.14l3.05-10.68a24.64 24.64 0 016.3-.83zm-22.78 3.72a24.23 24.23 0 013.23-1.69l-2.66 9.32a12.94 12.94 0 01-7.53-3.28zm-17.34 28a9.25 9.25 0 1113.15 8.38 1.5 1.5 0 00-.65.27 9.23 9.23 0 01-12.5-8.65zm17.88 9.25h-.59a12.34 12.34 0 003.23-4.42h5.66a9.79 9.79 0 01-8.3 4.46zm81.48-9.25a9.25 9.25 0 1113.14 8.38 1.51 1.51 0 00-.64.27 9.23 9.23 0 01-12.5-8.65zm17.87 9.25h-.58a12.46 12.46 0 003.23-4.42h5.66a9.79 9.79 0 01-8.31 4.46zm11.25-7.45H560a11.92 11.92 0 00.15-1.8 12.25 12.25 0 10-24.5 0 11.92 11.92 0 00.15 1.8h-75.15a11.92 11.92 0 00.15-1.8 12.25 12.25 0 10-24.5 0 11.92 11.92 0 00.15 1.8h-1.9a6.51 6.51 0 01-6.5-6.5V37h4.12a1.5 1.5 0 000-3h-4.12v-3.93a3.5 3.5 0 013.1-3.48l15.52-1.76c5.74 5.09 9.1 5.09 16.91 5.09h73.11a1.37 1.37 0 011.36 0h.29c13.61.39 30.29.87 32.65 6.84h-4.78a1.5 1.5 0 000 3h5.07v5.68a3.5 3.5 0 01-3.5 3.5z"/><path class="cls-1" d="M531.06 38.63H465a1.5 1.5 0 000 3h66.08a1.5 1.5 0 000-3zM198.23 31.53A90.62 90.62 0 00159.51 19c-18-9.2-28.89-11.06-40.57-11.06s-17.23 2-24.14 4.41l-1.5.53-.51.18L77.55.35a1.48 1.48 0 00-1-.35h-8.34a1.5 1.5 0 000 3h7.84l13.38 11.16a51.14 51.14 0 01-15 2.6h-3.87a6.51 6.51 0 00-6.5 6.5v24.18a8.51 8.51 0 008.5 8.5h7.5A13 13 0 0091.59 63a12.76 12.76 0 004.51-.83 13.79 13.79 0 004.69.83 13.51 13.51 0 0012-7.06h46.68A13 13 0 00171 63a12.72 12.72 0 004.51-.83 13.79 13.79 0 004.69.83 13.48 13.48 0 0012.12-7.21c4.68-.64 6.68-3.39 6.68-8.85V32.82a1.49 1.49 0 00-.77-1.29zM196 37.89c-4.8-.22-8-1.56-9.5-4h9.5zM67.06 26a8.93 8.93 0 016.34 4h-6.34zm14.56 24a10 10 0 1114.15 9 1.49 1.49 0 00-.66.28A10 10 0 0181.62 50zm19.17 10h-.87a13 13 0 003.2-4h6.08a10.6 10.6 0 01-8.41 4zM161 50a10 10 0 1114.16 9 1.48 1.48 0 00-.67.28A10 10 0 01161 50zm19.2 10h-.87a13 13 0 003.2-4h6.14a10.63 10.63 0 01-8.47 4zm9.8-7.06h-6.34A12.73 12.73 0 00184 50a13 13 0 00-26 0 13.31 13.31 0 00.34 2.91h-54.12a12.73 12.73 0 00.34-2.91 13 13 0 00-25.94 0 13.31 13.31 0 00.38 2.94h-6.4a5.51 5.51 0 01-5.5-5.5V33h8.65a1.5 1.5 0 001.43-1.95 11.72 11.72 0 00-10-8 3.49 3.49 0 013.47-3.25h3.83c5.4 0 11.32-1.14 18.53-3.58h.07l1.31-.45 1.51-.54c6.64-2.36 11.88-4.23 23.13-4.23 11.58 0 21.75 1.78 39.47 10.87a1.56 1.56 0 00.5.13 85.55 85.55 0 0131.72 8.91h-6.46a1.51 1.51 0 00-1.46 1.87c.89 3.55 3.93 7.74 13.19 8.15v5.86h-5.56a1.5 1.5 0 000 3h5.31c-.58 2.4-2.19 3.15-5.74 3.15z"/><path class="cls-1" d="M159.78 25.31c-16.1-8.25-26.51-10.66-36.78-11.11a1.62 1.62 0 00-.49-.08 1.58 1.58 0 00-.38.05c-1 0-2.09-.05-3.15-.05-8.68 0-15.6 2.3-21.7 4.34a79.19 79.19 0 01-7.74 2.31 1.48 1.48 0 00-1.08 1 1.5 1.5 0 00.22 1.43c3.59 4.61 13.25 5 23.69 5h46.76a1.5 1.5 0 00.69-2.84zm-66.65-2.38c1.64-.48 3.32-1 5.06-1.62 5.89-2 12.56-4.19 20.75-4.19h2v8h-8.64c-7.25.03-15.07-.12-19.17-2.19zM124 25.15v-7.89c8.4.47 16.74 2.35 28.65 7.89zM153.36 46.76H108.8a1.5 1.5 0 000 3h44.56a1.5 1.5 0 000-3zM312.44 15.44h-16.52l-7.6-7.6c-4.69-4.68-8.73-7.4-15.52-7.4h-51.43c-6.52 0-6.82.3-14.46 7.94S199 16.32 199 21.76v21.43c0 5.78 3 9 8.67 9.48a12.18 12.18 0 0016.41 10 11.94 11.94 0 004.28.79 12.21 12.21 0 0012.11-10.71h20.78a12.17 12.17 0 0016.4 9.92 12 12 0 004.28.79 12.21 12.21 0 009.64-4.73 12.15 12.15 0 0013.93 3.94 12 12 0 004.29.79 12.23 12.23 0 0012.15-11c2.11-.61 4.35-2.48 4.35-7.66V28.73c-.03-6.15-6.07-13.29-13.85-13.29zm-14 17.14a6.51 6.51 0 01-6.5-6.5v-.14h7.72v6.64zm4.22-6.64h20a8.2 8.2 0 01.53 2.79v3.85h-20.5zM272.8 3.44c5.78 0 9.17 2.29 13.4 6.53l5.48 5.47h-20.41L261 5.17a24 24 0 00-1.88-1.73zm-34.4 0h9.75c6 0 7.75.87 10.73 3.85l8.12 8.15h-28.6zm0 15h74a11.14 11.14 0 018.61 4.5h-30.54a1.5 1.5 0 00-1.5 1.5v1.64a9.52 9.52 0 009.5 9.5h24.79v4.5h-32.38a20.8 20.8 0 00-35.1 0h-10.95v-3.85a1.5 1.5 0 00-.44-1.06l-6-6zm-14.63-15h11.63v12h-19.77zM209 10.5c6.47-6.46 7-7 11.11-7l-8.55 12.6a1.47 1.47 0 00-.09 1.54 1.51 1.51 0 001.33.8h22.6V29.8a1.5 1.5 0 00.44 1.06l6 6v3.23h-4.52a20.8 20.8 0 00-35.1 0H202V31.3h2.25a1.48 1.48 0 001.2-.6l4.83-6.43a1.5 1.5 0 00-1.2-2.4H202v-.11c0-4.2 0-4.2 7-11.26zm-7 14.37h4.08l-2.58 3.43H202zm8.58 26.36a9.21 9.21 0 119.21 9.21 9.23 9.23 0 01-9.24-9.21zm17.78 9.21h-.55a12.14 12.14 0 004.09-7.68h5.54a9.21 9.21 0 01-9.11 7.68zm3.54-10.71a12.2 12.2 0 00-24.21-.07c-4-.35-5.69-2.34-5.69-6.47v-.11h1.08a1.49 1.49 0 001.3-.75 17.8 17.8 0 0130.82 0 1.49 1.49 0 001.3.75h5.36v6.65zm32.25 1.5a9.22 9.22 0 119.21 9.21 9.23 9.23 0 01-9.24-9.21zm17.78 9.21h-.54a12.17 12.17 0 004.08-7.68H291a9.21 9.21 0 01-9.1 7.68zm11.32-4.63a12.69 12.69 0 00.8-3.08h16.25a9.19 9.19 0 01-17 3.08zm16.54 4.63h-.55a12.14 12.14 0 004.09-7.68h5.54a9.21 9.21 0 01-9.11 7.68zm10.18-10.71h-34.5a12.2 12.2 0 00-24.22 0h-16.42v-6.65h11.8a1.5 1.5 0 001.3-.75 17.79 17.79 0 0130.81 0 1.49 1.49 0 001.3.75h33.22v1.72c0 4.93-2.26 4.93-3.32 4.93z"/><path class="cls-1" d="M250.19 23.37a1.5 1.5 0 00-1.5-1.5h-5.36a1.5 1.5 0 100 3h5.36a1.5 1.5 0 001.5-1.5zM423 23L404.3 3.41a7.5 7.5 0 00-5.42-2.33h-65.12a7.51 7.51 0 00-7.5 7.5V45a7.5 7.5 0 007.5 7.5h.94a12 12 0 0024 0h32.84a12 12 0 0024 0h2a7.5 7.5 0 007.5-7.5V28.15A7.5 7.5 0 00423 23zm-.93 13.9h-4.82a1.66 1.66 0 010-3.31h4.82zm-33.86-24.4h20.63L420 24.24h-31.79zm-3 11.74h-47a.5.5 0 01-.5-.5V13a.51.51 0 01.5-.5h47zM329.26 45V34.61h4.82a1.5 1.5 0 000-3h-4.82v-23a4.51 4.51 0 014.5-4.5h65.12a4.49 4.49 0 013.25 1.4l3.85 4h-67.8a3.51 3.51 0 00-3.5 3.5v10.73a3.5 3.5 0 003.5 3.5h47V49.5h-26.72a12 12 0 00-23.5 0h-1.2a4.5 4.5 0 01-4.5-4.5zm17.45 16.08a9 9 0 119-9 9 9 0 01-9 9zm56.84 0a9 9 0 119-9 9 9 0 01-9 9zm14-11.58h-2.25a12 12 0 00-23.5 0h-3.59V27.24H422a4.6 4.6 0 01.09.91v2.41h-4.82a4.66 4.66 0 000 9.31h4.82v3.32h-3.76a1.5 1.5 0 000 3h3.58a4.49 4.49 0 01-4.36 3.31z"/><path class="cls-1" d="M398.29 31.61h-4.21a1.5 1.5 0 000 3h4.21a1.5 1.5 0 000-3z"/><path class="cls-2" d="M581.6 45.41a3.9 3.9 0 011.76 1.49 4.32 4.32 0 01.63 2.35 4.27 4.27 0 01-1.21 3.16 4.31 4.31 0 01-3.12 1.18 4.37 4.37 0 01-3.16-1.22 4.19 4.19 0 01-1.22-3.12 7.39 7.39 0 01.22-1.8 19.35 19.35 0 011-2.72l2.62-6.5h4.47zm10.66 0A3.85 3.85 0 01594 46.9a4.67 4.67 0 01-.58 5.51 4.31 4.31 0 01-3.12 1.18 4.37 4.37 0 01-3.16-1.22 4.19 4.19 0 01-1.22-3.12 7.39 7.39 0 01.22-1.8 20.74 20.74 0 011-2.72l2.62-6.5h4.47z"/><circle class="cls-3" cx="606.72" cy="45.91" r="11.1"/><path d="M606.72 57.19A11.28 11.28 0 11618 45.91a11.29 11.29 0 01-11.28 11.28zm0-22.21a10.93 10.93 0 1010.93 10.93A10.94 10.94 0 00606.72 35z" fill="#e0e0e0"/><path class="cls-5" d="M602.61 41.21v1.17h8.22v-1.17h-8.22zm3.52 2.94l.58-.59 3.33 3.32-.83.83-1.91-1.91v4.81h-1.18v-4.8l-1.9 1.9-.83-.83z"/><path class="cls-3" d="M610 27.88v-.54h-.56v3.24h.56V29a1.12 1.12 0 01.27-.81 1 1 0 01.75-.29h.14v-.57a1.76 1.76 0 00-.73.14 1 1 0 00-.43.41zM606.72 28a1.24 1.24 0 01.58-.14 1.06 1.06 0 01.5.12 1 1 0 01.38.35l.45-.29a1.21 1.21 0 00-.54-.51 1.67 1.67 0 00-.79-.18 1.82 1.82 0 00-.88.21 1.57 1.57 0 00-.61.59 1.71 1.71 0 00-.22.85 1.77 1.77 0 00.22.86 1.62 1.62 0 00.61.58 1.72 1.72 0 00.88.22 1.67 1.67 0 00.79-.18 1.35 1.35 0 00.54-.52l-.45-.28a1.06 1.06 0 01-.38.35 1.18 1.18 0 01-.5.11 1.13 1.13 0 01-.58-.14.94.94 0 01-.39-.4 1.16 1.16 0 01-.14-.6 1.15 1.15 0 01.14-.59 1 1 0 01.39-.41zM604.37 28.42a6.23 6.23 0 00-.78-.24A4.26 4.26 0 01603 28a1.07 1.07 0 01-.36-.21.46.46 0 01-.15-.36.59.59 0 01.26-.49 1.28 1.28 0 01.78-.19 2.08 2.08 0 01.6.09 2 2 0 01.57.26l.21-.49a2 2 0 00-.63-.28 2.76 2.76 0 00-.75-.1 2.21 2.21 0 00-.91.17 1.17 1.17 0 00-.55.44 1.07 1.07 0 00-.18.61 1 1 0 00.21.66 1.3 1.3 0 00.51.35 5 5 0 00.78.23l.59.17a1 1 0 01.36.21.45.45 0 01.14.36.54.54 0 01-.26.48 1.4 1.4 0 01-.79.18 2.35 2.35 0 01-.79-.14 1.83 1.83 0 01-.63-.36l-.22.48a1.86 1.86 0 00.7.39 2.94 2.94 0 00.94.15 2.25 2.25 0 00.91-.16 1.27 1.27 0 00.56-.44 1.12 1.12 0 00.18-.62.93.93 0 00-.21-.64 1.23 1.23 0 00-.5-.33zM615.7 26.04h.59v4.54h-.59zM617.41 26.04h.59v4.54h-.59zM614.07 27.52a1.74 1.74 0 00-.86-.21 1.81 1.81 0 00-.87.21 1.55 1.55 0 00-.6.59 1.61 1.61 0 00-.22.85 1.67 1.67 0 00.22.86 1.59 1.59 0 00.6.58 1.71 1.71 0 00.87.22 1.64 1.64 0 00.86-.22 1.52 1.52 0 00.6-.58 1.67 1.67 0 00.22-.86 1.61 1.61 0 00-.22-.85 1.48 1.48 0 00-.6-.59zm.09 2a1.09 1.09 0 01-1.9 0 1.21 1.21 0 01-.14-.6 1.15 1.15 0 01.14-.59 1 1 0 01.39-.41 1.19 1.19 0 011.12 0 1 1 0 01.39.41 1.25 1.25 0 01.14.59 1.33 1.33 0 01-.14.64zM610.05 0A5.11 5.11 0 00605 5.1v5.09a5.1 5.1 0 0010.2 0V5.1a5.11 5.11 0 00-5.15-5.1zm4.08 10.19a4.08 4.08 0 01-8.16 0V5.1a4.08 4.08 0 018.16 0zM612.57 17.81l-.72-.72-1.8 1.8-1.8-1.8-.72.72 2.52 2.53 2.52-2.53z"/><path class="cls-3" d="M610.05 3.06a2 2 0 102 2 2 2 0 00-2-2zm0 3.06a1 1 0 111-1 1 1 0 01-1 1z"/><path d="M43.31 139.16a33.69 33.69 0 10-33.7-33.69 33.7 33.7 0 0033.7 33.69z" fill-opacity=".1" fill="#eb2227"/><path class="cls-3" d="M56.65 111.31s3.23 2.11 2.3 8.11-2.07 9.94-1.11 17.43A25.34 25.34 0 0140 139.73c2.39-13.06 16.65-28.42 16.65-28.42z"/><path class="cls-2" d="M55.65 120.76A29.76 29.76 0 0075 100.06s-16.6-1.31-23.37 13.44z"/><path class="cls-7" d="M41.16 143.77s-.31-9.41 7.23-13.33 10.41-7.11 10.76-13.67a6.7 6.7 0 00-2.46-5.42l-14.15 3.76z"/><path class="cls-3" d="M66.45 83.85A3.84 3.84 0 1062.61 80a3.84 3.84 0 003.84 3.85z"/><path d="M66.45 84.11a4.1 4.1 0 114.1-4.1 4.11 4.11 0 01-4.1 4.1zm0-7.69A3.59 3.59 0 1070 80a3.59 3.59 0 00-3.55-3.58z"/><path d="M65.87 81.51a.39.39 0 01-.27-.12l-1.11-1.11a.38.38 0 11.54-.54l.84.85 2-2a.38.38 0 01.54.54l-2.27 2.26a.36.36 0 01-.27.12z"/><path class="cls-8" d="M28 101.63c.69-.88 4.11-5.49 3.69-8.64-.66-5-6.85-3.8-6.23 1.15a19.65 19.65 0 002.11 7.15 83.77 83.77 0 00-8.53-6.15c4-4.87 3.61-10.6 1.85-12.1s-5.62-.49-4.85 4.42a20.7 20.7 0 002.65 7.45 75.59 75.59 0 00-8.49-4.57 15.15 15.15 0 00-4.65-6.26C.77 80.16-2.77 87.81 3 89.61a18.94 18.94 0 006.92 1 76.64 76.64 0 018.64 4.65c-1.38-.12-5.56-.26-8.8 1.57-3.88 2.23-2.42 6.26 1.42 6.07s6.38-4.26 7.69-7.41a81.94 81.94 0 018.72 6.3c-1.38 0-7.22.19-9.41 3.65-2.5 3.91 1.23 5.68 4.38 4s4.65-6 5.26-7.49l.2.19a.12.12 0 00.11 0 .25.25 0 00.15-.08.18.18 0 000-.27z"/><path class="cls-7" d="M50.92 85.46s2-4.8 2.88-7.75.31-5.27-2.07-5.27-3.34 3.15-3.34 3.15"/><path d="M50.92 85.85a.32.32 0 01-.14 0 .38.38 0 01-.21-.5s2-4.82 2.87-7.73c.55-1.76.52-3.23-.08-4a1.89 1.89 0 00-1.63-.72c-2.08 0-3 2.85-3 2.88a.38.38 0 11-.73-.23c0-.14 1.07-3.42 3.71-3.42a2.66 2.66 0 012.25 1c.75 1 .82 2.7.19 4.72-.92 2.94-2.88 7.74-2.9 7.79a.38.38 0 01-.33.21z"/><path d="M54.8 112.69L38 117a3.06 3.06 0 01-3.73-2.18L23.4 73a3.06 3.06 0 012.19-3.72l16.84-4.34a3.06 3.06 0 013.73 2.19L57 109a3 3 0 01-2.2 3.69z"/><path d="M37.21 117.51a3.47 3.47 0 01-3.34-2.57L23 73.08a3.45 3.45 0 012.46-4.19l16.83-4.34A3.45 3.45 0 0146.52 67l10.84 41.86a3.39 3.39 0 01-2.46 4.19l-16.83 4.35a3.22 3.22 0 01-.86.11zm6-52.31a2.57 2.57 0 00-.67.09l-16.85 4.34a2.69 2.69 0 00-1.92 3.26l10.84 41.86a2.7 2.7 0 003.27 1.92l16.83-4.34a2.67 2.67 0 001.92-3.27L45.79 67.2a2.7 2.7 0 00-2.6-2z"/><path class="cls-3" d="M54.36 110.82l-16.84 4.34A3 3 0 0133.8 113L23.42 72.88a3.07 3.07 0 012.19-3.73l16.83-4.34A3.07 3.07 0 0146.17 67l10.38 40.1a3 3 0 01-2.19 3.72z"/><path d="M36.77 115.89a3.72 3.72 0 01-3.59-2.75L22.8 73a3.71 3.71 0 012.65-4.5l16.83-4.3a3.71 3.71 0 014.5 2.64l10.38 40.1a3.66 3.66 0 01-2.65 4.5l-16.83 4.34a3.54 3.54 0 01-.91.11zm6.43-50.54a2.47 2.47 0 00-.6.08l-16.83 4.34a2.43 2.43 0 00-1.74 3l10.38 40.1a2.44 2.44 0 003 1.73l16.83-4.34a2.4 2.4 0 001.73-2.95L45.56 67.16a2.45 2.45 0 00-2.36-1.81z"/><path d="M41.28 94.59a4.75 4.75 0 003.33-2.89l1.33-.31a5.9 5.9 0 11-1.2-5.17l-1.33.31a4.72 4.72 0 10-2.13 8.06zm-4-6.65l2.58-.6a2.69 2.69 0 012 .34 2.62 2.62 0 011.18 1.65 2.65 2.65 0 01-2 3.18l-2.59.6zm4.06 3.22a1.37 1.37 0 00.4-.43 1.49 1.49 0 00.23-.85 1.45 1.45 0 00-.28-.83 1.5 1.5 0 00-.7-.54 1.52 1.52 0 00-.87-.06l-1.48.34.68 3 1.48-.35a1.32 1.32 0 00.58-.28z" fill-rule="evenodd" fill="#eb2227"/><path d="M24.13 78.53a.63.63 0 01-.61-.47l-.42-1.66a.63.63 0 01.45-.77.65.65 0 01.78.46l.42 1.65a.63.63 0 01-.46.77.41.41 0 01-.16.02zM25.32 83.14a.63.63 0 01-.61-.48l-.36-1.41c-.13-.47-.25-1-.37-1.44a.63.63 0 011.23-.29l.36 1.4c.13.47.25 1 .37 1.44a.63.63 0 01-.47.76.39.39 0 01-.15.02zM26.75 88.67a.62.62 0 01-.61-.47c-.18-.63-.34-1.27-.51-1.9s-.32-1.27-.49-1.9a.63.63 0 01.44-.78.64.64 0 01.78.45c.17.64.34 1.27.5 1.91s.33 1.26.5 1.89a.64.64 0 01-.45.78zM50.42 81.76a.64.64 0 01-.61-.47c-.17-.64-.34-1.28-.5-1.91s-.33-1.26-.5-1.89a.64.64 0 01.45-.78.65.65 0 01.78.45c.17.63.33 1.26.5 1.9s.32 1.26.49 1.9a.63.63 0 01-.44.78zM38.58 67.76l-8.18 2.11a1.36 1.36 0 01-1.65-1l-.08-.27a.15.15 0 01.11-.19l10.5-2.72a.14.14 0 01.19.11l.08.27a1.34 1.34 0 01-.97 1.69z"/><path d="M30.07 70.3a1.76 1.76 0 01-1.69-1.3l-.07-.24a.49.49 0 01.05-.45.5.5 0 01.36-.24l10.44-2.72a.5.5 0 01.44.06.5.5 0 01.24.35l.07.23a1.84 1.84 0 01-.21 1.44 1.57 1.57 0 01-1 .73l-8.18 2.11a1.52 1.52 0 01-.45.03zm-1-1.58a1 1 0 001.19.73l8.19-2.11a.9.9 0 00.55-.39 1.11 1.11 0 00.12-.84zm-.32.07zM39.45 66zm-.36-.23z"/><path class="cls-3" d="M39.12 147.07s-1.92-13.56-5.3-17.67a17.66 17.66 0 01-6.27-6 15 15 0 01-1.84-11.79c1-4.23 1.11-4.88 1.5-6.69s.31-3.11 3.38-5.1a58.5 58.5 0 016.15-3.5c1.5-.84 2.73-.11 3.34 2s-.61 4.53-4.95 7.26l-.35 6.07s6.92 1.3 9.42 11.67M31.78 68.73a.13.13 0 010-.25l5-1.3a.12.12 0 01.15.09.12.12 0 01-.09.15l-5 1.31zM43.54 114.32a.13.13 0 01-.12-.1.12.12 0 01.09-.15l5-1.27a.13.13 0 01.15.09.13.13 0 01-.09.16l-5 1.27z"/><path class="cls-7" d="M46.08 122a17.53 17.53 0 00-3.23-6.69 11.18 11.18 0 00-6-4l.34-5.57c4.27-2.5 5.42-4.72 4.84-6.64s-1.8-2.58-3.26-1.81a64.78 64.78 0 00-6 3.23c-3 1.84-3 3-3.3 4.68s-.47 2.27-1.47 6.15a12.81 12.81 0 001.8 10.79 16.6 16.6 0 006.11 5.46c3.31 3.76 5.19 16.17 5.19 16.17s-.31-9.41 7.23-13.33M57.88 96.33a14.46 14.46 0 00-5 7.19c-1.3 4.57 4.38 5.91 5.38 2.84S61.38 102 62 100.1s2-7.42-8.68-5.61l1.26 5"/><path d="M55.8 108.39a3.63 3.63 0 01-1-.15c-1.68-.52-3-2.21-2.28-4.83a13.34 13.34 0 011.74-3.72.22.22 0 010-.11l-1.27-5a.36.36 0 01.05-.3.39.39 0 01.25-.17c4.38-.74 7.29-.33 8.65 1.22s.71 4.08.47 4.88a8.22 8.22 0 01-1.53 2.49 11.78 11.78 0 00-2.2 3.78 2.8 2.8 0 01-2.88 1.91zM57.88 96a.38.38 0 01.31.16.39.39 0 01-.09.54 14.09 14.09 0 00-4.89 7c-.65 2.27.55 3.51 1.77 3.89a2.2 2.2 0 002.88-1.27 12.62 12.62 0 012.33-4 7.62 7.62 0 001.4-2.24c.21-.7.86-2.82-.31-4.16s-3.67-1.64-7.54-1l1 4.1A14.45 14.45 0 0157.66 96a.44.44 0 01.22 0z"/><path class="cls-7" d="M59 89.54c0-2.19-1.65-3.38-3.76-3.38s-5.27 1.76-4.46 5.33c.8 4.08 8.22 3.42 8.22-1.95z"/><path d="M54.33 94.51a3.83 3.83 0 01-4-2.94 4.42 4.42 0 01.79-3.88 5.35 5.35 0 014-1.91c2.48 0 4.14 1.51 4.14 3.76a4.79 4.79 0 01-4.44 4.94zm.86-8a4.65 4.65 0 00-3.45 1.62 3.66 3.66 0 00-.64 3.25 3.22 3.22 0 003.71 2.31 4 4 0 003.76-4.18c0-1.8-1.33-2.97-3.38-2.97zM39 147.1a.38.38 0 01-.37-.33c0-.13-1.84-13-5.09-17.07a18 18 0 01-6.34-6.06 15.26 15.26 0 01-1.89-12.07c.83-3.51 1.05-4.53 1.32-5.84l.18-.83c0-.16.05-.31.08-.47.28-1.6.53-3 3.46-4.88a48 48 0 015.12-3l1.09-.55a2.4 2.4 0 012.1-.25 3.51 3.51 0 011.79 2.43c.73 2.47-.94 5-5 7.59l-.31 5.55c1.44.41 7.14 2.56 9.39 11.88a.38.38 0 01-.28.46.37.37 0 01-.46-.28c-2.41-10-9-11.38-9.12-11.39a.37.37 0 01-.31-.39l.35-6.07a.35.35 0 01.17-.3c3.82-2.4 5.43-4.7 4.8-6.83a2.81 2.81 0 00-1.34-1.94 1.66 1.66 0 00-1.45.2l-1.08.56a48 48 0 00-5.05 2.93c-2.66 1.72-2.86 2.84-3.13 4.37l-.09.49-.18.84c-.27 1.31-.49 2.34-1.32 5.86a14.58 14.58 0 001.8 11.51 17.48 17.48 0 006.11 5.8.4.4 0 01.12.1c3.41 4.14 5.23 17 5.3 17.5a.38.38 0 01-.32.43zM57.84 137.23a.39.39 0 01-.38-.33 43.25 43.25 0 01.62-14.55c.17-1 .34-1.94.5-3 .87-5.65-2-7.65-2.14-7.73a.39.39 0 01-.11-.53.39.39 0 01.53-.11c.14.1 3.42 2.32 2.47 8.48-.16 1.06-.33 2-.49 3a42.2 42.2 0 00-.62 14.32.39.39 0 01-.33.43zM59.34 144.11a.38.38 0 01-.37-.28c-.61-2.1-1.11-4.34-1.12-4.36a.38.38 0 01.75-.17s.5 2.24 1.1 4.32a.37.37 0 01-.26.47zM3.73 78.61a.26.26 0 01-.26-.25v-.19a.26.26 0 01.26-.26.26.26 0 01.25.26v.19a.25.25 0 01-.25.25zM3.73 94a.26.26 0 01-.26-.25v-.21a.23.23 0 000-.26V93a.23.23 0 000-.26v-.24a.33.33 0 010-.14.28.28 0 010-.13V92a.25.25 0 010-.13.33.33 0 010-.14v-.26a.28.28 0 010-.13.33.33 0 010-.13v-.27a.23.23 0 000-.26v-.27a.33.33 0 010-.13.28.28 0 010-.13v-.26a.33.33 0 010-.14.25.25 0 010-.13v-.26a.25.25 0 010-.13.33.33 0 010-.14v-.29a.23.23 0 000-.26v-.27a.23.23 0 000-.26v-.26a.33.33 0 010-.14.28.28 0 010-.13v-.26a.25.25 0 010-.13.33.33 0 010-.14v-.26a.28.28 0 010-.13.33.33 0 010-.13v-.27a.23.23 0 000-.26v-.27a.33.33 0 010-.13.28.28 0 010-.13v-.26a.33.33 0 010-.14.25.25 0 010-.13v-.26a.28.28 0 010-.13.33.33 0 010-.14v-.26a.23.23 0 000-.26v-.27a.23.23 0 000-.26V83a.33.33 0 010-.14.28.28 0 010-.13v-.26a.25.25 0 010-.13.33.33 0 010-.14v-.26a.28.28 0 010-.13.33.33 0 010-.13v-.27a.23.23 0 000-.26v-.27a.33.33 0 010-.13.28.28 0 010-.13v-.26a.26.26 0 01.26-.26.26.26 0 01.25.26v.26a.2.2 0 010 .13.22.22 0 010 .13v.27a.23.23 0 000 .26v.27a.22.22 0 010 .13.2.2 0 010 .13v.26a.23.23 0 010 .14.18.18 0 010 .13v.26a.2.2 0 010 .13A.23.23 0 014 83v.26a.23.23 0 000 .26v.27a.23.23 0 000 .26v.26a.23.23 0 010 .14.2.2 0 010 .13v.26a.18.18 0 010 .13.23.23 0 010 .14v.26a.2.2 0 010 .13.22.22 0 010 .13v.27a.23.23 0 000 .26v.27a.22.22 0 010 .13.2.2 0 010 .13V87a.23.23 0 010 .14.18.18 0 010 .13v.26a.2.2 0 010 .13.23.23 0 010 .14v.2a.23.23 0 000 .26v.27a.23.23 0 000 .26v.26a.23.23 0 010 .14.18.18 0 010 .13v.26a.18.18 0 010 .13.23.23 0 010 .14v.26a.2.2 0 010 .13.22.22 0 010 .13v.27a.23.23 0 000 .26v.27a.22.22 0 010 .13.2.2 0 010 .13v.26a.23.23 0 010 .14.18.18 0 010 .17v.26a.2.2 0 010 .13.23.23 0 010 .14v.26A.23.23 0 004 93v.27a.23.23 0 000 .26v.21a.25.25 0 01-.27.26zM3.73 95.2a.26.26 0 01-.26-.2v-.19a.26.26 0 01.26-.25.25.25 0 01.25.25V95a.25.25 0 01-.25.2zM5.92 78.61a.26.26 0 01-.26-.25v-.19a.26.26 0 01.26-.26.26.26 0 01.25.26v.19a.25.25 0 01-.25.25zM5.92 94a.26.26 0 01-.26-.25v-.21a.23.23 0 000-.26V93a.23.23 0 000-.26v-.24a.33.33 0 010-.14.28.28 0 010-.13V92a.25.25 0 010-.13.33.33 0 010-.14v-.26a.28.28 0 010-.13.33.33 0 010-.13v-.27a.23.23 0 000-.26v-.27a.33.33 0 010-.13.28.28 0 010-.13v-.26a.33.33 0 010-.14.25.25 0 010-.13v-.26a.25.25 0 010-.13.33.33 0 010-.14v-.29a.23.23 0 000-.26v-.27a.23.23 0 000-.26v-.26a.33.33 0 010-.14.28.28 0 010-.13v-.26a.25.25 0 010-.13.33.33 0 010-.14v-.26a.28.28 0 010-.13.33.33 0 010-.13v-.27a.23.23 0 000-.26v-.27a.33.33 0 010-.13.28.28 0 010-.13v-.26a.33.33 0 010-.14.25.25 0 010-.13v-.26a.28.28 0 010-.13.33.33 0 010-.14v-.26a.23.23 0 000-.26v-.27a.23.23 0 000-.26V83a.33.33 0 010-.14.28.28 0 010-.13v-.26a.25.25 0 010-.13.33.33 0 010-.14v-.26a.28.28 0 010-.13.33.33 0 010-.13v-.27a.23.23 0 000-.26v-.27a.33.33 0 010-.13.28.28 0 010-.13v-.26a.26.26 0 01.26-.26.26.26 0 01.25.26v.26a.2.2 0 010 .13.22.22 0 010 .13v.27a.23.23 0 000 .26v.27a.22.22 0 010 .13.2.2 0 010 .13v.26a.23.23 0 010 .14.18.18 0 010 .13v.26a.2.2 0 010 .13.23.23 0 010 .14v.26a.23.23 0 000 .26v.27a.23.23 0 000 .26v.26a.23.23 0 010 .14.2.2 0 010 .13v.26a.18.18 0 010 .13.23.23 0 010 .14v.26a.2.2 0 010 .13.22.22 0 010 .13v.27a.23.23 0 000 .26v.27a.22.22 0 010 .13.2.2 0 010 .13V87a.23.23 0 010 .14.18.18 0 010 .13v.26a.2.2 0 010 .13.23.23 0 010 .14v.2a.23.23 0 000 .26v.27a.23.23 0 000 .26v.26a.23.23 0 010 .14.18.18 0 010 .13v.26a.18.18 0 010 .13.23.23 0 010 .14v.26a.2.2 0 010 .13.22.22 0 010 .13v.27a.23.23 0 000 .26v.27a.22.22 0 010 .13.2.2 0 010 .13v.26a.23.23 0 010 .14.18.18 0 010 .13v.26a.2.2 0 010 .13.23.23 0 010 .14v.26a.23.23 0 000 .26v.27a.23.23 0 000 .26v.21a.25.25 0 01-.25.25zM5.92 95.2a.26.26 0 01-.26-.2v-.19a.26.26 0 01.26-.25.25.25 0 01.25.25V95a.25.25 0 01-.25.2zM6.72 132a.33.33 0 01-.13 0 .25.25 0 01-.08-.35l4.61-7.65a.26.26 0 01.35-.09.25.25 0 01.08.35l-4.61 7.68a.26.26 0 01-.22.06z"/><path class="cls-8" d="M76.25 128.63l4.27-2.3.49 3.22z"/><path class="cls-10" d="M121 95.7l.45-2.85h-2.7v-2c0-.8.28-1.42 1.52-1.42h1.29v-2.61a15.6 15.6 0 00-2.25-.23 3.7 3.7 0 00-3.95 4v2.27h-2.53v2.84h2.53v7.22a8.54 8.54 0 003.39 0V95.7z"/><path class="cls-5" d="M110.62 109.75h-3.44v-6.3a.36.36 0 00-.36-.36h-1.26a.35.35 0 00-.35.36v7.93a.34.34 0 00.09.24.33.33 0 00.25.1h5.06a.35.35 0 00.35-.35v-1.27a.35.35 0 00-.34-.35zm1.31-6.3a.35.35 0 01.34-.36h1.23a.36.36 0 01.35.36v7.93a.35.35 0 01-.35.35h-1.23a.35.35 0 01-.34-.35zm8.9-.36h1.3a.36.36 0 01.36.36v7.93a.36.36 0 01-.36.35h-1.51a.38.38 0 01-.09-.09l-3.7-4.91v4.71a.36.36 0 01-.36.35h-1.3a.36.36 0 01-.36-.35v-7.93a.36.36 0 01.36-.36h1.54l3.7 4.91v-4.71a.36.36 0 01.42-.26zm8.38 1.63a.36.36 0 01-.35.36h-3.44v1.34h3.44a.35.35 0 01.35.35v1.28a.36.36 0 01-.35.36h-3.44v1.34h3.44a.35.35 0 01.35.35v1.28a.35.35 0 01-.35.35h-5.06a.37.37 0 01-.25-.1.34.34 0 01-.09-.24v-7.93a.37.37 0 01.09-.25.37.37 0 01.25-.1h5.06a.36.36 0 01.35.36z"/><path class="cls-10" d="M123.88 122.05a9.53 9.53 0 01-2.94-.47.82.82 0 00-.84.2l-1.31 1.64a12.6 12.6 0 01-5.74-5.69l1.62-1.38a.84.84 0 00.2-.85 9.28 9.28 0 01-.46-2.94.84.84 0 00-.83-.83h-2.88c-.45 0-1 .2-1 .83a14.29 14.29 0 0014.17 14.17.88.88 0 00.83-1v-2.88a.83.83 0 00-.82-.8z"/><path class="cls-10" d="M117.21 126.73c-2.77 0-3.11 0-4.2.06a7.54 7.54 0 00-2.47.48 5.11 5.11 0 00-1.81 1.17 5.16 5.16 0 00-1.17 1.8 7.58 7.58 0 00-.47 2.48c0 1.08-.06 1.43-.06 4.19s0 3.12.06 4.2a7.45 7.45 0 00.47 2.47 5.13 5.13 0 003 3 7.21 7.21 0 002.44.42c1.08.05 1.43.07 4.2.07s3.11 0 4.19-.07a7.32 7.32 0 002.48-.47 5.15 5.15 0 003-3 7.43 7.43 0 00.48-2.47c0-1.08.06-1.43.06-4.2s0-3.11-.06-4.19a7.43 7.43 0 00-.48-2.47 5.11 5.11 0 00-1.17-1.81 4.94 4.94 0 00-1.8-1.17 7.55 7.55 0 00-2.48-.48c-1.08-.05-1.43-.06-4.2-.06zm-.92 1.84h.92c2.72 0 3 0 4.11.06a5.51 5.51 0 011.89.35 3.36 3.36 0 011.93 1.93 5.51 5.51 0 01.35 1.89c.05 1.07.06 1.39.06 4.11s0 3-.06 4.12a5.51 5.51 0 01-.35 1.89 3 3 0 01-.76 1.16 3.1 3.1 0 01-1.17.77 5.77 5.77 0 01-1.89.35c-1.07.05-1.39.06-4.11.06s-3 0-4.12-.06a5.77 5.77 0 01-1.89-.35 3.27 3.27 0 01-1.17-.77 3.08 3.08 0 01-.76-1.17 5.4 5.4 0 01-.35-1.89c0-1.07-.06-1.39-.06-4.11s0-3 .06-4.11a5.45 5.45 0 01.35-1.89 3.08 3.08 0 01.76-1.17 3.27 3.27 0 011.17-.77 5.77 5.77 0 011.89-.35c.94 0 1.31-.05 3.2-.05zm6.35 1.69a1.22 1.22 0 101.22 1.22 1.22 1.22 0 00-1.22-1.22zm-5.43 1.43a5.23 5.23 0 105.23 5.22 5.23 5.23 0 00-5.23-5.22zm0 1.83a3.4 3.4 0 11-3.4 3.39 3.39 3.39 0 013.4-3.39z"/><path d="M133.38 68.53H95.49a4.71 4.71 0 00-.74.06 2.24 2.24 0 00-.7.24 2.28 2.28 0 00-.6.43 2.53 2.53 0 00-.43.6 2.5 2.5 0 00-.23.7 6.17 6.17 0 00-.07.74v9.21a6 6 0 00.07.74A2.46 2.46 0 0093 82a2.29 2.29 0 00.43.59 2.32 2.32 0 00.6.44 2.5 2.5 0 00.7.23 6.37 6.37 0 00.74.07h38.63a6.17 6.17 0 00.74-.07 2.5 2.5 0 00.7-.23 2.32 2.32 0 00.6-.44 2.34 2.34 0 00.66-1.3 4.53 4.53 0 00.07-.74v-.34-8.16-.74a4.63 4.63 0 00-.07-.74 2.22 2.22 0 00-.23-.7 2.35 2.35 0 00-1-1 2.87 2.87 0 00-.7-.23 4.62 4.62 0 00-.74-.06h-.74z" fill="#a6a6a6"/><path d="M95.84 83h-.34a4 4 0 01-.69-.06 1.9 1.9 0 01-.61-.2 2.14 2.14 0 01-.52-.37 2.13 2.13 0 01-.57-1.13 4 4 0 01-.06-.69v-8.9-.33a4 4 0 01.06-.69 1.9 1.9 0 01.2-.61 1.76 1.76 0 01.37-.52 2.05 2.05 0 011.13-.58 4 4 0 01.69-.06h38.61a4 4 0 01.69.06 2.8 2.8 0 01.62.2 2.09 2.09 0 01.89.9 2.43 2.43 0 01.2.61q0 .34.06.69v9.2c0 .23 0 .46-.06.68a2.5 2.5 0 01-.2.62 2.12 2.12 0 01-.38.51 1.79 1.79 0 01-.52.38 1.9 1.9 0 01-.61.2 4 4 0 01-.69.06H95.84z"/><path class="cls-3" d="M101.86 76a1.93 1.93 0 01.24-.88 1.9 1.9 0 01.63-.66 2.06 2.06 0 00-.64-.57 1.87 1.87 0 00-.83-.22c-.62-.07-1.22.37-1.54.37s-.81-.37-1.33-.35a1.91 1.91 0 00-1 .28 2 2 0 00-.69.72c-.72 1.24-.18 3.06.5 4 .34.49.74 1 1.27 1s.7-.33 1.32-.33.79.33 1.32.32.9-.49 1.23-1a4.32 4.32 0 00.56-1.14 1.79 1.79 0 01-1.04-1.54zM100.85 73a1.78 1.78 0 00.41-1.29 1.86 1.86 0 00-1.18.61 1.68 1.68 0 00-.33.58 1.54 1.54 0 00-.09.67 1.52 1.52 0 00.66-.15 1.46 1.46 0 00.53-.42zM108.33 78.55h-1.74l-.42 1.24h-.74l1.65-4.58h.77l1.66 4.58h-.76zm-1.56-.55h1.38l-.68-2zM113.08 78.12c0 1-.55 1.71-1.39 1.71a1.15 1.15 0 01-.61-.14 1.21 1.21 0 01-.45-.45v1.66h-.69v-4.45h.67V77a1.27 1.27 0 01.45-.44 1.31 1.31 0 01.61-.15c.85 0 1.41.67 1.41 1.71zm-.7 0c0-.68-.35-1.12-.89-1.12s-.87.45-.87 1.12.35 1.12.87 1.12.89-.44.89-1.12zM116.76 78.12c0 1-.56 1.71-1.39 1.71a1.15 1.15 0 01-.61-.14 1.21 1.21 0 01-.45-.45v1.66h-.69v-4.45h.67V77a1.27 1.27 0 01.45-.44 1.31 1.31 0 01.61-.15c.85 0 1.41.67 1.41 1.71zm-.7 0c0-.68-.35-1.12-.89-1.12s-.87.45-.87 1.12.35 1.12.87 1.12.89-.44.89-1.12zM119.19 78.51c0 .46.49.76 1.1.76s1-.3 1-.71-.25-.57-.84-.72l-.6-.14c-.84-.2-1.23-.6-1.23-1.24s.69-1.33 1.67-1.33 1.63.54 1.65 1.33h-.69c0-.45-.42-.73-1-.73s-.93.28-.93.69.24.51.83.66l.51.12c.94.22 1.33.6 1.33 1.27 0 .86-.69 1.4-1.77 1.4s-1.71-.53-1.75-1.36zM123.49 75.66v.79h.63V77h-.63v1.85c0 .28.12.41.4.41h.23v.54a2.43 2.43 0 01-.38 0c-.68 0-.94-.25-.94-.9V77h-.49v-.54h.49v-.79zM124.49 78.12a1.59 1.59 0 111.59 1.71 1.54 1.54 0 01-1.59-1.71zm2.47 0c0-.72-.33-1.15-.88-1.15s-.89.43-.89 1.15.33 1.15.89 1.15.88-.43.88-1.15zM128.23 76.45h.65V77a.81.81 0 01.29-.45.86.86 0 01.51-.16 1 1 0 01.24 0v.64a1.1 1.1 0 00-.31 0 .71.71 0 00-.29 0 .85.85 0 00-.25.17 1 1 0 00-.15.25.77.77 0 000 .3v2h-.68zM133.1 78.81a1.33 1.33 0 01-1.44 1 1.52 1.52 0 01-1.57-1.69 1.54 1.54 0 011.54-1.73 1.47 1.47 0 011.51 1.65v.23h-2.36a.92.92 0 000 .37 1 1 0 00.22.36 1 1 0 00.31.21 1 1 0 00.36.06.69.69 0 00.46-.11.73.73 0 00.31-.36zm-2.32-1h1.67a.7.7 0 000-.32.88.88 0 00-.17-.28A1 1 0 00132 77a1 1 0 00-.33-.06.71.71 0 00-.32.07.78.78 0 00-.46.46.71.71 0 00-.07.32zM106.68 71.76a1 1 0 01.42.06.88.88 0 01.36.24 1.17 1.17 0 01-.78 1.9h-.79v-2.2zm-.45 1.89h.41a.81.81 0 00.31-.05.72.72 0 00.25-.18.66.66 0 00.17-.56.65.65 0 000-.31.76.76 0 00-.15-.26.62.62 0 00-.25-.17.6.6 0 00-.3-.05h-.41zM108.11 73.13a.74.74 0 010-.33.81.81 0 01.17-.28.83.83 0 01.26-.19.77.77 0 01.64 0 .83.83 0 01.26.19.81.81 0 01.17.28.93.93 0 010 .33.85.85 0 010 .32.73.73 0 01-.17.28.7.7 0 01-.26.19.77.77 0 01-.64 0 .7.7 0 01-.26-.19.73.73 0 01-.17-.28.69.69 0 010-.32zm1.23 0c0-.36-.17-.57-.45-.57s-.45.21-.45.57.16.57.45.57.45-.21.45-.57zM111.76 74h-.34l-.35-1.23-.36 1.23h-.34l-.46-1.66h.33l.3 1.27.34-1.27h.31l.34 1.27.3-1.27h.32zM112.6 72.3h.32v.26a.55.55 0 01.2-.23.6.6 0 01.3-.07.59.59 0 01.23 0 .48.48 0 01.2.14.41.41 0 01.12.2.49.49 0 010 .24V74h-.33v-1c0-.27-.11-.4-.36-.4a.3.3 0 00-.16 0 .38.38 0 00-.13.09.29.29 0 00-.08.14.33.33 0 000 .17v1h-.33zM114.53 71.65h.33V74h-.33zM115.32 73.13a.93.93 0 010-.33 1 1 0 01.17-.28.83.83 0 01.26-.19.77.77 0 01.64 0 .83.83 0 01.26.19.81.81 0 01.17.28.93.93 0 010 .33.85.85 0 010 .32.71.71 0 01-.16.28.83.83 0 01-.27.19.77.77 0 01-.64 0 .7.7 0 01-.26-.19.73.73 0 01-.17-.28.85.85 0 010-.32zm1.23 0c0-.36-.16-.57-.45-.57s-.44.21-.44.57.16.57.44.57.45-.21.45-.57zM117.23 73.49c0-.3.22-.47.62-.5h.45v-.15c0-.17-.12-.27-.34-.27a.34.34 0 00-.35.18h-.31c0-.28.3-.47.67-.47s.66.21.66.56V74h-.32v-.23a.57.57 0 01-.22.19.58.58 0 01-.28.07.51.51 0 01-.21 0 .4.4 0 01-.18-.1.41.41 0 01-.12-.17.46.46 0 01-.07-.27zm1.07-.14v-.14h-.41q-.33 0-.33.24c0 .15.13.24.31.24a.31.31 0 00.16 0 .33.33 0 00.13-.07.38.38 0 00.1-.12.42.42 0 00.04-.15zM119.06 73.13c0-.53.27-.86.69-.86a.53.53 0 01.3.07.56.56 0 01.21.22v-.91h.33V74h-.31v-.3a.56.56 0 01-.22.21.54.54 0 01-.3.08c-.43.01-.7-.34-.7-.86zm.34 0c0 .35.16.56.44.56s.45-.21.45-.56-.17-.57-.45-.57-.44.22-.44.57zM122 73.13a.93.93 0 010-.33 1 1 0 01.17-.28.83.83 0 01.26-.19.77.77 0 01.64 0 .83.83 0 01.26.19.81.81 0 01.17.28.93.93 0 010 .33.85.85 0 010 .32.71.71 0 01-.16.28.83.83 0 01-.27.19.77.77 0 01-.64 0 .7.7 0 01-.26-.19.73.73 0 01-.17-.28.85.85 0 010-.32zm1.23 0c0-.36-.16-.57-.45-.57s-.44.21-.44.57.16.57.44.57.42-.21.42-.57zM124 72.3h.31v.26a.55.55 0 01.2-.23.59.59 0 01.29-.07.67.67 0 01.24 0 .56.56 0 01.2.14.51.51 0 01.12.2.65.65 0 010 .24V74h-.33v-1c0-.27-.12-.4-.36-.4a.3.3 0 00-.16 0 .3.3 0 00-.13.09.42.42 0 00-.09.14.5.5 0 000 .17v1H124zM127.24 71.88v.42h.36v.28h-.36v.86c0 .17.07.25.24.25h.12V74h-.18c-.36 0-.51-.13-.51-.45v-.94h-.26v-.31h.26v-.42zM128.05 71.65h.33v.91a.58.58 0 01.21-.23.51.51 0 01.3-.06.45.45 0 01.23 0 .46.46 0 01.2.13.55.55 0 01.12.21.63.63 0 010 .24V74h-.33v-1c0-.27-.12-.4-.35-.4a.32.32 0 00-.17 0 .39.39 0 00-.23.23.33.33 0 000 .17v1h-.33zM131.39 73.51a.67.67 0 01-.27.37.65.65 0 01-.45.11.91.91 0 01-.32-.06.7.7 0 01-.26-.19.78.78 0 01-.16-.28.74.74 0 010-.33.69.69 0 010-.32.76.76 0 01.42-.48.88.88 0 01.32-.07c.46 0 .74.32.74.84v.12h-1.17a.37.37 0 000 .18.36.36 0 00.1.15.49.49 0 00.14.11.57.57 0 00.18 0 .37.37 0 00.23 0 .37.37 0 00.17-.16zm-1.15-.51h.84a.44.44 0 000-.16.42.42 0 00-.09-.14.71.71 0 00-.14-.1.41.41 0 00-.16 0 .35.35 0 00-.17 0 .39.39 0 00-.23.23.45.45 0 000 .16z"/><path d="M184.89 83.3h-46.15a1.84 1.84 0 01-1.84-1.85V70.38a1.84 1.84 0 011.84-1.85h46.15a1.85 1.85 0 011.85 1.85v11.07a1.85 1.85 0 01-1.85 1.85z" fill-rule="evenodd"/><path d="M184.89 68.83a1.56 1.56 0 011.55 1.55v11.07a1.55 1.55 0 01-1.13 1.55h-46.15c-1.27 0-2-.69-2-1.55V70.38a1.55 1.55 0 011.55-1.55zm0-.3h-46.15a1.85 1.85 0 00-1.84 1.85v11.07a1.84 1.84 0 001.84 1.85h46.15a1.85 1.85 0 001.85-1.85V70.38a1.86 1.86 0 00-1.85-1.85z" fill="#a6a6a6" fill-rule="evenodd"/><path class="cls-3" d="M163.15 73.42a1.11 1.11 0 01-.83-.35 1.16 1.16 0 01-.34-.85 1.12 1.12 0 01.34-.84 1.11 1.11 0 01.83-.35 1.15 1.15 0 01.84.35 1.19 1.19 0 01.33.84 1.16 1.16 0 01-.33.85 1.15 1.15 0 01-.84.35zm-9.9 0a1.2 1.2 0 110-2.39 1.1 1.1 0 01.47.1.92.92 0 01.35.26l-.25.25a.7.7 0 00-.58-.25.81.81 0 00-.57.23.84.84 0 00-.24.62.82.82 0 00.24.61.85.85 0 001.16 0 .59.59 0 00.17-.39h-.79v-.34h1.14a1.11 1.11 0 010 .17 1 1 0 01-.29.77 1.11 1.11 0 01-.81.36zm13.17 0h-.36L165 71.64v1.73h-.35v-2.29h.4l1 1.63v-1.63h.36zm-5.91 0h-.35v-2h-.62v-.34h1.59v.34h-.62v2zm-1.26 0h-.35v-2.34h.35zm-2 0h-.36v-2h-.62v-.34h1.59v.34h-.61zm-1.2 0h-1.35v-2.34h1.36v.34h-1v.63h.94v.34h-.91V73h1zm6.52-.54a.78.78 0 00.57.24.75.75 0 00.58-.24.91.91 0 000-1.21.8.8 0 00-.58-.24.71.71 0 00-.57.24.88.88 0 000 1.21z"/><path d="M162 76.56a1.58 1.58 0 101.56 1.58 1.54 1.54 0 00-1.56-1.58zm0 2.52a1 1 0 11.88-1 .91.91 0 01-.88 1zm-3.43-2.52a1.58 1.58 0 101.57 1.58 1.55 1.55 0 00-1.62-1.58zm0 2.52a1 1 0 11.88-1 .91.91 0 01-.93 1zm-4.07-2v.67h1.5a1.42 1.42 0 01-.36.84 1.63 1.63 0 01-1.23.48 1.77 1.77 0 010-3.54 1.68 1.68 0 011.2.48l.47-.48a2.31 2.31 0 00-1.66-.67 2.44 2.44 0 100 4.87 2.16 2.16 0 002.27-2.24 1.73 1.73 0 000-.41zm16.66.52a1.46 1.46 0 00-1.34-1 1.49 1.49 0 00-1.48 1.57 1.54 1.54 0 001.56 1.57 1.57 1.57 0 001.3-.69l-.53-.36a.89.89 0 01-.77.43.8.8 0 01-.76-.47l2.09-.87zm-2.13.53a.86.86 0 01.81-.92.6.6 0 01.58.33zm-1.7 1.52h.67V75h-.68zm-1.13-2.7a1.07 1.07 0 00-.82-.35 1.57 1.57 0 000 3.14 1.06 1.06 0 00.82-.36v.23c0 .6-.32.92-.83.92a.86.86 0 01-.79-.56l-.6.25a1.49 1.49 0 001.39.93 1.43 1.43 0 001.48-1.64v-2.86h-.65v.26zm-.79 2.17a.89.89 0 01-.87-.94.91.91 0 01.87-1 .88.88 0 01.83 1 .86.86 0 01-.88.9zm9-4.09h-1.64v4.62h.69v-1.79h1a1.44 1.44 0 100-2.87zm0 2.23h-1v-1.63h1a.8.8 0 110 1.59zm4.25-.66a1.3 1.3 0 00-1.23.7l.61.26a.64.64 0 01.62-.34.67.67 0 01.73.59 1.59 1.59 0 00-.72-.18c-.66 0-1.32.36-1.32 1a1.07 1.07 0 001.14 1 1 1 0 00.87-.45v.35h.64v-1.69a1.26 1.26 0 00-1.41-1.28zm-.09 2.52c-.23 0-.54-.11-.54-.39s.39-.49.73-.49a1.18 1.18 0 01.62.15.82.82 0 01-.88.69zm3.89-2.43l-.79 2-.82-2H180l1.23 2.8-.7 1.56h.72l1.88-4.36zm-6.18 3h.69V75h-.69z" fill-rule="evenodd" fill="#fff"/><path d="M140.73 71.31a.82.82 0 00-.17.53V80a.74.74 0 00.18.52l4.58-4.52v-.11l-4.56-4.57z" fill="url(#linear-gradient)" fill-rule="evenodd"/><path d="M146.83 77.5l-1.51-1.5v-.11l1.51-1.52 1.79 1a.56.56 0 010 1.07l-1.79 1z" fill="url(#linear-gradient-2)" fill-rule="evenodd"/><path d="M146.87 77.48l-1.55-1.56-4.59 4.6a.6.6 0 00.77 0z" fill="url(#linear-gradient-3)" fill-rule="evenodd"/><path d="M146.87 74.36l-5.37-3.07a.6.6 0 00-.77 0l4.59 4.6z" fill="url(#linear-gradient-4)" fill-rule="evenodd"/><path d="M146.83 77.44l-5.33 3a.61.61 0 01-.74 0 .61.61 0 00.74 0l5.37-3.06z" style="isolation:isolate" opacity=".2" fill-rule="evenodd"/><path d="M148.66 76.4l-1.83 1 1.8-1a.64.64 0 00.38-.53.65.65 0 01-.35.53z" style="isolation:isolate" opacity=".12" fill-rule="evenodd"/><path d="M141.5 71.35l7.16 4.09a.66.66 0 01.39.48.65.65 0 00-.39-.54l-7.16-4.09c-.52-.29-.94 0-.94.55 0-.54.44-.78.94-.49z" style="isolation:isolate" opacity=".25" fill-rule="evenodd" fill="#fff"/><circle cx="591.79" cy="10" r="10" fill="#10b111"/><path d="M601.79 10a10 10 0 01-10 10v-3.27l6.37-7.41-6.37-6.05 5.71 2.3" opacity=".13"/><path class="cls-3" d="M591.79 3.27c-3.9 0-7.17 2.5-7.17 5.75 0 2.91 2.59 5.23 6 5.68.09 0 .19.09.25.12s0 .22-.06.34-.14.48-.14.56a1 1 0 00.15.67.81.81 0 00.54.3 1.39 1.39 0 00.59-.12 17.35 17.35 0 002.47-1.47 17.24 17.24 0 003-2.47A5.25 5.25 0 00599 9.07c0-3.25-3.31-5.8-7.21-5.8zm-3.14 7.84h-1.34a.91.91 0 01-.67-.67V7.75a.45.45 0 11.89 0v2.47h1.12a.45.45 0 110 .89zm1.57-.67a.45.45 0 01-.45.45.45.45 0 01-.45-.45V7.75a.46.46 0 01.45-.45.45.45 0 01.45.45zm3.14 0a.45.45 0 01-.82.26l-1-1.55v1.29a.45.45 0 01-.45.45.45.45 0 01-.45-.45V7.75c0-.27.33-.44.55-.45a.37.37 0 01.32.19l.92 1.61V7.75a.45.45 0 01.9 0v2.69zm2.46-1.57a.45.45 0 010 .9h-1.12v.45h1.12a.45.45 0 110 .89h-1.34a.93.93 0 01-.68-.67V7.75c0-.25.43-.22.68-.22h1.34a.45.45 0 110 .89h-1.12v.45z"/><path d="M587.2 20.34l4.59 4.58 4.59-4.58 1.41 1.41-6 6-6-6z" fill="#7f7f7f"/></svg>