<svg id="Layer_1" data-name="Layer 1" xmlns="http://www.w3.org/2000/svg" viewBox="0 0 60 48"><defs><style>.cls-1{fill-rule:evenodd;}.cls-2{fill:none;}</style></defs><path class="cls-1" d="M30,40.79c16.57,0,30-7.52,30-16.79S46.57,7.21,30,7.21,0,14.73,0,24,13.43,40.79,30,40.79Zm.5-24.22c-.59-1.89-4.75-2.39-10.21-1.61-2.62.39-4.87.91-6.48,1.28s-2.74.63-2.65.33c.16-.58,7.21-4.79,19-4.79s24,5.48,24,12.42c0,3.88-4.68,7.2-5.07,7.2s-8.68-3.31-8.68-5.18c0-.54.73-.89,1.76-1.4.52-.25,1.11-.54,1.73-.91,1.85-1.11,3.88-2.54,3.88-4.4s-1.92-4.44-6.91-4.44-7.28,1.87-11,6.86c-1.19,1.59-2.6,3.52-4,5.41-2.95,4-5.77,7.89-6,7.91s-1.11-.26-1.18-.52,1.2-1.83,4.55-6l1.57-2C29.42,21.4,31.1,18.46,30.5,16.57ZM8,29.11c1.67,1.95,4.07,3.4,4.52,3.31s9.08-9,9.84-10.69.64-2.22-4-1.57-12,3.5-12.48,4S6.3,27.17,8,29.11ZM26.9,36.18c.22.3,3.63.53,7.91,0s7.55-1.56,7.56-1.86c0-.13-.37-.41-1-.86a26.58,26.58,0,0,1-3.24-2.78c-2.08-2.16-3.15-3.3-3.15-5s2.33-3,3.93-3.71,3-1.42,3-2.05-1.87-1-3.76-.19-4.31,4.71-6.37,8h0l-.11.18C29.6,31.15,26.68,35.87,26.9,36.18Z"/><rect class="cls-2" width="60" height="48"/></svg>