<svg width="995" height="158" viewBox="0 0 995 158" fill="none" xmlns="http://www.w3.org/2000/svg">
<path d="M61.0206 127.92C49.6073 127.92 39.2606 125.467 29.9806 120.56C20.8073 115.547 13.554 108.667 8.22063 99.92C2.99396 91.0667 0.380625 81.0933 0.380625 70C0.380625 58.9067 2.99396 48.9867 8.22063 40.24C13.554 31.3867 20.8073 24.5067 29.9806 19.6C39.2606 14.5867 49.6606 12.08 61.1806 12.08C70.8873 12.08 79.634 13.7867 87.4206 17.2C95.314 20.6133 101.927 25.52 107.261 31.92L90.6206 47.28C83.0473 38.5333 73.6606 34.16 62.4606 34.16C55.5273 34.16 49.3406 35.7067 43.9006 38.8C38.4606 41.7867 34.194 46 31.1006 51.44C28.114 56.88 26.6206 63.0667 26.6206 70C26.6206 76.9333 28.114 83.12 31.1006 88.56C34.194 94 38.4606 98.2667 43.9006 101.36C49.3406 104.347 55.5273 105.84 62.4606 105.84C73.6606 105.84 83.0473 101.413 90.6206 92.56L107.261 107.92C101.927 114.427 95.314 119.387 87.4206 122.8C79.5273 126.213 70.7273 127.92 61.0206 127.92ZM160.996 127.28C151.929 127.28 143.769 125.413 136.516 121.68C129.369 117.84 123.769 112.56 119.716 105.84C115.662 99.12 113.636 91.4933 113.636 82.96C113.636 74.4267 115.662 66.8 119.716 60.08C123.769 53.36 129.369 48.1333 136.516 44.4C143.769 40.56 151.929 38.64 160.996 38.64C170.062 38.64 178.169 40.56 185.316 44.4C192.462 48.1333 198.062 53.36 202.116 60.08C206.169 66.8 208.196 74.4267 208.196 82.96C208.196 91.4933 206.169 99.12 202.116 105.84C198.062 112.56 192.462 117.84 185.316 121.68C178.169 125.413 170.062 127.28 160.996 127.28ZM160.996 106.8C167.396 106.8 172.622 104.667 176.676 100.4C180.836 96.0267 182.916 90.2133 182.916 82.96C182.916 75.7067 180.836 69.9467 176.676 65.68C172.622 61.3067 167.396 59.12 160.996 59.12C154.596 59.12 149.316 61.3067 145.156 65.68C140.996 69.9467 138.916 75.7067 138.916 82.96C138.916 90.2133 140.996 96.0267 145.156 100.4C149.316 104.667 154.596 106.8 160.996 106.8ZM335.119 38.64C345.893 38.64 354.426 41.84 360.719 48.24C367.119 54.5333 370.319 64.0267 370.319 76.72V126H345.359V80.56C345.359 73.7333 343.919 68.6667 341.039 65.36C338.266 61.9467 334.266 60.24 329.039 60.24C323.173 60.24 318.533 62.16 315.119 66C311.706 69.7333 309.999 75.3333 309.999 82.8V126H285.039V80.56C285.039 67.0133 279.599 60.24 268.719 60.24C262.959 60.24 258.373 62.16 254.959 66C251.546 69.7333 249.839 75.3333 249.839 82.8V126H224.879V39.92H248.719V49.84C251.919 46.2133 255.813 43.44 260.399 41.52C265.093 39.6 270.213 38.64 275.759 38.64C281.839 38.64 287.333 39.8667 292.239 42.32C297.146 44.6667 301.093 48.1333 304.079 52.72C307.599 48.24 312.026 44.7733 317.359 42.32C322.799 39.8667 328.719 38.64 335.119 38.64ZM443.572 38.64C451.572 38.64 458.825 40.5067 465.332 44.24C471.945 47.8667 477.119 53.04 480.852 59.76C484.585 66.3733 486.452 74.1067 486.452 82.96C486.452 91.8133 484.585 99.6 480.852 106.32C477.119 112.933 471.945 118.107 465.332 121.84C458.825 125.467 451.572 127.28 443.572 127.28C432.585 127.28 423.945 123.813 417.652 116.88V157.04H392.692V39.92H416.532V49.84C422.719 42.3733 431.732 38.64 443.572 38.64ZM439.252 106.8C445.652 106.8 450.879 104.667 454.932 100.4C459.092 96.0267 461.172 90.2133 461.172 82.96C461.172 75.7067 459.092 69.9467 454.932 65.68C450.879 61.3067 445.652 59.12 439.252 59.12C432.852 59.12 427.572 61.3067 423.412 65.68C419.359 69.9467 417.332 75.7067 417.332 82.96C417.332 90.2133 419.359 96.0267 423.412 100.4C427.572 104.667 432.852 106.8 439.252 106.8ZM536.474 38.64C549.808 38.64 560.048 41.84 567.194 48.24C574.341 54.5333 577.914 64.08 577.914 76.88V126H554.554V115.28C549.861 123.28 541.114 127.28 528.314 127.28C521.701 127.28 515.941 126.16 511.034 123.92C506.234 121.68 502.554 118.587 499.994 114.64C497.434 110.693 496.154 106.213 496.154 101.2C496.154 93.2 499.141 86.9067 505.114 82.32C511.194 77.7333 520.528 75.44 533.114 75.44H552.954C552.954 70 551.301 65.84 547.994 62.96C544.688 59.9733 539.728 58.48 533.114 58.48C528.528 58.48 523.994 59.2267 519.514 60.72C515.141 62.1067 511.408 64.0267 508.314 66.48L499.354 49.04C504.048 45.7333 509.648 43.1733 516.154 41.36C522.768 39.5467 529.541 38.64 536.474 38.64ZM534.554 110.48C538.821 110.48 542.608 109.52 545.914 107.6C549.221 105.573 551.568 102.64 552.954 98.8V90H535.834C525.594 90 520.474 93.36 520.474 100.08C520.474 103.28 521.701 105.84 524.154 107.76C526.714 109.573 530.181 110.48 534.554 110.48ZM624.344 51.28C627.331 47.12 631.331 43.9733 636.344 41.84C641.464 39.7067 647.331 38.64 653.944 38.64V61.68C651.171 61.4667 649.304 61.36 648.344 61.36C641.198 61.36 635.598 63.3867 631.544 67.44C627.491 71.3867 625.464 77.36 625.464 85.36V126H600.504V39.92H624.344V51.28ZM668.786 39.92H693.746V126H668.786V39.92ZM681.266 27.92C676.679 27.92 672.946 26.5867 670.066 23.92C667.186 21.2533 665.746 17.9467 665.746 14C665.746 10.0533 667.186 6.74666 670.066 4.08C672.946 1.41333 676.679 0.0799904 681.266 0.0799904C685.852 0.0799904 689.586 1.35999 692.466 3.92C695.346 6.48 696.786 9.68 696.786 13.52C696.786 17.68 695.346 21.1467 692.466 23.92C689.586 26.5867 685.852 27.92 681.266 27.92ZM745.871 127.28C738.724 127.28 731.737 126.427 724.911 124.72C718.084 122.907 712.644 120.667 708.591 118L716.911 100.08C720.751 102.533 725.391 104.56 730.831 106.16C736.271 107.653 741.604 108.4 746.831 108.4C757.391 108.4 762.671 105.787 762.671 100.56C762.671 98.1067 761.231 96.3467 758.351 95.28C755.471 94.2133 751.044 93.3067 745.071 92.56C738.031 91.4933 732.217 90.2667 727.631 88.88C723.044 87.4933 719.044 85.04 715.631 81.52C712.324 78 710.671 72.9867 710.671 66.48C710.671 61.04 712.217 56.24 715.311 52.08C718.511 47.8133 723.097 44.5067 729.071 42.16C735.151 39.8133 742.297 38.64 750.511 38.64C756.591 38.64 762.617 39.3333 768.591 40.72C774.671 42 779.684 43.8133 783.631 46.16L775.311 63.92C767.737 59.6533 759.471 57.52 750.511 57.52C745.177 57.52 741.177 58.2667 738.511 59.76C735.844 61.2533 734.511 63.1733 734.511 65.52C734.511 68.1867 735.951 70.0533 738.831 71.12C741.711 72.1867 746.297 73.2 752.591 74.16C759.631 75.3333 765.391 76.6133 769.871 78C774.351 79.28 778.244 81.68 781.551 85.2C784.857 88.72 786.511 93.6267 786.511 99.92C786.511 105.253 784.911 110 781.711 114.16C778.511 118.32 773.817 121.573 767.631 123.92C761.551 126.16 754.297 127.28 745.871 127.28ZM842.871 127.28C833.804 127.28 825.644 125.413 818.391 121.68C811.244 117.84 805.644 112.56 801.591 105.84C797.537 99.12 795.511 91.4933 795.511 82.96C795.511 74.4267 797.537 66.8 801.591 60.08C805.644 53.36 811.244 48.1333 818.391 44.4C825.644 40.56 833.804 38.64 842.871 38.64C851.937 38.64 860.044 40.56 867.191 44.4C874.337 48.1333 879.937 53.36 883.991 60.08C888.044 66.8 890.071 74.4267 890.071 82.96C890.071 91.4933 888.044 99.12 883.991 105.84C879.937 112.56 874.337 117.84 867.191 121.68C860.044 125.413 851.937 127.28 842.871 127.28ZM842.871 106.8C849.271 106.8 854.497 104.667 858.551 100.4C862.711 96.0267 864.791 90.2133 864.791 82.96C864.791 75.7067 862.711 69.9467 858.551 65.68C854.497 61.3067 849.271 59.12 842.871 59.12C836.471 59.12 831.191 61.3067 827.031 65.68C822.871 69.9467 820.791 75.7067 820.791 82.96C820.791 90.2133 822.871 96.0267 827.031 100.4C831.191 104.667 836.471 106.8 842.871 106.8ZM959.074 38.64C969.741 38.64 978.328 41.84 984.834 48.24C991.448 54.64 994.754 64.1333 994.754 76.72V126H969.794V80.56C969.794 73.7333 968.301 68.6667 965.314 65.36C962.328 61.9467 958.008 60.24 952.354 60.24C946.061 60.24 941.048 62.2133 937.314 66.16C933.581 70 931.714 75.76 931.714 83.44V126H906.754V39.92H930.594V50C933.901 46.3733 938.008 43.6 942.914 41.68C947.821 39.6533 953.208 38.64 959.074 38.64Z" fill="white"/>
</svg>
