<svg id="Layer_1" data-name="Layer 1" xmlns="http://www.w3.org/2000/svg" viewBox="0 0 60 48"><defs><style>.cls-1{fill-rule:evenodd;}.cls-2{fill:none;}</style></defs><path class="cls-1" d="M20.33,42.93C8.53,40.24,0,32.76,0,24a13.84,13.84,0,0,1,.39-3.22C6.14,19.22,21.24,16.9,24,18.73,25.81,19.79,22.28,34.16,20.33,42.93ZM59.61,20.78A13.33,13.33,0,0,1,60,24c0,8.78-8.56,16.27-20.4,19-2-8.77-5.48-23.16-3.67-24.22C38.69,16.9,53.85,19.21,59.61,20.78Z"/><path class="cls-1" d="M30,4C42.94,4,54,9.51,58.21,17.19c-4.83-.75-27.17-6.11-26.92-1.68V44L30,44l-1.36,0V15.51c.25-4.43-22,.92-26.84,1.68C6,9.51,17.06,4,30,4Z"/><rect class="cls-2" width="60" height="48"/></svg>