<svg id="Layer_1" data-name="Layer 1" xmlns="http://www.w3.org/2000/svg" viewBox="0 0 58 48"><defs><style>.cls-1{fill-rule:evenodd;}.cls-2{fill:none;}</style></defs><path class="cls-1" d="M29.29,3.2h-.35c-2.34,0-4.8.11-7.15.11h-.11c-1.76.12-3.17.24-4.22.36l3,13.12c2,6,4.93,11.84,8.56,12,3.63-.11,6.56-5.86,8.55-11.95l3-13.12c-1-.12-2.34-.24-4.22-.36h-.12C34,3.2,31.64,3.2,29.18,3.2Zm-.11,31.17a6.22,6.22,0,0,0-4.57,2.34c-1.76,2.23-2.35,5.63-2.58,7.62,2,0,4.45.12,7.26.12s5.28,0,7.27-.12c-.24-2-.94-5.39-2.58-7.62a6.24,6.24,0,0,0-4.57-2.34Zm.11,13.24H19S1.29,48.31.7,30.74C.11,14.8-1.29.38,21.09.38H36.91c22.38,0,21,14.42,20.39,30.36C56.71,48.31,39,47.61,39,47.61H29.29ZM45.58,15.5,43.47,44.21c7.62-.93,11.14-6.44,11.14-18.4,0-12.89-.82-16.28-4.93-19.21A11.71,11.71,0,0,0,46.4,5C46.17,7.18,45.93,11.05,45.58,15.5Zm-32.81,0,2.11,28.71c-7.62-.93-11.13-6.44-11.13-18.4,0-12.89.82-16.28,4.92-19.21A11.84,11.84,0,0,1,12,5C12.18,7.18,12.42,11.05,12.77,15.5Z"/><rect class="cls-2" width="58" height="48"/></svg>