<svg id="Layer_1" data-name="Layer 1" xmlns="http://www.w3.org/2000/svg" viewBox="0 0 56 48"><defs><style>.cls-1{fill:none;}</style></defs><path d="M26.53,1.41A22.1,22.1,0,0,0,19.75,3a21.6,21.6,0,0,0-7.83,5.14,20.88,20.88,0,0,0-4.38,6.18c-.89,1.79-1.14,1.92-3.92,2.2-1.14.11-1.15.12-1.12.51l0,.32,3.08,0c2.72,0,3.08,0,3.08-.09A.9.9,0,0,1,8.74,17,6.66,6.66,0,0,0,9,16.33c.12-.31.37-.86.54-1.22s.32-.66.32-.68.73-1.26,1.12-1.84a24.29,24.29,0,0,1,2-2.52,15.88,15.88,0,0,1,1.24-1.22c.61-.54.72-.64,1-.85l.36-.29c.16-.14,1.67-1.15,2.1-1.4a31.24,31.24,0,0,1,3.07-1.46A20.89,20.89,0,0,1,28,3.53a21.72,21.72,0,0,1,3.55.31l1,.19a15,15,0,0,1,1.81.5.62.62,0,0,0,.23.07A21.73,21.73,0,0,1,37.83,6a20.14,20.14,0,0,1,6.71,5.85c.15.2.3.39.32.43a18.81,18.81,0,0,1,1.82,3.27c0,.06,0,.1.06.1a.58.58,0,0,1,.14.24,2.39,2.39,0,0,0,.14.39,5.87,5.87,0,0,1,.33.94c0,.07.5.09,3.09.08l3.08,0,0-.35,0-.34-.26,0-1.25-.14c-2.43-.26-2.68-.42-3.59-2.24a18.36,18.36,0,0,0-1.37-2.45,5.19,5.19,0,0,1-.41-.67.09.09,0,0,0,0-.05s0,0,0,0a7.65,7.65,0,0,1-.53-.66l-.65-.83-.38-.43a23,23,0,0,0-2.35-2.3l-.4-.34A22.08,22.08,0,0,0,40.5,5.1a19,19,0,0,0-2.15-1.23A22.59,22.59,0,0,0,29.28,1.4,16.85,16.85,0,0,0,26.53,1.41ZM.92,20.91c-.05.06-.05,6,0,6.12s.18.1.7.1h.66l0-.32c0-.17,0-1.2,0-2.28s0-2,0-2,1.08,1,2.34,2.3L7,27.13H8.75V20.87H7.35v4.7L5,23.21,2.72,20.87H1.84A6.21,6.21,0,0,0,.92,20.91Zm10.92,0c0,.05,0,1.45,0,3.12l0,3,.69,0,.68,0V20.87h-.67C12.06,20.87,11.87,20.89,11.84,21Zm5.21.08a2.18,2.18,0,0,0-.93.9,2.3,2.3,0,0,0,.11,1.77l.19.25a1.68,1.68,0,0,0,1,.57A22.45,22.45,0,0,0,20,24.6c2.17,0,2.32,0,2.5.26a.74.74,0,0,1-.07.79l-.16.18-3,0-3,0v1.2h3.27c3.05,0,3.28,0,3.49-.12a1.92,1.92,0,0,0,1-1.48,2,2,0,0,0-.15-1.12,1.93,1.93,0,0,0-.75-.85l-.27-.16-2.5,0c-2.74,0-2.73,0-2.86-.44a.5.5,0,0,1,0-.36c.13-.37.07-.36,3.2-.4l2.91,0,0-.62,0-.61H20.47C17.4,20.87,17.38,20.87,17.05,21ZM27.74,21a1.66,1.66,0,0,0-1.18,1.13,1.91,1.91,0,0,0,.54,2c.53.42.73.45,3.28.45h2.28l.18.17a.69.69,0,0,1,.14.73c-.09.32-.13.33-3.33.37l-3,0,0,.61,0,.62h3.17c3,0,3.18,0,3.52-.13a1.76,1.76,0,0,0,1.12-1.47,2,2,0,0,0-.5-1.68c-.45-.49-.39-.48-3.2-.52l-2.55,0a.69.69,0,0,1-.15-1c.14-.14.14-.14,3.07-.16l2.93,0V20.87H31A24.09,24.09,0,0,0,27.74,21Zm12,.28c-.13.21-.34.56-.48.76a2.39,2.39,0,0,0-.25.43.31.31,0,0,1-.1.15,1.67,1.67,0,0,0-.18.28L38.06,24,37.4,25l-.56.86a6.81,6.81,0,0,0-.69,1.21,4.88,4.88,0,0,0,.8,0h.8l.37-.56.36-.57H43l.12.16c.07.09.23.34.37.57l.25.4h.8a2.34,2.34,0,0,0,.8-.06c0-.08-3.45-5.62-3.77-6.06-.1-.14-.15-.14-.85-.14H40Zm1.3,1.5c.15.22.3.47.34.55s.22.38.61,1a1.38,1.38,0,0,1,.25.51,17.68,17.68,0,0,1-3,0,1.51,1.51,0,0,1,.27-.54,4.47,4.47,0,0,0,.3-.52.13.13,0,0,1,0-.06l0,0a8.21,8.21,0,0,0,.74-1.13c.06-.11.12-.19.14-.19A2.73,2.73,0,0,1,41.05,22.75ZM47.28,24v3.13h1.4v-2.3a20.48,20.48,0,0,1,.06-2.28,29.07,29.07,0,0,1,2.64,2.58l2,2,.86,0,.88,0V20.9l-.68,0-.69,0v2.27c0,1.24,0,2.28-.06,2.3a8.33,8.33,0,0,1-1-.95c-.53-.54-1.56-1.57-2.27-2.3l-1.31-1.31h-1.8ZM2.53,30.71a.93.93,0,0,0,0,.66,5,5,0,0,0,.85.14c2.3.26,2.42.28,2.91.57s.74.69,1.33,1.85a15.93,15.93,0,0,0,1,1.9,22.9,22.9,0,0,0,5.76,6.3c.57.42,1.28.9,2.08,1.39.33.2,2.18,1.15,2.26,1.15a2.54,2.54,0,0,1,.38.16,22.92,22.92,0,0,0,4.72,1.43,21.75,21.75,0,0,0,3.12.35,15.86,15.86,0,0,0,2.4,0c.93-.07,2.44-.27,3.05-.4l.6-.13c.18,0,.56-.13.83-.21l.7-.2c.32-.09,1.26-.4,1.4-.46l.34-.14.31-.14a.64.64,0,0,1,.18-.06,9.67,9.67,0,0,0,.89-.4,8.88,8.88,0,0,1,.91-.4l0,0s0,0,0,0a0,0,0,0,1,0,0v0h0a23.24,23.24,0,0,0,3.5-2.3,22.36,22.36,0,0,0,3.92-4c.17-.24.36-.49.41-.55a.31.31,0,0,0,.1-.13,4,4,0,0,1,.32-.49A18.83,18.83,0,0,0,48.35,34c.72-1.44.87-1.66,1.4-2s.61-.32,2.7-.55c1.2-.12,1.11-.08,1.09-.48l0-.35-3.07,0H47.38l-.09.31a3.52,3.52,0,0,1-.15.42c0,.11-.12.28-.3.73a23,23,0,0,1-1.76,3.27c-.22.32-1.14,1.56-1.19,1.6s-.22.24-.43.5a17,17,0,0,1-2.25,2.17h0a.05.05,0,0,0,0,0s-.42.37-.92.77c-.24.18-.94.64-1.37.91a20.37,20.37,0,0,1-5.26,2.31,18.17,18.17,0,0,1-5.54.72,18.41,18.41,0,0,1-5.63-.73,17.74,17.74,0,0,1-2.4-.84.4.4,0,0,0-.2-.09,19.83,19.83,0,0,1-3.12-1.72l0,0H16.6a10.43,10.43,0,0,1-1.4-1,2.51,2.51,0,0,0-.41-.32,19.37,19.37,0,0,1-1.53-1.44A24,24,0,0,1,11.38,36l-.36-.5-.12-.17-.46-.75a20.35,20.35,0,0,1-1.76-3.8,16.42,16.42,0,0,0-3-.08C4,30.67,2.55,30.69,2.53,30.71Z"/><rect class="cls-1" width="56" height="48"/></svg>