<svg width="121" height="120" viewBox="0 0 121 120" fill="none" xmlns="http://www.w3.org/2000/svg">
<path d="M92.0565 13.0467C69.0065 13.4767 52.9499 1.83004 41.8432 2.04004C30.7365 2.25004 7.52319 9.07004 8.47986 60.1734C9.43653 111.277 40.9599 118.187 53.1799 117.96C110.39 116.89 132.883 12.2834 92.0565 13.0467Z" fill="#E6E6E6"/>
<path d="M68.583 20C68.583 19.0796 69.3292 18.3334 70.2497 18.3334H73.583C74.5035 18.3334 75.2497 19.0796 75.2497 20C75.2497 20.9205 74.5035 21.6667 73.583 21.6667H70.2497C69.3292 21.6667 68.583 20.9205 68.583 20Z" fill="#BFBFBF"/>
<path d="M87.7495 20C87.7495 19.0796 88.4957 18.3334 89.4162 18.3334H92.7495C93.67 18.3334 94.4162 19.0796 94.4162 20C94.4162 20.9205 93.67 21.6667 92.7495 21.6667H89.4162C88.4957 21.6667 87.7495 20.9205 87.7495 20Z" fill="#BFBFBF"/>
<path d="M79.4165 9.16666C79.4165 8.24619 80.1627 7.5 81.0832 7.5C82.0036 7.5 82.7498 8.24619 82.7498 9.16666V12.5C82.7498 13.4205 82.0036 14.1667 81.0832 14.1667C80.1627 14.1667 79.4165 13.4205 79.4165 12.5V9.16666Z" fill="#BFBFBF"/>
<path d="M97.8896 35.8333V49.1666H22.8896V35.8333C22.8896 32.1666 25.8896 29.1666 29.5563 29.1666H91.223C94.8896 29.1666 97.8896 32.1666 97.8896 35.8333Z" fill="#E6E6E6"/>
<path d="M97.8896 49.1666V90.8333C97.8896 94.5 94.8896 97.5 91.223 97.5H29.5563C25.8896 97.5 22.8896 94.5 22.8896 90.8333V49.1666H97.8896Z" fill="#F2F2F2"/>
<path d="M37.0563 29.1666H29.5563C25.8896 29.1666 22.8896 32.1666 22.8896 35.8333V49.1666H30.3897V35.8333C30.3897 32.1666 33.3897 29.1666 37.0563 29.1666Z" fill="#D9D9D9"/>
<path d="M30.3897 90.8333V49.1666H22.8896V90.8333C22.8896 94.5 25.8896 97.5 29.5563 97.5H37.0563C33.3897 97.5 30.3897 94.5 30.3897 90.8333Z" fill="#D9D9D9"/>
<path d="M18.7231 109.167C15.9665 109.167 13.7231 106.923 13.7231 104.167C13.7231 101.41 15.9665 99.1667 18.7231 99.1667C21.4798 99.1667 23.7231 101.41 23.7231 104.167C23.7231 106.923 21.4798 109.167 18.7231 109.167ZM18.7231 102.5C17.8031 102.5 17.0565 103.247 17.0565 104.167C17.0565 105.087 17.8031 105.833 18.7231 105.833C19.6431 105.833 20.3898 105.087 20.3898 104.167C20.3898 103.247 19.6431 102.5 18.7231 102.5Z" fill="#BFBFBF"/>
<path d="M56.5 79.1666H64.8333V87.5H56.5V79.1666Z" fill="#E6E6E6"/>
<path d="M64.8333 90.0001H56.5C55.12 90.0001 54 88.8801 54 87.5001V79.1667C54 77.7867 55.12 76.6667 56.5 76.6667H64.8333C66.2133 76.6667 67.3333 77.7867 67.3333 79.1667V87.5001C67.3333 88.8801 66.2133 90.0001 64.8333 90.0001ZM59 85.0001H62.3333V81.6668H59V85.0001Z" fill="#404040"/>
<path d="M91.4998 100H29.8332C24.7798 100 20.6665 95.89 20.6665 90.8333V35.8333C20.6665 30.7766 24.7798 26.6666 29.8332 26.6666H91.4998C96.5565 26.6666 100.667 30.7766 100.667 35.8333V90.8333C100.667 95.89 96.5565 100 91.4998 100ZM29.8332 31.6666C27.5365 31.6666 25.6665 33.5366 25.6665 35.8333V90.8333C25.6665 93.13 27.5365 95 29.8332 95H91.4998C93.7965 95 95.6665 93.13 95.6665 90.8333V35.8333C95.6665 33.5366 93.7965 31.6666 91.4998 31.6666H29.8332Z" fill="#404040"/>
<path d="M23.1665 46.6667H98.1665V51.6668H23.1665V46.6667Z" fill="#404040"/>
<path d="M37.333 25C37.333 23.6193 38.4523 22.5 39.833 22.5C41.2137 22.5 42.333 23.6193 42.333 25V35C42.333 36.3807 41.2137 37.5 39.833 37.5C38.4523 37.5 37.333 36.3807 37.333 35V25Z" fill="#404040"/>
<path d="M79 25C79 23.6193 80.1193 22.5 81.5 22.5C82.8807 22.5 84 23.6193 84 25V35C84 36.3807 82.8807 37.5 81.5 37.5C80.1193 37.5 79 36.3807 79 35V25Z" fill="#404040"/>
<path d="M44.4998 70H36.1665C34.7865 70 33.6665 68.88 33.6665 67.5V59.1666C33.6665 57.7866 34.7865 56.6666 36.1665 56.6666H44.4998C45.8798 56.6666 46.9998 57.7866 46.9998 59.1666V67.5C46.9998 68.88 45.8798 70 44.4998 70ZM38.6665 65H41.9998V61.6666H38.6665V65Z" fill="#404040"/>
<path d="M44.4998 90.0001H36.1665C34.7865 90.0001 33.6665 88.8801 33.6665 87.5001V79.1667C33.6665 77.7867 34.7865 76.6667 36.1665 76.6667H44.4998C45.8798 76.6667 46.9998 77.7867 46.9998 79.1667V87.5001C46.9998 88.8801 45.8798 90.0001 44.4998 90.0001ZM38.6665 85.0001H41.9998V81.6668H38.6665V85.0001Z" fill="#404040"/>
<path d="M64.8333 70H56.5C55.12 70 54 68.88 54 67.5V59.1666C54 57.7866 55.12 56.6666 56.5 56.6666H64.8333C66.2133 56.6666 67.3333 57.7866 67.3333 59.1666V67.5C67.3333 68.88 66.2133 70 64.8333 70ZM59 65H62.3333V61.6666H59V65Z" fill="#404040"/>
<path d="M85.1663 70H76.833C75.453 70 74.333 68.88 74.333 67.5V59.1666C74.333 57.7866 75.453 56.6666 76.833 56.6666H85.1663C86.5464 56.6666 87.6664 57.7866 87.6664 59.1666V67.5C87.6664 68.88 86.5464 70 85.1663 70ZM79.333 65H82.6663V61.6666H79.333V65Z" fill="#404040"/>
</svg>
