<svg width="121" height="120" viewBox="0 0 121 120" fill="none" xmlns="http://www.w3.org/2000/svg">
<path d="M28.2567 106.11C51.3133 106.11 67.1467 118.053 78.2567 118.053C89.3667 118.053 112.7 111.667 112.7 60.5567C112.7 9.44669 81.31 1.94336 69.09 1.94336C11.8667 1.94336 -12.5767 106.11 28.2567 106.11Z" fill="#E6E6E6"/>
<path d="M112 18C109.243 18 107 15.7567 107 13C107 10.2433 109.243 8 112 8C114.757 8 117 10.2433 117 13C117 15.7567 114.757 18 112 18ZM112 11.3333C111.08 11.3333 110.333 12.08 110.333 13C110.333 13.92 111.08 14.6667 112 14.6667C112.92 14.6667 113.667 13.92 113.667 13C113.667 12.08 112.92 11.3333 112 11.3333Z" fill="#BFBFBF"/>
<path d="M74.5003 90.8333C74.5003 94.5167 71.517 97.5 67.8337 97.5H32.8337C29.1503 97.5 26.167 94.5167 26.167 90.8333V29.1667C26.167 25.4833 29.1503 22.5 32.8337 22.5H67.8337C71.517 22.5 74.5003 25.4833 74.5003 29.1667V90.8333Z" fill="#F2F2F2"/>
<path d="M88.25 74.1667H65.75C62.2967 74.1667 59.5 71.3701 59.5 67.9167C59.5 64.4634 62.2967 61.6667 65.75 61.6667H88.25C91.7033 61.6667 94.5 64.4634 94.5 67.9167C94.5 71.3701 91.7033 74.1667 88.25 74.1667Z" fill="#F2F2F2"/>
<path d="M88.25 61.6666H65.75C62.2967 61.6666 59.5 58.87 59.5 55.4166C59.5 51.9633 62.2967 49.1666 65.75 49.1666H88.25C91.7033 49.1666 94.5 51.9633 94.5 55.4166C94.5 58.87 91.7033 61.6666 88.25 61.6666Z" fill="#F2F2F2"/>
<path d="M32.8335 22.5H34.5002C37.2602 22.5 39.5002 24.74 39.5002 27.5C39.5002 29.34 40.9935 30.8333 42.8335 30.8333H57.8335C59.6735 30.8333 61.1668 29.34 61.1668 27.5C61.1668 24.74 63.4068 22.5 66.1668 22.5H67.8335H32.8335Z" fill="#F2F2F2"/>
<path d="M67 67.9167C67 64.4634 69.7967 61.6667 73.25 61.6667H65.75C62.2967 61.6667 59.5 64.4634 59.5 67.9167C59.5 71.3701 62.2967 74.1667 65.75 74.1667H73.25C69.7967 74.1667 67 71.3701 67 67.9167Z" fill="#D9D9D9"/>
<path d="M67 55.4166C67 51.9633 69.7967 49.1666 73.25 49.1666H65.75C62.2967 49.1666 59.5 51.9633 59.5 55.4166C59.5 58.87 62.2967 61.6666 65.75 61.6666H73.25C69.7967 61.6666 67 58.87 67 55.4166Z" fill="#D9D9D9"/>
<path d="M47 27.5C47 24.74 44.76 22.5 42 22.5H40.3333H34.5C37.26 22.5 39.5 24.74 39.5 27.5C39.5 29.34 40.9933 30.8333 42.8333 30.8333H50.3333C48.4933 30.8333 47 29.34 47 27.5Z" fill="#D9D9D9"/>
<path d="M33.667 90.8333V29.1667C33.667 25.4833 36.6503 22.5 40.3337 22.5H32.8337C29.1503 22.5 26.167 25.4833 26.167 29.1667V90.8333C26.167 94.5167 29.1503 97.5 32.8337 97.5H40.3337C36.6503 97.5 33.667 94.5167 33.667 90.8333Z" fill="#D9D9D9"/>
<path d="M88.25 76.6666H65.75C60.9267 76.6666 57 72.74 57 67.9166C57 63.0933 60.9267 59.1666 65.75 59.1666H88.25C93.0733 59.1666 97 63.0933 97 67.9166C97 72.74 93.0733 76.6666 88.25 76.6666ZM65.75 64.1666C63.6833 64.1666 62 65.85 62 67.9166C62 69.9833 63.6833 71.6666 65.75 71.6666H88.25C90.3167 71.6666 92 69.9833 92 67.9166C92 65.85 90.3167 64.1666 88.25 64.1666H65.75Z" fill="#404040"/>
<path d="M88.25 64.1668H65.75C60.9267 64.1668 57 60.2401 57 55.4167C57 50.5934 60.9267 46.6667 65.75 46.6667H88.25C93.0733 46.6667 97 50.5934 97 55.4167C97 60.2401 93.0733 64.1668 88.25 64.1668ZM65.75 51.6667C63.6833 51.6667 62 53.3501 62 55.4167C62 57.4834 63.6833 59.1667 65.75 59.1667H88.25C90.3167 59.1667 92 57.4834 92 55.4167C92 53.3501 90.3167 51.6667 88.25 51.6667H65.75Z" fill="#404040"/>
<path d="M68.6665 49.1666H73.6665V74.1666H68.6665V49.1666Z" fill="#404040"/>
<path d="M57.8335 33.3333H42.8335C39.6168 33.3333 37.0002 30.7167 37.0002 27.5C37.0002 26.12 35.8802 25 34.5002 25H32.8335V20H34.5002C38.6368 20 42.0002 23.3633 42.0002 27.5C42.0002 27.96 42.3735 28.3333 42.8335 28.3333H57.8335C58.2935 28.3333 58.6668 27.96 58.6668 27.5C58.6668 23.3633 62.0302 20 66.1668 20H67.8335V25H66.1668C64.7868 25 63.6668 26.12 63.6668 27.5C63.6668 30.7167 61.0502 33.3333 57.8335 33.3333Z" fill="#404040"/>
<path d="M67.8337 100H32.8337C27.777 100 23.667 95.89 23.667 90.8333V29.1667C23.667 24.11 27.777 20 32.8337 20H67.8337C72.8903 20 77.0003 24.11 77.0003 29.1667V35C77.0003 36.3807 75.881 37.5 74.5003 37.5C73.1196 37.5 72.0003 36.3807 72.0003 35V29.1667C72.0003 26.87 70.1303 25 67.8337 25H32.8337C30.537 25 28.667 26.87 28.667 29.1667V90.8333C28.667 93.13 30.537 95 32.8337 95H67.8337C70.1303 95 72.0003 93.13 72.0003 90.8333V88.3333C72.0003 86.9526 73.1196 85.8333 74.5003 85.8333C75.881 85.8333 77.0003 86.9526 77.0003 88.3333V90.8333C77.0003 95.89 72.8903 100 67.8337 100Z" fill="#404040"/>
</svg>
