<svg width="121" height="120" viewBox="0 0 121 120" fill="none" xmlns="http://www.w3.org/2000/svg">
<path d="M106.777 27.9234C106.777 50.9801 118.72 66.8134 118.72 77.9234C118.72 89.0334 112.333 112.367 61.2232 112.367C10.1132 112.367 2.60986 80.9767 2.60986 68.7567C2.60986 11.5334 106.777 -12.9099 106.777 27.9234Z" fill="#E6E6E6"/>
<path d="M94.8675 9.91362C94.2166 9.26274 94.2166 8.20747 94.8675 7.5566C95.5184 6.90572 96.5736 6.90572 97.2245 7.5566L99.5815 9.91362C100.232 10.5645 100.232 11.6198 99.5815 12.2706C98.9306 12.9215 97.8754 12.9215 97.2245 12.2706L94.8675 9.91362Z" fill="#BFBFBF"/>
<path d="M108.415 23.4703C107.764 22.8194 107.764 21.7641 108.415 21.1132C109.066 20.4624 110.121 20.4624 110.772 21.1132L113.129 23.4703C113.78 24.1211 113.78 25.1764 113.129 25.8273C112.478 26.4782 111.423 26.4782 110.772 25.8273L108.415 23.4703Z" fill="#BFBFBF"/>
<path d="M107.82 12.2583C107.169 11.6075 107.169 10.5522 107.82 9.90132L110.177 7.54431C110.828 6.89343 111.883 6.89343 112.534 7.5443C113.185 8.19518 113.185 9.25045 112.534 9.90133L110.177 12.2583C109.526 12.9092 108.47 12.9092 107.82 12.2583Z" fill="#BFBFBF"/>
<path d="M54.833 34.1665H66.4997V45.8332H54.833V34.1665Z" fill="#F2F2F2"/>
<path d="M98.1665 69.6766V74.4433C98.1665 76.1233 96.6998 77.5 94.9065 77.5H88.3832C88.3832 74.14 85.4498 71.39 81.8598 71.39C78.2698 71.39 75.3365 74.14 75.3365 77.5H45.9898C45.9898 74.14 43.0565 71.39 39.4665 71.39C35.8765 71.39 32.9432 74.14 32.9432 77.5H26.4265C24.6332 77.5 23.1665 76.1233 23.1665 74.4433V66.9866C23.1665 64.1766 25.1898 61.73 28.0898 61.06L36.2098 59.1666H78.5998L93.6965 63.8733C96.3732 64.7266 98.1665 67.05 98.1665 69.6766Z" fill="#F2F2F2"/>
<path d="M71.5 34.1667H49.8333L46.5 22.5H74.8333L71.5 34.1667Z" fill="#F2F2F2"/>
<path d="M38.9998 97.5C42.2215 97.5 44.8332 94.8884 44.8332 91.6667C44.8332 88.445 42.2215 85.8334 38.9998 85.8334C35.7782 85.8334 33.1665 88.445 33.1665 91.6667C33.1665 94.8884 35.7782 97.5 38.9998 97.5Z" fill="#F2F2F2"/>
<path d="M82.3333 97.5C85.555 97.5 88.1667 94.8884 88.1667 91.6667C88.1667 88.445 85.555 85.8334 82.3333 85.8334C79.1117 85.8334 76.5 88.445 76.5 91.6667C76.5 94.8884 79.1117 97.5 82.3333 97.5Z" fill="#F2F2F2"/>
<path d="M36.2363 58.4634L38.4863 50.2367C39.193 47.64 41.7563 45.8334 44.703 45.8334H52.523H65.823C69.4463 45.8334 72.7797 47.7 74.413 50.6767L78.733 58.5367L36.2363 58.4634Z" fill="#F2F2F2"/>
<path d="M54.833 34.1665H62.333V45.8332H54.833V34.1665Z" fill="#D9D9D9"/>
<path d="M30.6665 74.4433V66.9866C30.6665 64.1766 32.6898 61.73 35.5898 61.06L43.7098 59.1666H36.2098L28.0898 61.06C25.1898 61.7333 23.1665 64.1766 23.1665 66.99V74.4466C23.1665 76.1266 24.6332 77.5033 26.4265 77.5033H32.9498C32.9498 77.4399 32.9665 77.3833 32.9698 77.3199C31.6465 76.9266 30.6665 75.8066 30.6665 74.4433Z" fill="#D9D9D9"/>
<path d="M46.5 22.5L49.8333 34.1667H57.3333L54 22.5H46.5Z" fill="#D9D9D9"/>
<path d="M40.6665 91.6667C40.6665 89.89 41.4865 88.3134 42.7498 87.24C41.7332 86.3734 40.4332 85.8334 38.9998 85.8334C35.7932 85.8334 33.1665 88.4567 33.1665 91.6667C33.1665 94.8734 35.7932 97.5 38.9998 97.5C40.4332 97.5 41.7332 96.9567 42.7498 96.0934C41.4865 95.02 40.6665 93.4434 40.6665 91.6667Z" fill="#D9D9D9"/>
<path d="M83.9995 91.6667C83.9995 89.89 84.8195 88.3134 86.0829 87.24C85.0662 86.3734 83.7662 85.8334 82.3329 85.8334C79.1262 85.8334 76.4995 88.4567 76.4995 91.6667C76.4995 94.8734 79.1262 97.5 82.3329 97.5C83.7662 97.5 85.0662 96.9567 86.0829 96.0934C84.8195 95.02 83.9995 93.4434 83.9995 91.6667Z" fill="#D9D9D9"/>
<path d="M43.7368 58.4634L45.9868 50.2367C46.6902 47.64 49.2568 45.8334 52.2035 45.8334H44.7035C41.7535 45.8334 39.1902 47.64 38.4868 50.2367L36.2368 58.4634H43.7368Z" fill="#D9D9D9"/>
<path d="M20.6665 22.5C20.6665 21.1193 21.7858 20 23.1665 20H98.1665C99.5472 20 100.667 21.1193 100.667 22.5C100.667 23.8807 99.5472 25 98.1665 25H23.1665C21.7858 25 20.6665 23.8807 20.6665 22.5Z" fill="#404040"/>
<path d="M71.4999 36.6667H49.8333C48.7166 36.6667 47.7366 35.9267 47.4299 34.8533L44.0966 23.1867C43.8833 22.43 44.0299 21.62 44.5066 20.9967C44.9766 20.3667 45.7166 20 46.4999 20H74.8333C75.6166 20 76.3566 20.3667 76.8299 20.9967C77.3033 21.6233 77.4533 22.4333 77.2399 23.1867L73.9066 34.8533C73.5966 35.9267 72.6166 36.6667 71.4999 36.6667ZM51.7199 31.6667H69.6133L71.5199 25H49.8133L51.7199 31.6667Z" fill="#404040"/>
<path d="M66.4997 48.3334H54.833C53.453 48.3334 52.333 47.2134 52.333 45.8334V34.1667C52.333 32.7867 53.453 31.6667 54.833 31.6667H66.4997C67.8797 31.6667 68.9997 32.7867 68.9997 34.1667V45.8334C68.9997 47.2134 67.8797 48.3334 66.4997 48.3334ZM57.333 43.3334H63.9997V36.6667H57.333V43.3334Z" fill="#404040"/>
<path d="M38.9998 100C34.4065 100 30.6665 96.2634 30.6665 91.6667C30.6665 87.07 34.4065 83.3334 38.9998 83.3334C43.5932 83.3334 47.3332 87.07 47.3332 91.6667C47.3332 96.2634 43.5932 100 38.9998 100ZM38.9998 88.3334C37.1632 88.3334 35.6665 89.8267 35.6665 91.6667C35.6665 93.5067 37.1632 95 38.9998 95C40.8365 95 42.3332 93.5067 42.3332 91.6667C42.3332 89.8267 40.8365 88.3334 38.9998 88.3334Z" fill="#404040"/>
<path d="M82.3333 100C77.74 100 74 96.2634 74 91.6667C74 87.07 77.74 83.3334 82.3333 83.3334C86.9267 83.3334 90.6667 87.07 90.6667 91.6667C90.6667 96.2634 86.9267 100 82.3333 100ZM82.3333 88.3334C80.4967 88.3334 79 89.8267 79 91.6667C79 93.5067 80.4967 95 82.3333 95C84.17 95 85.6667 93.5067 85.6667 91.6667C85.6667 89.8267 84.17 88.3334 82.3333 88.3334Z" fill="#404040"/>
<path d="M94.9065 80H88.3832C87.0032 80 85.8832 78.88 85.8832 77.5C85.8832 75.5066 84.0798 73.89 81.8598 73.89C79.6398 73.89 77.8365 75.5066 77.8365 77.5C77.8365 78.88 76.7165 80 75.3365 80H45.9865C44.6065 80 43.4865 78.88 43.4865 77.5C43.4865 75.5066 41.6832 73.89 39.4632 73.89C37.2432 73.89 35.4398 75.5066 35.4398 77.5C35.4398 78.88 34.3198 80 32.9398 80H26.4265C23.2498 80 20.6665 77.5066 20.6665 74.4433V66.99C20.6665 63 23.4865 59.56 27.5265 58.6266L35.6432 56.7333C35.8298 56.69 36.0198 56.6666 36.2098 56.6666H78.5998C78.8532 56.6666 79.1032 56.7066 79.3432 56.78L94.4398 61.4866C98.1698 62.6766 100.667 65.9666 100.667 69.6766V74.4433C100.667 77.5066 98.0832 80 94.9065 80ZM90.4965 75H94.9065C95.3398 75 95.6665 74.7066 95.6665 74.4433V69.6766C95.6665 68.15 94.5698 66.7766 92.9398 66.2566L78.2198 61.6666H36.4998L28.6598 63.4966C26.8965 63.9033 25.6665 65.34 25.6665 66.99V74.4433C25.6665 74.7066 25.9932 75 26.4265 75H30.8365C31.9598 71.4666 35.4065 68.89 39.4698 68.89C43.5332 68.89 46.9798 71.4666 48.1032 75H73.2265C74.3498 71.4666 77.7965 68.89 81.8598 68.89C85.9232 68.89 89.3732 71.4666 90.4965 75Z" fill="#404040"/>
<path d="M76.5462 59.74L72.2262 51.88C71.0428 49.7266 68.5328 48.3366 65.8262 48.3366H44.7062C42.8762 48.3366 41.3095 49.3866 40.8995 50.8966L38.6495 59.13L33.8262 57.81L36.0762 49.5833C37.0762 45.9066 40.6228 43.34 44.7062 43.34H65.8262C70.3995 43.34 74.5295 45.69 76.6062 49.4766L80.9262 57.3366L76.5462 59.74Z" fill="#404040"/>
<path d="M49.833 45.8334H54.833V58.3334H49.833V45.8334Z" fill="#404040"/>
<path d="M20.6665 90.8332C20.6665 89.4525 21.7858 88.3333 23.1665 88.3333H32.3332C33.7139 88.3333 34.8332 89.4525 34.8332 90.8332C34.8332 92.214 33.7139 93.3332 32.3332 93.3332H23.1665C21.7858 93.3332 20.6665 92.214 20.6665 90.8332Z" fill="#404040"/>
<path d="M45.6665 88.3333H75.6665V93.3332H45.6665V88.3333Z" fill="#404040"/>
<path d="M86.5 90.8332C86.5 89.4525 87.6193 88.3333 89 88.3333H98.1667C99.5474 88.3333 100.667 89.4525 100.667 90.8332C100.667 92.214 99.5474 93.3332 98.1667 93.3332H89C87.6193 93.3332 86.5 92.214 86.5 90.8332Z" fill="#404040"/>
</svg>
