<svg width="121" height="120" viewBox="0 0 121 120" fill="none" xmlns="http://www.w3.org/2000/svg">
<path d="M14.2236 27.9233C14.2236 50.98 2.28027 66.8133 2.28027 77.9233C2.28027 89.0333 8.66694 112.367 59.7769 112.367C110.887 112.367 118.387 80.9766 118.387 68.7566C118.39 11.5333 14.2236 -12.91 14.2236 27.9233Z" fill="#E6E6E6"/>
<path d="M99.0835 9.16666C99.0835 8.24619 99.8297 7.5 100.75 7.5C101.671 7.5 102.417 8.24619 102.417 9.16666V12.5C102.417 13.4205 101.671 14.1667 100.75 14.1667C99.8297 14.1667 99.0835 13.4205 99.0835 12.5V9.16666Z" fill="#BFBFBF"/>
<path d="M106.583 19.1667C106.583 18.2462 107.33 17.5 108.25 17.5H111.583C112.504 17.5 113.25 18.2462 113.25 19.1667C113.25 20.0871 112.504 20.8333 111.583 20.8333H108.25C107.33 20.8333 106.583 20.0871 106.583 19.1667Z" fill="#BFBFBF"/>
<path d="M94.5002 65C96.3402 65 97.8335 63.5067 97.8335 61.6667V53.88C97.8335 50.86 96.6335 47.9667 94.5002 45.8333C92.3668 43.7 89.4702 42.5 86.4535 42.5H84.7635C82.9968 42.5 81.3002 41.7967 80.0502 40.5467L72.5735 33.07C70.0735 30.57 66.6802 29.1633 63.1468 29.1633H29.5002C25.8168 29.1633 22.8335 32.1467 22.8335 35.83V61.6633C22.8335 63.5033 24.3268 64.9967 26.1668 64.9967H94.5002V65Z" fill="#F2F2F2"/>
<path d="M90.3335 97.5H30.3335C26.1902 97.5 22.8335 94.1433 22.8335 90C22.8335 85.8567 26.1902 82.5 30.3335 82.5H90.3335C94.4768 82.5 97.8335 85.8567 97.8335 90C97.8335 94.1433 94.4768 97.5 90.3335 97.5Z" fill="#F2F2F2"/>
<path d="M38.667 70.8334C42.8091 70.8334 46.167 67.4755 46.167 63.3334C46.167 59.1912 42.8091 55.8334 38.667 55.8334C34.5249 55.8334 31.167 59.1912 31.167 63.3334C31.167 67.4755 34.5249 70.8334 38.667 70.8334Z" fill="#F2F2F2"/>
<path d="M77 70.8334C81.1421 70.8334 84.5 67.4755 84.5 63.3334C84.5 59.1912 81.1421 55.8334 77 55.8334C72.8579 55.8334 69.5 59.1912 69.5 63.3334C69.5 67.4755 72.8579 70.8334 77 70.8334Z" fill="#F2F2F2"/>
<path d="M29.5002 61.6666V35.8333C29.5002 32.15 32.4835 29.1666 36.1668 29.1666H29.5002C25.8168 29.1666 22.8335 32.15 22.8335 35.8333V61.6666C22.8335 63.5066 24.3268 65 26.1668 65H32.8335C30.9935 65 29.5002 63.5066 29.5002 61.6666Z" fill="#D9D9D9"/>
<path d="M29.5002 90C29.5002 85.8567 32.8568 82.5 37.0002 82.5H30.3335C26.1902 82.5 22.8335 85.8567 22.8335 90C22.8335 94.1433 26.1902 97.5 30.3335 97.5H37.0002C32.8568 97.5 29.5002 94.1433 29.5002 90Z" fill="#D9D9D9"/>
<path d="M37.8337 63.3334C37.8337 60.3934 39.5403 57.8767 42.0003 56.6467C40.9937 56.1434 39.8703 55.8334 38.667 55.8334C34.5237 55.8334 31.167 59.19 31.167 63.3334C31.167 67.4767 34.5237 70.8334 38.667 70.8334C39.8703 70.8334 40.9937 70.5234 42.0003 70.02C39.5403 68.79 37.8337 66.27 37.8337 63.3334Z" fill="#D9D9D9"/>
<path d="M76.1667 63.3334C76.1667 60.3934 77.8733 57.8767 80.3333 56.6467C79.3267 56.1434 78.2033 55.8334 77 55.8334C72.8567 55.8334 69.5 59.19 69.5 63.3334C69.5 67.4767 72.8567 70.8334 77 70.8334C78.2033 70.8334 79.3267 70.5234 80.3333 70.02C77.8733 68.79 76.1667 66.27 76.1667 63.3334Z" fill="#D9D9D9"/>
<path d="M90.3335 100H30.3335C24.8202 100 20.3335 95.5133 20.3335 90C20.3335 84.4867 24.8202 80 30.3335 80H90.3335C95.8468 80 100.334 84.4867 100.334 90C100.334 95.5133 95.8468 100 90.3335 100ZM30.3335 85C27.5768 85 25.3335 87.2433 25.3335 90C25.3335 92.7567 27.5768 95 30.3335 95H90.3335C93.0902 95 95.3335 92.7567 95.3335 90C95.3335 87.2433 93.0902 85 90.3335 85H30.3335Z" fill="#404040"/>
<path d="M38.667 73.0834C33.2903 73.0834 28.917 68.71 28.917 63.3334C28.917 57.9567 33.2903 53.5834 38.667 53.5834C44.0437 53.5834 48.417 57.9567 48.417 63.3334C48.417 68.71 44.0437 73.0834 38.667 73.0834ZM38.667 58.0834C35.7703 58.0834 33.417 60.44 33.417 63.3334C33.417 66.2267 35.7737 68.5834 38.667 68.5834C41.5603 68.5834 43.917 66.2267 43.917 63.3334C43.917 60.44 41.5637 58.0834 38.667 58.0834Z" fill="#404040"/>
<path d="M77 73.0834C71.6233 73.0834 67.25 68.71 67.25 63.3334C67.25 57.9567 71.6233 53.5834 77 53.5834C82.3767 53.5834 86.75 57.9567 86.75 63.3334C86.75 68.71 82.3767 73.0834 77 73.0834ZM77 58.0834C74.1033 58.0834 71.75 60.44 71.75 63.3334C71.75 66.2267 74.1067 68.5834 77 68.5834C79.8933 68.5834 82.25 66.2267 82.25 63.3334C82.25 60.44 79.8967 58.0834 77 58.0834Z" fill="#404040"/>
<path d="M94.5002 67.5H85.1668C83.7868 67.5 82.6668 66.38 82.6668 65C82.6668 63.62 83.7868 62.5 85.1668 62.5H94.5002C94.9602 62.5 95.3335 62.1266 95.3335 61.6666V53.88C95.3335 51.5433 94.3868 49.2533 92.7335 47.6C91.0802 45.9466 88.7902 45 86.4535 45H84.7635C82.3135 45 80.0135 44.0466 78.2802 42.3133L70.8035 34.8366C68.7868 32.8233 65.9968 31.6666 63.1435 31.6666H29.5002C27.2035 31.6666 25.3335 33.5366 25.3335 35.8333V61.6666C25.3335 62.1266 25.7068 62.5 26.1668 62.5H30.3335C31.7135 62.5 32.8335 63.62 32.8335 65C32.8335 66.38 31.7135 67.5 30.3335 67.5H26.1668C22.9502 67.5 20.3335 64.8833 20.3335 61.6666V35.8333C20.3335 30.7766 24.4435 26.6666 29.5002 26.6666H63.1435C67.3735 26.6666 71.3468 28.3133 74.3368 31.3033L81.8135 38.78C82.6035 39.5666 83.6502 40 84.7635 40H86.4535C90.1602 40 93.6468 41.4433 96.2668 44.0666C98.8868 46.69 100.334 50.1733 100.334 53.88V61.6666C100.334 64.8833 97.7168 67.5 94.5002 67.5Z" fill="#404040"/>
<path d="M68.8333 67.5H47C45.62 67.5 44.5 66.38 44.5 65C44.5 63.62 45.62 62.5 47 62.5H68.8333C70.2133 62.5 71.3333 63.62 71.3333 65C71.3333 66.38 70.2133 67.5 68.8333 67.5Z" fill="#404040"/>
</svg>
