<svg width="120" height="120" viewBox="0 0 120 120" fill="none" xmlns="http://www.w3.org/2000/svg">
<path d="M44.7032 116.663C65.6965 107.133 85.0532 111.467 95.1699 106.877C105.287 102.283 123.893 86.8234 102.77 40.2834C81.6465 -6.25663 49.9665 -0.116629 38.8365 4.93337C-13.2701 28.5834 7.51987 133.54 44.7032 116.663Z" fill="#E6E6E6"/>
<path d="M15.7598 4.01005C15.7598 3.08958 16.506 2.34338 17.4264 2.34338C18.3469 2.34338 19.0931 3.08958 19.0931 4.01005V7.34338C19.0931 8.26386 18.3469 9.01005 17.4264 9.01005C16.506 9.01005 15.7598 8.26386 15.7598 7.34338V4.01005Z" fill="#BFBFBF"/>
<path d="M4.09326 14.8433C4.09326 13.9228 4.83945 13.1766 5.75993 13.1766H9.09326C10.0137 13.1766 10.7599 13.9228 10.7599 14.8433C10.7599 15.7638 10.0137 16.51 9.09326 16.51H5.75993C4.83945 16.51 4.09326 15.7638 4.09326 14.8433Z" fill="#BFBFBF"/>
<path d="M86.6935 49.56L76.2269 60.0267C75.1602 61.0933 73.4302 61.1033 72.3535 60.0467L56.6602 44.67C56.1302 44.15 55.8302 43.44 55.8335 42.6967L55.8635 30.57C55.8669 29.8133 56.4802 29.1967 57.2369 29.1967L69.3635 29.1667C70.1069 29.1633 70.8169 29.4633 71.3369 29.9933L86.7135 45.6867C87.7702 46.7667 87.7602 48.4933 86.6935 49.56Z" fill="#F2F2F2"/>
<path d="M22.5 62.5V90.8333H31.6667L38.3333 66.2133C38.3333 66.2133 33.4733 62.5 22.5 62.5Z" fill="#F2F2F2"/>
<path d="M37.1001 75.6533L51.6668 81.6667C51.6668 81.6667 60.8334 85 67.5001 85C74.1668 85 82.5001 80 89.1668 80C95.8334 80 97.5001 84.1667 97.5001 84.1667C97.5001 84.1667 73.3334 97.5 63.3334 97.5C55.3668 97.5 38.9668 90.1 32.6001 87.1L37.1001 75.6533Z" fill="#F2F2F2"/>
<path d="M37.5664 69.0333L69.6664 75.6C72.7664 76.2333 74.9998 78.9667 74.9998 82.1333V83.6333C74.9998 83.6333 63.8398 91.4766 36.4331 75.6533L37.5664 69.0333Z" fill="#F2F2F2"/>
<path d="M28.3333 62.8667V90.8333H22.5V62.5C24.7 62.5 26.6333 62.6333 28.3333 62.8667Z" fill="#D9D9D9"/>
<path d="M97.5001 84.1666C97.5001 84.1666 73.3334 97.5 63.3334 97.5C55.3668 97.5 38.9668 90.1 32.6001 87.1L34.5334 82.1666C41.8334 85.5333 56.0668 91.6666 63.3334 91.6666C70.7001 91.6666 85.8001 84.4 93.2001 80.6C96.5334 81.7666 97.5001 84.1666 97.5001 84.1666Z" fill="#D9D9D9"/>
<path d="M77.6335 58.6333L76.2335 60.0333C75.1668 61.1 73.4335 61.1 72.3668 60.0333L56.6668 44.6666C56.1335 44.1666 55.8335 43.4333 55.8335 42.7L55.8668 30.5666C55.8668 29.8 56.4668 29.2 57.2335 29.2L69.3668 29.1666C69.4002 29.1666 69.4668 29.1666 69.5002 29.2H63.9002C63.1335 29.2 62.5335 29.8 62.5335 30.5666L62.5002 42.7C62.5002 43.4333 62.8002 44.1666 63.3335 44.6666L77.6335 58.6333Z" fill="#D9D9D9"/>
<path d="M31.6667 93.3334H22.5C21.12 93.3334 20 92.2134 20 90.8334V60.8334C20 59.4534 21.12 58.3334 22.5 58.3334C34.1833 58.3334 39.6267 62.3867 39.85 62.56C40.6467 63.17 41.0033 64.1934 40.7567 65.1634L34.09 91.45C33.81 92.5567 32.81 93.3334 31.6667 93.3334ZM25 88.3334H29.7233L35.4433 65.7734C33.7067 64.95 30.29 63.71 25 63.4034V88.3334Z" fill="#404040"/>
<path d="M62.5 100C54.6834 100 41.8967 93.9033 34.26 90.26L32.3667 89.36L34.5 84.8366L36.4134 85.7466C43.1934 88.98 55.8134 94.9966 62.5 94.9966C69.4067 94.9966 85.6967 87.4066 93.8767 83.2333C92.98 82.4366 91.51 81.6633 89.1667 81.6633C86.22 81.6633 82.38 82.8766 78.67 84.0466C74.5967 85.3366 70.3867 86.6666 66.6667 86.6666C59.64 86.6666 50.37 83.3266 49.98 83.1833L51.6867 78.4833C51.7734 78.5166 60.5267 81.6666 66.6667 81.6666C69.6134 81.6666 73.4534 80.4533 77.1634 79.2833C81.2367 77.9966 85.4467 76.6666 89.1667 76.6666C97.54 76.6666 99.78 83.1033 99.87 83.3766C100.257 84.5333 99.75 85.8 98.6767 86.3733C97.6334 86.93 73.0034 100 62.5 100Z" fill="#404040"/>
<path d="M77.4998 81.9667H72.4998C72.4998 80.06 71.1698 78.3634 69.3331 77.9367L37.1465 70.1633L38.3231 65.3033L70.4898 73.07C74.6098 74.03 77.4998 77.69 77.4998 81.9667Z" fill="#404040"/>
<path d="M74.2802 63.3266C72.9502 63.3266 71.6202 62.83 70.6035 61.8333L54.9102 46.4533C53.9068 45.47 53.3302 44.0966 53.3335 42.69L53.3635 30.56C53.3668 28.4333 55.1035 26.6966 57.2335 26.6933L69.3568 26.6666H69.3668C70.7702 26.6666 72.1402 27.24 73.1202 28.2466L88.4969 43.94C90.5035 45.99 90.4869 49.3066 88.4569 51.3333L77.9935 61.7966C76.9769 62.8133 75.6269 63.3266 74.2802 63.3266ZM58.3602 31.7L58.3335 42.7033L74.1035 58.26C74.2002 58.3533 74.3602 58.3533 74.4602 58.2566L84.9235 47.7933C85.0202 47.6933 85.0235 47.5333 84.9235 47.4333L69.5468 31.74L58.3602 31.7Z" fill="#404040"/>
<path d="M64.0566 39.5633C65.2569 39.5633 66.23 38.5903 66.23 37.39C66.23 36.1897 65.2569 35.2167 64.0566 35.2167C62.8563 35.2167 61.8833 36.1897 61.8833 37.39C61.8833 38.5903 62.8563 39.5633 64.0566 39.5633Z" fill="#404040"/>
</svg>
