<svg width="946" height="132" viewBox="0 0 946 132" fill="none" xmlns="http://www.w3.org/2000/svg">
<g opacity="0.05">
<path d="M0 0.329102H30.194V129.88H0V0.329102Z" fill="black"/>
<path d="M120.054 28.8303C132.479 28.8303 142.482 32.5317 150.062 39.9346C157.765 47.3375 161.617 58.3185 161.617 72.8776V129.88H132.542V77.3193C132.542 69.4229 130.802 63.5622 127.323 59.7374C123.844 55.7892 118.811 53.8151 112.226 53.8151C104.895 53.8151 99.0548 56.0977 94.7059 60.6628C90.3569 65.1045 88.1824 71.7671 88.1824 80.6506V129.88H59.1067V30.3109H86.8778V41.9704C90.7297 37.7755 95.5135 34.5675 101.229 32.3467C106.945 30.0024 113.22 28.8303 120.054 28.8303Z" fill="black"/>
<path d="M221.708 131.361C213.383 131.361 205.245 130.373 197.292 128.399C189.34 126.302 183.003 123.711 178.281 120.626L187.973 99.8982C192.446 102.736 197.851 105.08 204.188 106.931C210.525 108.658 216.738 109.522 222.827 109.522C235.128 109.522 241.279 106.499 241.279 100.453C241.279 97.6156 239.601 95.5798 236.246 94.346C232.891 93.1122 227.735 92.0634 220.776 91.1998C212.576 89.9659 205.804 88.5471 200.461 86.9431C195.118 85.3391 190.458 82.5013 186.482 78.4297C182.63 74.3581 180.704 68.5592 180.704 61.0329C180.704 54.7405 182.506 49.1883 186.109 44.3764C189.837 39.4411 195.18 35.6163 202.138 32.9019C209.221 30.1875 217.546 28.8303 227.113 28.8303C234.196 28.8303 241.216 29.6323 248.175 31.2362C255.257 32.7168 261.097 34.8143 265.695 37.5287L256.003 58.0718C247.181 53.1365 237.551 50.6689 227.113 50.6689C220.901 50.6689 216.241 51.5325 213.135 53.2599C210.028 54.9872 208.475 57.2081 208.475 59.9225C208.475 63.007 210.153 65.1662 213.508 66.4C216.862 67.6338 222.205 68.806 229.536 69.9164C237.737 71.2736 244.447 72.7542 249.666 74.3582C254.885 75.8387 259.42 78.6148 263.272 82.6864C267.124 86.758 269.05 92.4336 269.05 99.7131C269.05 105.882 267.186 111.373 263.458 116.185C259.73 120.996 254.263 124.76 247.056 127.474C239.974 130.065 231.525 131.361 221.708 131.361Z" fill="black"/>
<path d="M388.009 30.3109V129.88H360.424V118.035C356.572 122.354 351.975 125.685 346.632 128.029C341.289 130.25 335.511 131.361 329.298 131.361C316.127 131.361 305.689 127.597 297.986 120.071C290.282 112.545 286.43 101.379 286.43 86.5729V30.3109H315.506V82.3163C315.506 98.3559 322.278 106.376 335.821 106.376C342.78 106.376 348.371 104.155 352.596 99.7131C356.82 95.148 358.933 88.4237 358.933 79.5402V30.3109H388.009Z" fill="black"/>
<path d="M442.716 43.451C446.196 38.6391 450.855 34.9994 456.695 32.5317C462.659 30.0641 469.493 28.8303 477.197 28.8303V55.4807C473.967 55.234 471.792 55.1106 470.674 55.1106C462.349 55.1106 455.825 57.4549 451.104 62.1434C446.382 66.7085 444.021 73.6179 444.021 82.8715V129.88H414.945V30.3109H442.716V43.451Z" fill="black"/>
<path d="M534.385 28.8303C549.917 28.8303 561.845 32.5317 570.17 39.9346C578.495 47.2142 582.658 58.2568 582.658 73.0626V129.88H555.446V117.48C549.979 126.734 539.79 131.361 524.879 131.361C517.175 131.361 510.466 130.065 504.75 127.474C499.158 124.883 494.872 121.305 491.889 116.74C488.907 112.175 487.416 106.993 487.416 101.194C487.416 91.94 490.895 84.6605 497.854 79.3551C504.936 74.0497 515.809 71.397 530.471 71.397H553.582C553.582 65.1045 551.656 60.2926 547.804 56.9613C543.952 53.5066 538.175 51.7793 530.471 51.7793C525.128 51.7793 519.847 52.643 514.628 54.3703C509.534 55.9743 505.185 58.1951 501.581 61.0329L491.144 40.86C496.611 37.0352 503.135 34.074 510.714 31.9765C518.418 29.879 526.308 28.8303 534.385 28.8303ZM532.148 111.928C537.118 111.928 541.529 110.817 545.381 108.597C549.233 106.252 551.967 102.859 553.582 98.4176V88.2386H533.639C521.711 88.2386 515.746 92.1251 515.746 99.8982C515.746 103.6 517.175 106.561 520.033 108.782C523.015 110.879 527.054 111.928 532.148 111.928Z" fill="black"/>
<path d="M669.92 28.8303C682.346 28.8303 692.348 32.5317 699.928 39.9346C707.632 47.3375 711.484 58.3185 711.484 72.8776V129.88H682.408V77.3193C682.408 69.4229 680.668 63.5622 677.189 59.7374C673.71 55.7892 668.678 53.8151 662.092 53.8151C654.761 53.8151 648.921 56.0977 644.572 60.6628C640.223 65.1045 638.049 71.7671 638.049 80.6506V129.88H608.973V30.3109H636.744V41.9704C640.596 37.7755 645.38 34.5675 651.095 32.3467C656.811 30.0024 663.086 28.8303 669.92 28.8303Z" fill="black"/>
<path d="M787.391 131.361C776.705 131.361 767.075 129.201 758.502 124.883C750.052 120.441 743.405 114.334 738.559 106.561C733.837 98.7877 731.476 89.9659 731.476 80.0954C731.476 70.2249 733.837 61.4031 738.559 53.63C743.405 45.857 750.052 39.8113 758.502 35.4929C767.075 31.0512 776.705 28.8303 787.391 28.8303C797.953 28.8303 807.148 31.0512 814.976 35.4929C822.928 39.8113 828.706 46.042 832.309 54.1852L809.757 66.215C804.538 57.0847 797.021 52.5196 787.205 52.5196C779.625 52.5196 773.35 54.9872 768.38 59.9225C763.41 64.8577 760.925 71.5821 760.925 80.0954C760.925 88.6087 763.41 95.3331 768.38 100.268C773.35 105.204 779.625 107.671 787.205 107.671C797.145 107.671 804.662 103.106 809.757 93.9758L832.309 106.191C828.706 114.087 822.928 120.256 814.976 124.698C807.148 129.14 797.953 131.361 787.391 131.361Z" fill="black"/>
<path d="M946 80.4655C946 80.8357 945.814 83.4267 945.441 88.2386H869.583C870.95 94.4077 874.18 99.2813 879.275 102.859C884.369 106.437 890.706 108.226 898.286 108.226C903.505 108.226 908.102 107.486 912.078 106.006C916.179 104.402 919.968 101.934 923.448 98.6027L938.917 115.259C929.474 125.993 915.682 131.361 897.54 131.361C886.233 131.361 876.231 129.201 867.533 124.883C858.835 120.441 852.125 114.334 847.403 106.561C842.682 98.7877 840.321 89.9659 840.321 80.0954C840.321 70.3482 842.62 61.5881 847.217 53.8151C851.939 45.9187 858.338 39.8113 866.414 35.4929C874.615 31.0512 883.748 28.8303 893.813 28.8303C903.629 28.8303 912.513 30.9278 920.466 35.1228C928.418 39.3177 934.631 45.3634 939.104 53.2599C943.701 61.0329 946 70.1015 946 80.4655ZM893.999 50.6689C887.414 50.6689 881.884 52.5196 877.411 56.221C872.938 59.9225 870.204 64.9811 869.21 71.397H918.602C917.608 65.1045 914.874 60.1076 910.401 56.4061C905.928 52.5813 900.46 50.6689 893.999 50.6689Z" fill="black"/>
</g>
</svg>
