<svg width="1440" height="616" viewBox="0 0 1440 616" fill="none" xmlns="http://www.w3.org/2000/svg">
<mask id="mask0_6062:62758" style="mask-type:alpha" maskUnits="userSpaceOnUse" x="0" y="0" width="1440" height="616">
<rect width="1440" height="616" fill="#C4C4C4"/>
</mask>
<g mask="url(#mask0_6062:62758)">
<path opacity="0.7" d="M1442.5 96.5014C1332 39.0014 1222.44 75.8488 1279.24 158.249C1350.24 261.249 1190.24 620.749 1050.24 435.249C910.241 249.749 1182.74 231.749 1162.24 174.249C1141.74 116.749 1087.5 56.5014 1008.74 109.749C919.266 170.242 1031.74 444.249 820.742 341.249C609.742 238.249 708.742 91.2487 353.242 231.249C-2.25827 371.249 38.7417 61.7487 233.742 57.2487C428.742 52.7487 292.647 -83.0145 146.742 -52.7513C-42.4999 -13.4994 -303.499 332 150 411" stroke="#E7E7E7" stroke-width="3"/>
<circle cx="424" cy="92.8501" r="11" fill="#EB2227"/>
<circle cx="1182.74" cy="340.497" r="5" fill="#7F7F7F"/>
<circle cx="291.742" cy="59.4966" r="5" fill="#7F7F7F"/>
<circle cx="120.5" cy="407.35" r="39.5" fill="white"/>
<circle cx="1034.5" cy="87.5" r="5.5" fill="#7F7F7F"/>
<circle cx="1227.5" cy="99.3501" r="11.5" fill="#333333"/>
<circle cx="214.5" cy="323.5" r="4.5" fill="#7F7F7F"/>
<circle cx="771" cy="451" r="11" fill="#BFBFBF"/>
<path fill-rule="evenodd" clip-rule="evenodd" d="M1262.23 -222.619C1184.16 -170.188 1132.9 -81.8643 1132.9 18.2553C1132.9 179.133 1265.24 309.549 1428.5 309.549C1591.76 309.549 1724.1 179.133 1724.1 18.2553C1724.1 -81.8643 1672.84 -170.188 1594.77 -222.619L1594.78 -307C1715.33 -247.037 1798 -123.905 1798 18.2553C1798 219.352 1632.57 382.373 1428.5 382.373C1224.43 382.373 1059 219.352 1059 18.2553C1059 -123.905 1141.67 -247.037 1262.23 -307L1262.23 -222.619Z" fill="#EB2227"/>
<rect x="984" y="248" width="53" height="53.1894" rx="26" fill="#EB2227"/>
<path d="M1017.03 262.072C1015.4 262.072 1013.91 262.6 1012.6 263.641C1011.33 264.638 1010.49 265.909 1010 266.833C1009.51 265.909 1008.67 264.638 1007.4 263.641C1006.09 262.6 1004.6 262.072 1002.97 262.072C998.426 262.072 995 265.873 995 270.913C995 276.359 999.274 280.084 1005.74 285.724C1006.84 286.682 1008.09 287.768 1009.38 288.925C1009.55 289.078 1009.77 289.162 1010 289.162C1010.23 289.162 1010.45 289.078 1010.62 288.925C1011.91 287.767 1013.16 286.682 1014.26 285.724C1020.73 280.084 1025 276.359 1025 270.913C1025 265.873 1021.57 262.072 1017.03 262.072Z" fill="white"/>
</g>
</svg>
